{
	"patcher" : 	{
		"fileversion" : 1,
		"rect" : [ 655.0, 359.0, 1529.0, 731.0 ],
		"bglocked" : 0,
		"defrect" : [ 655.0, 359.0, 1529.0, 731.0 ],
		"openrect" : [ 0.0, 0.0, 0.0, 0.0 ],
		"openinpresentation" : 0,
		"default_fontsize" : 12.0,
		"default_fontface" : 0,
		"default_fontname" : "Arial",
		"gridonopen" : 0,
		"gridsize" : [ 15.0, 15.0 ],
		"gridsnaponopen" : 0,
		"toolbarvisible" : 1,
		"boxanimatetime" : 200,
		"imprint" : 0,
		"enablehscroll" : 1,
		"enablevscroll" : 1,
		"devicewidth" : 0.0,
		"boxes" : [ 			{
				"box" : 				{
					"maxclass" : "newobj",
					"text" : "r clearMainMatrix",
					"numinlets" : 0,
					"patching_rect" : [ 180.0, 77.0, 103.0, 20.0 ],
					"id" : "obj-2",
					"fontname" : "Arial",
					"numoutlets" : 1,
					"hidden" : 1,
					"outlettype" : [ "" ],
					"fontsize" : 12.0
				}

			}
, 			{
				"box" : 				{
					"maxclass" : "comment",
					"text" : "24",
					"bgcolor" : [ 0.439216, 0.827451, 1.0, 1.0 ],
					"numinlets" : 1,
					"patching_rect" : [ 739.53656, 464.0, 19.0, 17.0 ],
					"id" : "obj-22",
					"fontname" : "Arial Bold",
					"numoutlets" : 0,
					"fontsize" : 9.0
				}

			}
, 			{
				"box" : 				{
					"maxclass" : "comment",
					"text" : "23",
					"bgcolor" : [ 0.439216, 0.827451, 1.0, 1.0 ],
					"numinlets" : 1,
					"patching_rect" : [ 723.53656, 464.0, 19.0, 17.0 ],
					"id" : "obj-23",
					"fontname" : "Arial Bold",
					"numoutlets" : 0,
					"fontsize" : 9.0
				}

			}
, 			{
				"box" : 				{
					"maxclass" : "comment",
					"text" : "22",
					"bgcolor" : [ 0.439216, 0.827451, 1.0, 1.0 ],
					"numinlets" : 1,
					"patching_rect" : [ 707.53656, 464.0, 19.0, 17.0 ],
					"id" : "obj-24",
					"fontname" : "Arial Bold",
					"numoutlets" : 0,
					"fontsize" : 9.0
				}

			}
, 			{
				"box" : 				{
					"maxclass" : "comment",
					"text" : "21",
					"bgcolor" : [ 0.439216, 0.827451, 1.0, 1.0 ],
					"numinlets" : 1,
					"patching_rect" : [ 692.53656, 464.0, 19.0, 17.0 ],
					"id" : "obj-25",
					"fontname" : "Arial Bold",
					"numoutlets" : 0,
					"fontsize" : 9.0
				}

			}
, 			{
				"box" : 				{
					"maxclass" : "comment",
					"text" : "20",
					"bgcolor" : [ 0.439216, 0.827451, 1.0, 1.0 ],
					"numinlets" : 1,
					"patching_rect" : [ 676.53656, 464.0, 19.0, 17.0 ],
					"id" : "obj-26",
					"fontname" : "Arial Bold",
					"numoutlets" : 0,
					"fontsize" : 9.0
				}

			}
, 			{
				"box" : 				{
					"maxclass" : "comment",
					"text" : "19",
					"bgcolor" : [ 0.439216, 0.827451, 1.0, 1.0 ],
					"numinlets" : 1,
					"patching_rect" : [ 660.53656, 464.0, 19.0, 17.0 ],
					"id" : "obj-27",
					"fontname" : "Arial Bold",
					"numoutlets" : 0,
					"fontsize" : 9.0
				}

			}
, 			{
				"box" : 				{
					"maxclass" : "comment",
					"text" : "18",
					"bgcolor" : [ 0.439216, 0.827451, 1.0, 1.0 ],
					"numinlets" : 1,
					"patching_rect" : [ 645.53656, 464.0, 19.0, 17.0 ],
					"id" : "obj-28",
					"fontname" : "Arial Bold",
					"numoutlets" : 0,
					"fontsize" : 9.0
				}

			}
, 			{
				"box" : 				{
					"maxclass" : "comment",
					"text" : "17",
					"bgcolor" : [ 0.439216, 0.827451, 1.0, 1.0 ],
					"numinlets" : 1,
					"patching_rect" : [ 630.536499, 464.0, 19.0, 17.0 ],
					"id" : "obj-29",
					"fontname" : "Arial Bold",
					"numoutlets" : 0,
					"fontsize" : 9.0
				}

			}
, 			{
				"box" : 				{
					"maxclass" : "comment",
					"text" : "16",
					"bgcolor" : [ 0.439216, 0.827451, 1.0, 1.0 ],
					"numinlets" : 1,
					"patching_rect" : [ 611.813049, 464.0, 19.0, 17.0 ],
					"id" : "obj-3",
					"fontname" : "Arial Bold",
					"numoutlets" : 0,
					"fontsize" : 9.0
				}

			}
, 			{
				"box" : 				{
					"maxclass" : "comment",
					"text" : "15",
					"bgcolor" : [ 0.439216, 0.827451, 1.0, 1.0 ],
					"numinlets" : 1,
					"patching_rect" : [ 595.813049, 464.0, 19.0, 17.0 ],
					"id" : "obj-4",
					"fontname" : "Arial Bold",
					"numoutlets" : 0,
					"fontsize" : 9.0
				}

			}
, 			{
				"box" : 				{
					"maxclass" : "comment",
					"text" : "14",
					"bgcolor" : [ 0.439216, 0.827451, 1.0, 1.0 ],
					"numinlets" : 1,
					"patching_rect" : [ 579.813049, 464.0, 19.0, 17.0 ],
					"id" : "obj-5",
					"fontname" : "Arial Bold",
					"numoutlets" : 0,
					"fontsize" : 9.0
				}

			}
, 			{
				"box" : 				{
					"maxclass" : "comment",
					"text" : "13",
					"bgcolor" : [ 0.439216, 0.827451, 1.0, 1.0 ],
					"numinlets" : 1,
					"patching_rect" : [ 564.813049, 464.0, 19.0, 17.0 ],
					"id" : "obj-6",
					"fontname" : "Arial Bold",
					"numoutlets" : 0,
					"fontsize" : 9.0
				}

			}
, 			{
				"box" : 				{
					"maxclass" : "comment",
					"text" : "12",
					"bgcolor" : [ 0.439216, 0.827451, 1.0, 1.0 ],
					"numinlets" : 1,
					"patching_rect" : [ 548.813049, 464.0, 19.0, 17.0 ],
					"id" : "obj-7",
					"fontname" : "Arial Bold",
					"numoutlets" : 0,
					"fontsize" : 9.0
				}

			}
, 			{
				"box" : 				{
					"maxclass" : "comment",
					"text" : "11",
					"bgcolor" : [ 0.439216, 0.827451, 1.0, 1.0 ],
					"numinlets" : 1,
					"patching_rect" : [ 532.813049, 464.0, 19.0, 17.0 ],
					"id" : "obj-10",
					"fontname" : "Arial Bold",
					"numoutlets" : 0,
					"fontsize" : 9.0
				}

			}
, 			{
				"box" : 				{
					"maxclass" : "comment",
					"text" : "10",
					"bgcolor" : [ 0.439216, 0.827451, 1.0, 1.0 ],
					"numinlets" : 1,
					"patching_rect" : [ 515.813049, 464.0, 19.0, 17.0 ],
					"id" : "obj-11",
					"fontname" : "Arial Bold",
					"numoutlets" : 0,
					"fontsize" : 9.0
				}

			}
, 			{
				"box" : 				{
					"maxclass" : "comment",
					"text" : "9",
					"bgcolor" : [ 0.439216, 0.827451, 1.0, 1.0 ],
					"numinlets" : 1,
					"patching_rect" : [ 503.813019, 464.0, 19.0, 17.0 ],
					"id" : "obj-12",
					"fontname" : "Arial Bold",
					"numoutlets" : 0,
					"fontsize" : 9.0
				}

			}
, 			{
				"box" : 				{
					"maxclass" : "comment",
					"text" : "8",
					"bgcolor" : [ 0.439216, 0.827451, 1.0, 1.0 ],
					"numinlets" : 1,
					"patching_rect" : [ 486.813019, 464.0, 19.0, 17.0 ],
					"id" : "obj-13",
					"fontname" : "Arial Bold",
					"numoutlets" : 0,
					"fontsize" : 9.0
				}

			}
, 			{
				"box" : 				{
					"maxclass" : "comment",
					"text" : "7",
					"bgcolor" : [ 0.439216, 0.827451, 1.0, 1.0 ],
					"numinlets" : 1,
					"patching_rect" : [ 470.813019, 464.0, 19.0, 17.0 ],
					"id" : "obj-14",
					"fontname" : "Arial Bold",
					"numoutlets" : 0,
					"fontsize" : 9.0
				}

			}
, 			{
				"box" : 				{
					"maxclass" : "comment",
					"text" : "6",
					"bgcolor" : [ 0.439216, 0.827451, 1.0, 1.0 ],
					"numinlets" : 1,
					"patching_rect" : [ 454.813019, 464.0, 19.0, 17.0 ],
					"id" : "obj-15",
					"fontname" : "Arial Bold",
					"numoutlets" : 0,
					"fontsize" : 9.0
				}

			}
, 			{
				"box" : 				{
					"maxclass" : "comment",
					"text" : "5",
					"bgcolor" : [ 0.439216, 0.827451, 1.0, 1.0 ],
					"numinlets" : 1,
					"patching_rect" : [ 438.813019, 464.0, 19.0, 17.0 ],
					"id" : "obj-16",
					"fontname" : "Arial Bold",
					"numoutlets" : 0,
					"fontsize" : 9.0
				}

			}
, 			{
				"box" : 				{
					"maxclass" : "comment",
					"text" : "4",
					"bgcolor" : [ 0.439216, 0.827451, 1.0, 1.0 ],
					"numinlets" : 1,
					"patching_rect" : [ 423.813019, 464.0, 19.0, 17.0 ],
					"id" : "obj-18",
					"fontname" : "Arial Bold",
					"numoutlets" : 0,
					"fontsize" : 9.0
				}

			}
, 			{
				"box" : 				{
					"maxclass" : "comment",
					"text" : "3",
					"bgcolor" : [ 0.439216, 0.827451, 1.0, 1.0 ],
					"numinlets" : 1,
					"patching_rect" : [ 407.813019, 464.0, 19.0, 17.0 ],
					"id" : "obj-19",
					"fontname" : "Arial Bold",
					"numoutlets" : 0,
					"fontsize" : 9.0
				}

			}
, 			{
				"box" : 				{
					"maxclass" : "comment",
					"text" : "2",
					"bgcolor" : [ 0.439216, 0.827451, 1.0, 1.0 ],
					"numinlets" : 1,
					"patching_rect" : [ 391.813019, 464.0, 19.0, 17.0 ],
					"id" : "obj-20",
					"fontname" : "Arial Bold",
					"numoutlets" : 0,
					"fontsize" : 9.0
				}

			}
, 			{
				"box" : 				{
					"maxclass" : "comment",
					"text" : "1",
					"bgcolor" : [ 0.439216, 0.827451, 1.0, 1.0 ],
					"numinlets" : 1,
					"patching_rect" : [ 376.813019, 464.0, 19.0, 17.0 ],
					"id" : "obj-21",
					"fontname" : "Arial Bold",
					"numoutlets" : 0,
					"fontsize" : 9.0
				}

			}
, 			{
				"box" : 				{
					"maxclass" : "comment",
					"text" : "16",
					"bgcolor" : [ 0.847059, 0.858824, 0.117647, 1.0 ],
					"numinlets" : 1,
					"patching_rect" : [ 356.0, 464.0, 19.0, 17.0 ],
					"id" : "obj-273",
					"fontname" : "Arial Bold",
					"numoutlets" : 0,
					"fontsize" : 9.0
				}

			}
, 			{
				"box" : 				{
					"maxclass" : "comment",
					"text" : "15",
					"bgcolor" : [ 0.847059, 0.858824, 0.117647, 1.0 ],
					"numinlets" : 1,
					"patching_rect" : [ 340.0, 464.0, 19.0, 17.0 ],
					"id" : "obj-274",
					"fontname" : "Arial Bold",
					"numoutlets" : 0,
					"fontsize" : 9.0
				}

			}
, 			{
				"box" : 				{
					"maxclass" : "comment",
					"text" : "14",
					"bgcolor" : [ 0.847059, 0.858824, 0.117647, 1.0 ],
					"numinlets" : 1,
					"patching_rect" : [ 324.0, 464.0, 19.0, 17.0 ],
					"id" : "obj-275",
					"fontname" : "Arial Bold",
					"numoutlets" : 0,
					"fontsize" : 9.0
				}

			}
, 			{
				"box" : 				{
					"maxclass" : "comment",
					"text" : "13",
					"bgcolor" : [ 0.847059, 0.858824, 0.117647, 1.0 ],
					"numinlets" : 1,
					"patching_rect" : [ 309.0, 464.0, 19.0, 17.0 ],
					"id" : "obj-276",
					"fontname" : "Arial Bold",
					"numoutlets" : 0,
					"fontsize" : 9.0
				}

			}
, 			{
				"box" : 				{
					"maxclass" : "comment",
					"text" : "12",
					"bgcolor" : [ 0.847059, 0.858824, 0.117647, 1.0 ],
					"numinlets" : 1,
					"patching_rect" : [ 293.0, 464.0, 19.0, 17.0 ],
					"id" : "obj-277",
					"fontname" : "Arial Bold",
					"numoutlets" : 0,
					"fontsize" : 9.0
				}

			}
, 			{
				"box" : 				{
					"maxclass" : "comment",
					"text" : "11",
					"bgcolor" : [ 0.847059, 0.858824, 0.117647, 1.0 ],
					"numinlets" : 1,
					"patching_rect" : [ 277.0, 464.0, 19.0, 17.0 ],
					"id" : "obj-278",
					"fontname" : "Arial Bold",
					"numoutlets" : 0,
					"fontsize" : 9.0
				}

			}
, 			{
				"box" : 				{
					"maxclass" : "comment",
					"text" : "10",
					"bgcolor" : [ 0.847059, 0.858824, 0.117647, 1.0 ],
					"numinlets" : 1,
					"patching_rect" : [ 261.0, 464.0, 19.0, 17.0 ],
					"id" : "obj-279",
					"fontname" : "Arial Bold",
					"numoutlets" : 0,
					"fontsize" : 9.0
				}

			}
, 			{
				"box" : 				{
					"maxclass" : "comment",
					"text" : "9",
					"bgcolor" : [ 0.847059, 0.858824, 0.117647, 1.0 ],
					"numinlets" : 1,
					"patching_rect" : [ 248.0, 464.0, 19.0, 17.0 ],
					"id" : "obj-280",
					"fontname" : "Arial Bold",
					"numoutlets" : 0,
					"fontsize" : 9.0
				}

			}
, 			{
				"box" : 				{
					"maxclass" : "comment",
					"text" : "8",
					"bgcolor" : [ 0.847059, 0.858824, 0.117647, 1.0 ],
					"numinlets" : 1,
					"patching_rect" : [ 230.0, 464.0, 19.0, 17.0 ],
					"id" : "obj-281",
					"fontname" : "Arial Bold",
					"numoutlets" : 0,
					"fontsize" : 9.0
				}

			}
, 			{
				"box" : 				{
					"maxclass" : "comment",
					"text" : "7",
					"bgcolor" : [ 0.847059, 0.858824, 0.117647, 1.0 ],
					"numinlets" : 1,
					"patching_rect" : [ 214.0, 464.0, 19.0, 17.0 ],
					"id" : "obj-282",
					"fontname" : "Arial Bold",
					"numoutlets" : 0,
					"fontsize" : 9.0
				}

			}
, 			{
				"box" : 				{
					"maxclass" : "comment",
					"text" : "6",
					"bgcolor" : [ 0.847059, 0.858824, 0.117647, 1.0 ],
					"numinlets" : 1,
					"patching_rect" : [ 198.0, 464.0, 19.0, 17.0 ],
					"id" : "obj-283",
					"fontname" : "Arial Bold",
					"numoutlets" : 0,
					"fontsize" : 9.0
				}

			}
, 			{
				"box" : 				{
					"maxclass" : "comment",
					"text" : "5",
					"bgcolor" : [ 0.847059, 0.858824, 0.117647, 1.0 ],
					"numinlets" : 1,
					"patching_rect" : [ 182.0, 464.0, 19.0, 17.0 ],
					"id" : "obj-284",
					"fontname" : "Arial Bold",
					"numoutlets" : 0,
					"fontsize" : 9.0
				}

			}
, 			{
				"box" : 				{
					"maxclass" : "comment",
					"text" : "4",
					"bgcolor" : [ 0.847059, 0.858824, 0.117647, 1.0 ],
					"numinlets" : 1,
					"patching_rect" : [ 167.0, 464.0, 19.0, 17.0 ],
					"id" : "obj-285",
					"fontname" : "Arial Bold",
					"numoutlets" : 0,
					"fontsize" : 9.0
				}

			}
, 			{
				"box" : 				{
					"maxclass" : "comment",
					"text" : "3",
					"bgcolor" : [ 0.847059, 0.858824, 0.117647, 1.0 ],
					"numinlets" : 1,
					"patching_rect" : [ 151.0, 464.0, 19.0, 17.0 ],
					"id" : "obj-286",
					"fontname" : "Arial Bold",
					"numoutlets" : 0,
					"fontsize" : 9.0
				}

			}
, 			{
				"box" : 				{
					"maxclass" : "comment",
					"text" : "2",
					"bgcolor" : [ 0.847059, 0.858824, 0.117647, 1.0 ],
					"numinlets" : 1,
					"patching_rect" : [ 135.0, 464.0, 19.0, 17.0 ],
					"id" : "obj-287",
					"fontname" : "Arial Bold",
					"numoutlets" : 0,
					"fontsize" : 9.0
				}

			}
, 			{
				"box" : 				{
					"maxclass" : "comment",
					"text" : "1",
					"bgcolor" : [ 0.847059, 0.858824, 0.117647, 1.0 ],
					"numinlets" : 1,
					"patching_rect" : [ 120.0, 464.0, 19.0, 17.0 ],
					"id" : "obj-288",
					"fontname" : "Arial Bold",
					"numoutlets" : 0,
					"fontsize" : 9.0
				}

			}
, 			{
				"box" : 				{
					"maxclass" : "newobj",
					"text" : "s switchingMatrix",
					"numinlets" : 1,
					"patching_rect" : [ 118.707726, 545.454529, 102.0, 20.0 ],
					"id" : "obj-64",
					"fontname" : "Arial",
					"numoutlets" : 0,
					"hidden" : 1,
					"fontsize" : 12.0
				}

			}
, 			{
				"box" : 				{
					"maxclass" : "message",
					"text" : "set m1",
					"numinlets" : 2,
					"patching_rect" : [ 63.110428, 442.524414, 50.0, 18.0 ],
					"id" : "obj-61",
					"fontname" : "Arial",
					"numoutlets" : 1,
					"hidden" : 1,
					"outlettype" : [ "" ],
					"fontsize" : 12.0
				}

			}
, 			{
				"box" : 				{
					"maxclass" : "newobj",
					"text" : "sprintf set m%i",
					"numinlets" : 1,
					"patching_rect" : [ 6.761826, 415.477051, 89.0, 20.0 ],
					"id" : "obj-58",
					"fontname" : "Arial",
					"numoutlets" : 1,
					"hidden" : 1,
					"outlettype" : [ "" ],
					"fontsize" : 12.0
				}

			}
, 			{
				"box" : 				{
					"maxclass" : "newobj",
					"text" : "prepend",
					"numinlets" : 1,
					"patching_rect" : [ 118.707733, 512.396606, 55.0, 20.0 ],
					"id" : "obj-57",
					"fontname" : "Arial",
					"numoutlets" : 1,
					"hidden" : 1,
					"outlettype" : [ "" ],
					"fontsize" : 12.0
				}

			}
, 			{
				"box" : 				{
					"maxclass" : "newobj",
					"text" : "loadbang",
					"numinlets" : 1,
					"patching_rect" : [ 7.817459, 355.970673, 60.0, 20.0 ],
					"id" : "obj-9",
					"fontname" : "Arial",
					"numoutlets" : 1,
					"hidden" : 1,
					"outlettype" : [ "bang" ],
					"fontsize" : 12.0
				}

			}
, 			{
				"box" : 				{
					"maxclass" : "message",
					"text" : "#1",
					"numinlets" : 2,
					"patching_rect" : [ 7.066147, 383.224609, 32.5, 18.0 ],
					"id" : "obj-8",
					"fontname" : "Arial",
					"numoutlets" : 1,
					"hidden" : 1,
					"outlettype" : [ "" ],
					"fontsize" : 12.0
				}

			}
, 			{
				"box" : 				{
					"maxclass" : "outlet",
					"numinlets" : 1,
					"patching_rect" : [ 68.369644, 513.899292, 25.0, 25.0 ],
					"id" : "obj-52",
					"numoutlets" : 0,
					"hidden" : 1,
					"comment" : ""
				}

			}
, 			{
				"box" : 				{
					"maxclass" : "newobj",
					"varname" : "matrix",
					"text" : "pattr matrix",
					"numinlets" : 1,
					"patching_rect" : [ 90.909096, 79.639366, 71.0, 20.0 ],
					"id" : "obj-51",
					"fontname" : "Arial",
					"numoutlets" : 3,
					"hidden" : 1,
					"outlettype" : [ "", "", "" ],
					"fontsize" : 12.0,
					"restore" : [ 0, 0, 1, 0, 3, 1, 0, 4, 1, 0, 7, 1, 3, 0, 1, 3, 3, 1, 3, 4, 1, 3, 6, 1, 3, 7, 1, 3, 11, 1, 4, 0, 1, 4, 3, 1, 4, 4, 1, 4, 7, 1, 4, 13, 1, 7, 0, 1, 7, 3, 1, 7, 7, 1, 9, 1, 1 ],
					"saved_object_attributes" : 					{
						"parameter_enable" : 0
					}

				}

			}
, 			{
				"box" : 				{
					"maxclass" : "panel",
					"varname" : "inEven[3]",
					"bgcolor" : [ 0.6, 1.0, 1.0, 0.301961 ],
					"numinlets" : 1,
					"patching_rect" : [ 632.453796, 293.518402, 124.74662, 165.594757 ],
					"id" : "obj-48",
					"numoutlets" : 0,
					"rounded" : 0
				}

			}
, 			{
				"box" : 				{
					"maxclass" : "panel",
					"varname" : "inOdd[3]",
					"bgcolor" : [ 0.0, 0.603922, 1.0, 0.301961 ],
					"numinlets" : 1,
					"patching_rect" : [ 632.665771, 124.176567, 124.74662, 165.594757 ],
					"id" : "obj-50",
					"numoutlets" : 0,
					"rounded" : 0
				}

			}
, 			{
				"box" : 				{
					"maxclass" : "panel",
					"varname" : "inOdd[1]",
					"bgcolor" : [ 0.0, 0.603922, 1.0, 0.301961 ],
					"numinlets" : 1,
					"patching_rect" : [ 504.673157, 293.203186, 124.74662, 167.097397 ],
					"id" : "obj-44",
					"numoutlets" : 0,
					"rounded" : 0
				}

			}
, 			{
				"box" : 				{
					"maxclass" : "panel",
					"varname" : "inEven[1]",
					"bgcolor" : [ 0.6, 1.0, 1.0, 0.301961 ],
					"numinlets" : 1,
					"patching_rect" : [ 376.851227, 292.802399, 124.74662, 167.097397 ],
					"id" : "obj-43",
					"numoutlets" : 0,
					"rounded" : 0
				}

			}
, 			{
				"box" : 				{
					"maxclass" : "panel",
					"varname" : "inEven",
					"bgcolor" : [ 0.6, 1.0, 1.0, 0.301961 ],
					"numinlets" : 1,
					"patching_rect" : [ 504.924072, 123.005257, 124.74662, 166.346069 ],
					"id" : "obj-41",
					"numoutlets" : 0,
					"rounded" : 0
				}

			}
, 			{
				"box" : 				{
					"maxclass" : "panel",
					"varname" : "inOdd",
					"bgcolor" : [ 0.0, 0.603922, 1.0, 0.301961 ],
					"numinlets" : 1,
					"patching_rect" : [ 376.949646, 123.756569, 125.49794, 165.594757 ],
					"id" : "obj-42",
					"numoutlets" : 0,
					"rounded" : 0
				}

			}
, 			{
				"box" : 				{
					"maxclass" : "panel",
					"varname" : "tapeOddEven",
					"bgcolor" : [ 0.352941, 0.345098, 0.0, 0.301961 ],
					"numinlets" : 1,
					"patching_rect" : [ 250.476685, 293.569427, 124.622383, 166.615784 ],
					"id" : "obj-40",
					"numoutlets" : 0,
					"rounded" : 0
				}

			}
, 			{
				"box" : 				{
					"maxclass" : "panel",
					"varname" : "tapeEven",
					"bgcolor" : [ 0.0, 0.0, 0.0, 0.25098 ],
					"numinlets" : 1,
					"patching_rect" : [ 250.127716, 123.756577, 124.74662, 165.594757 ],
					"id" : "obj-39",
					"numoutlets" : 0,
					"rounded" : 0
				}

			}
, 			{
				"box" : 				{
					"maxclass" : "panel",
					"varname" : "tapeOdd[1]",
					"bgcolor" : [ 0.0, 0.0, 0.0, 0.301961 ],
					"numinlets" : 1,
					"patching_rect" : [ 123.005257, 293.569427, 124.295158, 165.113144 ],
					"id" : "obj-38",
					"numoutlets" : 0,
					"rounded" : 0
				}

			}
, 			{
				"box" : 				{
					"maxclass" : "panel",
					"varname" : "tapeOdd",
					"bgcolor" : [ 0.352941, 0.352941, 0.0, 0.301961 ],
					"numinlets" : 1,
					"patching_rect" : [ 122.761841, 123.756569, 125.49794, 165.594757 ],
					"id" : "obj-17",
					"numoutlets" : 0,
					"rounded" : 0
				}

			}
, 			{
				"box" : 				{
					"maxclass" : "matrixctrl",
					"varname" : "matrixctrl[1]",
					"columns" : 40,
					"numinlets" : 1,
					"patching_rect" : [ 120.0, 120.0, 639.496826, 342.841187 ],
					"id" : "obj-1",
					"numoutlets" : 2,
					"rows" : 16,
					"outlettype" : [ "list", "list" ],
					"cellpict" : "matrix-new2.pct"
				}

			}
 ],
		"lines" : [ 			{
				"patchline" : 				{
					"source" : [ "obj-2", 0 ],
					"destination" : [ "obj-1", 0 ],
					"hidden" : 1,
					"midpoints" : [  ]
				}

			}
, 			{
				"patchline" : 				{
					"source" : [ "obj-1", 0 ],
					"destination" : [ "obj-52", 0 ],
					"hidden" : 1,
					"midpoints" : [  ]
				}

			}
, 			{
				"patchline" : 				{
					"source" : [ "obj-9", 0 ],
					"destination" : [ "obj-8", 0 ],
					"hidden" : 1,
					"midpoints" : [  ]
				}

			}
, 			{
				"patchline" : 				{
					"source" : [ "obj-51", 1 ],
					"destination" : [ "obj-1", 0 ],
					"hidden" : 1,
					"midpoints" : [  ]
				}

			}
, 			{
				"patchline" : 				{
					"source" : [ "obj-8", 0 ],
					"destination" : [ "obj-58", 0 ],
					"hidden" : 1,
					"midpoints" : [  ]
				}

			}
, 			{
				"patchline" : 				{
					"source" : [ "obj-58", 0 ],
					"destination" : [ "obj-61", 1 ],
					"hidden" : 1,
					"midpoints" : [  ]
				}

			}
, 			{
				"patchline" : 				{
					"source" : [ "obj-58", 0 ],
					"destination" : [ "obj-57", 0 ],
					"hidden" : 1,
					"midpoints" : [  ]
				}

			}
, 			{
				"patchline" : 				{
					"source" : [ "obj-1", 0 ],
					"destination" : [ "obj-57", 0 ],
					"hidden" : 1,
					"midpoints" : [  ]
				}

			}
, 			{
				"patchline" : 				{
					"source" : [ "obj-57", 0 ],
					"destination" : [ "obj-64", 0 ],
					"hidden" : 1,
					"midpoints" : [  ]
				}

			}
 ]
	}

}
