{
	"patcher" : 	{
		"fileversion" : 1,
		"rect" : [ 25.0, 69.0, 957.0, 540.0 ],
		"bglocked" : 0,
		"defrect" : [ 25.0, 69.0, 957.0, 540.0 ],
		"openrect" : [ 0.0, 0.0, 0.0, 0.0 ],
		"openinpresentation" : 0,
		"default_fontsize" : 12.0,
		"default_fontface" : 0,
		"default_fontname" : "Arial",
		"gridonopen" : 0,
		"gridsize" : [ 15.0, 15.0 ],
		"gridsnaponopen" : 0,
		"toolbarvisible" : 1,
		"boxanimatetime" : 200,
		"imprint" : 0,
		"enablehscroll" : 1,
		"enablevscroll" : 1,
		"devicewidth" : 0.0,
		"boxes" : [ 			{
				"box" : 				{
					"maxclass" : "comment",
					"text" : "48",
					"numinlets" : 1,
					"numoutlets" : 0,
					"fontsize" : 12.0,
					"presentation_rect" : [ 1299.0, 108.0, 0.0, 0.0 ],
					"patching_rect" : [ 1299.0, 108.0, 23.0, 20.0 ],
					"id" : "obj-146",
					"fontname" : "Arial"
				}

			}
, 			{
				"box" : 				{
					"maxclass" : "meter~",
					"numinlets" : 1,
					"numoutlets" : 1,
					"presentation_rect" : [ 1299.0, 33.0, 0.0, 0.0 ],
					"outlettype" : [ "float" ],
					"patching_rect" : [ 1299.0, 33.0, 15.0, 74.0 ],
					"id" : "obj-147"
				}

			}
, 			{
				"box" : 				{
					"maxclass" : "inlet",
					"numinlets" : 0,
					"numoutlets" : 1,
					"presentation_rect" : [ 1299.0, 3.0, 0.0, 0.0 ],
					"outlettype" : [ "" ],
					"patching_rect" : [ 1299.0, 3.0, 17.0, 17.0 ],
					"id" : "obj-148",
					"comment" : ""
				}

			}
, 			{
				"box" : 				{
					"maxclass" : "comment",
					"text" : "47",
					"numinlets" : 1,
					"numoutlets" : 0,
					"fontsize" : 12.0,
					"presentation_rect" : [ 1277.0, 108.0, 0.0, 0.0 ],
					"patching_rect" : [ 1277.0, 108.0, 23.0, 20.0 ],
					"id" : "obj-149",
					"fontname" : "Arial"
				}

			}
, 			{
				"box" : 				{
					"maxclass" : "meter~",
					"numinlets" : 1,
					"numoutlets" : 1,
					"presentation_rect" : [ 1277.0, 33.0, 0.0, 0.0 ],
					"outlettype" : [ "float" ],
					"patching_rect" : [ 1277.0, 33.0, 15.0, 74.0 ],
					"id" : "obj-150"
				}

			}
, 			{
				"box" : 				{
					"maxclass" : "inlet",
					"numinlets" : 0,
					"numoutlets" : 1,
					"presentation_rect" : [ 1277.0, 3.0, 0.0, 0.0 ],
					"outlettype" : [ "" ],
					"patching_rect" : [ 1277.0, 3.0, 17.0, 17.0 ],
					"id" : "obj-151",
					"comment" : ""
				}

			}
, 			{
				"box" : 				{
					"maxclass" : "comment",
					"text" : "46",
					"numinlets" : 1,
					"numoutlets" : 0,
					"fontsize" : 12.0,
					"presentation_rect" : [ 1256.0, 108.0, 0.0, 0.0 ],
					"patching_rect" : [ 1256.0, 108.0, 23.0, 20.0 ],
					"id" : "obj-152",
					"fontname" : "Arial"
				}

			}
, 			{
				"box" : 				{
					"maxclass" : "meter~",
					"numinlets" : 1,
					"numoutlets" : 1,
					"presentation_rect" : [ 1256.0, 33.0, 0.0, 0.0 ],
					"outlettype" : [ "float" ],
					"patching_rect" : [ 1256.0, 33.0, 15.0, 74.0 ],
					"id" : "obj-153"
				}

			}
, 			{
				"box" : 				{
					"maxclass" : "inlet",
					"numinlets" : 0,
					"numoutlets" : 1,
					"presentation_rect" : [ 1256.0, 3.0, 0.0, 0.0 ],
					"outlettype" : [ "" ],
					"patching_rect" : [ 1256.0, 3.0, 17.0, 17.0 ],
					"id" : "obj-154",
					"comment" : ""
				}

			}
, 			{
				"box" : 				{
					"maxclass" : "comment",
					"text" : "45",
					"numinlets" : 1,
					"numoutlets" : 0,
					"fontsize" : 12.0,
					"presentation_rect" : [ 1236.0, 108.0, 0.0, 0.0 ],
					"patching_rect" : [ 1236.0, 108.0, 23.0, 20.0 ],
					"id" : "obj-155",
					"fontname" : "Arial"
				}

			}
, 			{
				"box" : 				{
					"maxclass" : "meter~",
					"numinlets" : 1,
					"numoutlets" : 1,
					"presentation_rect" : [ 1236.0, 33.0, 0.0, 0.0 ],
					"outlettype" : [ "float" ],
					"patching_rect" : [ 1236.0, 33.0, 15.0, 74.0 ],
					"id" : "obj-156"
				}

			}
, 			{
				"box" : 				{
					"maxclass" : "inlet",
					"numinlets" : 0,
					"numoutlets" : 1,
					"presentation_rect" : [ 1236.0, 3.0, 0.0, 0.0 ],
					"outlettype" : [ "" ],
					"patching_rect" : [ 1236.0, 3.0, 17.0, 17.0 ],
					"id" : "obj-157",
					"comment" : ""
				}

			}
, 			{
				"box" : 				{
					"maxclass" : "comment",
					"text" : "44",
					"numinlets" : 1,
					"numoutlets" : 0,
					"fontsize" : 12.0,
					"presentation_rect" : [ 1202.0, 108.0, 0.0, 0.0 ],
					"patching_rect" : [ 1202.0, 108.0, 23.0, 20.0 ],
					"id" : "obj-158",
					"fontname" : "Arial"
				}

			}
, 			{
				"box" : 				{
					"maxclass" : "meter~",
					"numinlets" : 1,
					"numoutlets" : 1,
					"presentation_rect" : [ 1202.0, 33.0, 0.0, 0.0 ],
					"outlettype" : [ "float" ],
					"patching_rect" : [ 1202.0, 33.0, 15.0, 74.0 ],
					"id" : "obj-159"
				}

			}
, 			{
				"box" : 				{
					"maxclass" : "inlet",
					"numinlets" : 0,
					"numoutlets" : 1,
					"presentation_rect" : [ 1202.0, 3.0, 0.0, 0.0 ],
					"outlettype" : [ "" ],
					"patching_rect" : [ 1202.0, 3.0, 17.0, 17.0 ],
					"id" : "obj-160",
					"comment" : ""
				}

			}
, 			{
				"box" : 				{
					"maxclass" : "comment",
					"text" : "43",
					"numinlets" : 1,
					"numoutlets" : 0,
					"fontsize" : 12.0,
					"presentation_rect" : [ 1179.0, 108.0, 0.0, 0.0 ],
					"patching_rect" : [ 1179.0, 108.0, 23.0, 20.0 ],
					"id" : "obj-161",
					"fontname" : "Arial"
				}

			}
, 			{
				"box" : 				{
					"maxclass" : "meter~",
					"numinlets" : 1,
					"numoutlets" : 1,
					"presentation_rect" : [ 1179.0, 33.0, 0.0, 0.0 ],
					"outlettype" : [ "float" ],
					"patching_rect" : [ 1179.0, 33.0, 15.0, 74.0 ],
					"id" : "obj-162"
				}

			}
, 			{
				"box" : 				{
					"maxclass" : "inlet",
					"numinlets" : 0,
					"numoutlets" : 1,
					"presentation_rect" : [ 1179.0, 3.0, 0.0, 0.0 ],
					"outlettype" : [ "" ],
					"patching_rect" : [ 1179.0, 3.0, 17.0, 17.0 ],
					"id" : "obj-163",
					"comment" : ""
				}

			}
, 			{
				"box" : 				{
					"maxclass" : "comment",
					"text" : "42",
					"numinlets" : 1,
					"numoutlets" : 0,
					"fontsize" : 12.0,
					"presentation_rect" : [ 1156.0, 108.0, 0.0, 0.0 ],
					"patching_rect" : [ 1156.0, 108.0, 23.0, 20.0 ],
					"id" : "obj-164",
					"fontname" : "Arial"
				}

			}
, 			{
				"box" : 				{
					"maxclass" : "meter~",
					"numinlets" : 1,
					"numoutlets" : 1,
					"presentation_rect" : [ 1156.0, 33.0, 0.0, 0.0 ],
					"outlettype" : [ "float" ],
					"patching_rect" : [ 1156.0, 33.0, 15.0, 74.0 ],
					"id" : "obj-165"
				}

			}
, 			{
				"box" : 				{
					"maxclass" : "inlet",
					"numinlets" : 0,
					"numoutlets" : 1,
					"presentation_rect" : [ 1156.0, 3.0, 0.0, 0.0 ],
					"outlettype" : [ "" ],
					"patching_rect" : [ 1156.0, 3.0, 17.0, 17.0 ],
					"id" : "obj-166",
					"comment" : ""
				}

			}
, 			{
				"box" : 				{
					"maxclass" : "comment",
					"text" : "41",
					"numinlets" : 1,
					"numoutlets" : 0,
					"fontsize" : 12.0,
					"presentation_rect" : [ 1134.0, 108.0, 0.0, 0.0 ],
					"patching_rect" : [ 1134.0, 108.0, 23.0, 20.0 ],
					"id" : "obj-167",
					"fontname" : "Arial"
				}

			}
, 			{
				"box" : 				{
					"maxclass" : "meter~",
					"numinlets" : 1,
					"numoutlets" : 1,
					"presentation_rect" : [ 1134.0, 33.0, 0.0, 0.0 ],
					"outlettype" : [ "float" ],
					"patching_rect" : [ 1134.0, 33.0, 15.0, 74.0 ],
					"id" : "obj-168"
				}

			}
, 			{
				"box" : 				{
					"maxclass" : "inlet",
					"numinlets" : 0,
					"numoutlets" : 1,
					"presentation_rect" : [ 1134.0, 3.0, 0.0, 0.0 ],
					"outlettype" : [ "" ],
					"patching_rect" : [ 1134.0, 3.0, 17.0, 17.0 ],
					"id" : "obj-169",
					"comment" : ""
				}

			}
, 			{
				"box" : 				{
					"maxclass" : "comment",
					"text" : "40",
					"numinlets" : 1,
					"numoutlets" : 0,
					"fontsize" : 12.0,
					"presentation_rect" : [ 1099.0, 109.0, 0.0, 0.0 ],
					"patching_rect" : [ 1099.0, 109.0, 23.0, 20.0 ],
					"id" : "obj-170",
					"fontname" : "Arial"
				}

			}
, 			{
				"box" : 				{
					"maxclass" : "meter~",
					"numinlets" : 1,
					"numoutlets" : 1,
					"presentation_rect" : [ 1099.0, 34.0, 0.0, 0.0 ],
					"outlettype" : [ "float" ],
					"patching_rect" : [ 1099.0, 34.0, 15.0, 74.0 ],
					"id" : "obj-171"
				}

			}
, 			{
				"box" : 				{
					"maxclass" : "inlet",
					"numinlets" : 0,
					"numoutlets" : 1,
					"presentation_rect" : [ 1099.0, 4.0, 0.0, 0.0 ],
					"outlettype" : [ "" ],
					"patching_rect" : [ 1099.0, 4.0, 17.0, 17.0 ],
					"id" : "obj-172",
					"comment" : ""
				}

			}
, 			{
				"box" : 				{
					"maxclass" : "comment",
					"text" : "39",
					"numinlets" : 1,
					"numoutlets" : 0,
					"fontsize" : 12.0,
					"presentation_rect" : [ 1077.0, 110.0, 0.0, 0.0 ],
					"patching_rect" : [ 1077.0, 110.0, 23.0, 20.0 ],
					"id" : "obj-173",
					"fontname" : "Arial"
				}

			}
, 			{
				"box" : 				{
					"maxclass" : "meter~",
					"numinlets" : 1,
					"numoutlets" : 1,
					"presentation_rect" : [ 1077.0, 35.0, 0.0, 0.0 ],
					"outlettype" : [ "float" ],
					"patching_rect" : [ 1077.0, 35.0, 15.0, 74.0 ],
					"id" : "obj-174"
				}

			}
, 			{
				"box" : 				{
					"maxclass" : "inlet",
					"numinlets" : 0,
					"numoutlets" : 1,
					"presentation_rect" : [ 1077.0, 5.0, 0.0, 0.0 ],
					"outlettype" : [ "" ],
					"patching_rect" : [ 1077.0, 5.0, 17.0, 17.0 ],
					"id" : "obj-175",
					"comment" : ""
				}

			}
, 			{
				"box" : 				{
					"maxclass" : "comment",
					"text" : "38",
					"numinlets" : 1,
					"numoutlets" : 0,
					"fontsize" : 12.0,
					"presentation_rect" : [ 1053.0, 110.0, 0.0, 0.0 ],
					"patching_rect" : [ 1053.0, 110.0, 23.0, 20.0 ],
					"id" : "obj-176",
					"fontname" : "Arial"
				}

			}
, 			{
				"box" : 				{
					"maxclass" : "meter~",
					"numinlets" : 1,
					"numoutlets" : 1,
					"presentation_rect" : [ 1053.0, 35.0, 0.0, 0.0 ],
					"outlettype" : [ "float" ],
					"patching_rect" : [ 1053.0, 35.0, 15.0, 74.0 ],
					"id" : "obj-177"
				}

			}
, 			{
				"box" : 				{
					"maxclass" : "inlet",
					"numinlets" : 0,
					"numoutlets" : 1,
					"presentation_rect" : [ 1053.0, 5.0, 0.0, 0.0 ],
					"outlettype" : [ "" ],
					"patching_rect" : [ 1053.0, 5.0, 17.0, 17.0 ],
					"id" : "obj-178",
					"comment" : ""
				}

			}
, 			{
				"box" : 				{
					"maxclass" : "comment",
					"text" : "37",
					"numinlets" : 1,
					"numoutlets" : 0,
					"fontsize" : 12.0,
					"presentation_rect" : [ 1028.0, 110.0, 0.0, 0.0 ],
					"patching_rect" : [ 1028.0, 110.0, 23.0, 20.0 ],
					"id" : "obj-179",
					"fontname" : "Arial"
				}

			}
, 			{
				"box" : 				{
					"maxclass" : "meter~",
					"numinlets" : 1,
					"numoutlets" : 1,
					"presentation_rect" : [ 1032.0, 35.0, 0.0, 0.0 ],
					"outlettype" : [ "float" ],
					"patching_rect" : [ 1032.0, 35.0, 15.0, 74.0 ],
					"id" : "obj-180"
				}

			}
, 			{
				"box" : 				{
					"maxclass" : "inlet",
					"numinlets" : 0,
					"numoutlets" : 1,
					"presentation_rect" : [ 1032.0, 5.0, 0.0, 0.0 ],
					"outlettype" : [ "" ],
					"patching_rect" : [ 1032.0, 5.0, 17.0, 17.0 ],
					"id" : "obj-181",
					"comment" : ""
				}

			}
, 			{
				"box" : 				{
					"maxclass" : "comment",
					"text" : "36",
					"numinlets" : 1,
					"numoutlets" : 0,
					"fontsize" : 12.0,
					"presentation_rect" : [ 992.0, 112.0, 0.0, 0.0 ],
					"patching_rect" : [ 992.0, 112.0, 23.0, 20.0 ],
					"id" : "obj-182",
					"fontname" : "Arial"
				}

			}
, 			{
				"box" : 				{
					"maxclass" : "meter~",
					"numinlets" : 1,
					"numoutlets" : 1,
					"presentation_rect" : [ 992.0, 37.0, 0.0, 0.0 ],
					"outlettype" : [ "float" ],
					"patching_rect" : [ 992.0, 37.0, 15.0, 74.0 ],
					"id" : "obj-183"
				}

			}
, 			{
				"box" : 				{
					"maxclass" : "inlet",
					"numinlets" : 0,
					"numoutlets" : 1,
					"presentation_rect" : [ 992.0, 7.0, 0.0, 0.0 ],
					"outlettype" : [ "" ],
					"patching_rect" : [ 992.0, 7.0, 17.0, 17.0 ],
					"id" : "obj-184",
					"comment" : ""
				}

			}
, 			{
				"box" : 				{
					"maxclass" : "comment",
					"text" : "35",
					"numinlets" : 1,
					"numoutlets" : 0,
					"fontsize" : 12.0,
					"presentation_rect" : [ 967.0, 112.0, 0.0, 0.0 ],
					"patching_rect" : [ 967.0, 112.0, 23.0, 20.0 ],
					"id" : "obj-185",
					"fontname" : "Arial"
				}

			}
, 			{
				"box" : 				{
					"maxclass" : "meter~",
					"numinlets" : 1,
					"numoutlets" : 1,
					"presentation_rect" : [ 967.0, 37.0, 0.0, 0.0 ],
					"outlettype" : [ "float" ],
					"patching_rect" : [ 967.0, 37.0, 15.0, 74.0 ],
					"id" : "obj-186"
				}

			}
, 			{
				"box" : 				{
					"maxclass" : "inlet",
					"numinlets" : 0,
					"numoutlets" : 1,
					"presentation_rect" : [ 967.0, 7.0, 0.0, 0.0 ],
					"outlettype" : [ "" ],
					"patching_rect" : [ 967.0, 7.0, 17.0, 17.0 ],
					"id" : "obj-187",
					"comment" : ""
				}

			}
, 			{
				"box" : 				{
					"maxclass" : "comment",
					"text" : "34",
					"numinlets" : 1,
					"numoutlets" : 0,
					"fontsize" : 12.0,
					"presentation_rect" : [ 942.0, 112.0, 0.0, 0.0 ],
					"patching_rect" : [ 942.0, 112.0, 23.0, 20.0 ],
					"id" : "obj-188",
					"fontname" : "Arial"
				}

			}
, 			{
				"box" : 				{
					"maxclass" : "meter~",
					"numinlets" : 1,
					"numoutlets" : 1,
					"presentation_rect" : [ 942.0, 37.0, 0.0, 0.0 ],
					"outlettype" : [ "float" ],
					"patching_rect" : [ 942.0, 37.0, 15.0, 74.0 ],
					"id" : "obj-189"
				}

			}
, 			{
				"box" : 				{
					"maxclass" : "inlet",
					"numinlets" : 0,
					"numoutlets" : 1,
					"presentation_rect" : [ 942.0, 7.0, 0.0, 0.0 ],
					"outlettype" : [ "" ],
					"patching_rect" : [ 942.0, 7.0, 17.0, 17.0 ],
					"id" : "obj-190",
					"comment" : ""
				}

			}
, 			{
				"box" : 				{
					"maxclass" : "comment",
					"text" : "33",
					"numinlets" : 1,
					"numoutlets" : 0,
					"fontsize" : 12.0,
					"presentation_rect" : [ 919.0, 112.0, 0.0, 0.0 ],
					"patching_rect" : [ 919.0, 112.0, 23.0, 20.0 ],
					"id" : "obj-191",
					"fontname" : "Arial"
				}

			}
, 			{
				"box" : 				{
					"maxclass" : "meter~",
					"numinlets" : 1,
					"numoutlets" : 1,
					"presentation_rect" : [ 919.0, 37.0, 0.0, 0.0 ],
					"outlettype" : [ "float" ],
					"patching_rect" : [ 919.0, 37.0, 15.0, 74.0 ],
					"id" : "obj-192"
				}

			}
, 			{
				"box" : 				{
					"maxclass" : "inlet",
					"numinlets" : 0,
					"numoutlets" : 1,
					"presentation_rect" : [ 919.0, 7.0, 0.0, 0.0 ],
					"outlettype" : [ "" ],
					"patching_rect" : [ 919.0, 7.0, 17.0, 17.0 ],
					"id" : "obj-193",
					"comment" : ""
				}

			}
, 			{
				"box" : 				{
					"maxclass" : "comment",
					"text" : "32",
					"numinlets" : 1,
					"numoutlets" : 0,
					"fontsize" : 12.0,
					"presentation_rect" : [ 849.0, 111.0, 0.0, 0.0 ],
					"patching_rect" : [ 849.0, 111.0, 23.0, 20.0 ],
					"id" : "obj-98",
					"fontname" : "Arial"
				}

			}
, 			{
				"box" : 				{
					"maxclass" : "meter~",
					"numinlets" : 1,
					"numoutlets" : 1,
					"presentation_rect" : [ 849.0, 36.0, 0.0, 0.0 ],
					"outlettype" : [ "float" ],
					"patching_rect" : [ 849.0, 36.0, 15.0, 74.0 ],
					"id" : "obj-99"
				}

			}
, 			{
				"box" : 				{
					"maxclass" : "inlet",
					"numinlets" : 0,
					"numoutlets" : 1,
					"presentation_rect" : [ 849.0, 6.0, 0.0, 0.0 ],
					"outlettype" : [ "" ],
					"patching_rect" : [ 849.0, 6.0, 17.0, 17.0 ],
					"id" : "obj-100",
					"comment" : ""
				}

			}
, 			{
				"box" : 				{
					"maxclass" : "comment",
					"text" : "31",
					"numinlets" : 1,
					"numoutlets" : 0,
					"fontsize" : 12.0,
					"presentation_rect" : [ 827.0, 111.0, 0.0, 0.0 ],
					"patching_rect" : [ 827.0, 111.0, 23.0, 20.0 ],
					"id" : "obj-101",
					"fontname" : "Arial"
				}

			}
, 			{
				"box" : 				{
					"maxclass" : "meter~",
					"numinlets" : 1,
					"numoutlets" : 1,
					"presentation_rect" : [ 827.0, 36.0, 0.0, 0.0 ],
					"outlettype" : [ "float" ],
					"patching_rect" : [ 827.0, 36.0, 15.0, 74.0 ],
					"id" : "obj-102"
				}

			}
, 			{
				"box" : 				{
					"maxclass" : "inlet",
					"numinlets" : 0,
					"numoutlets" : 1,
					"presentation_rect" : [ 827.0, 6.0, 0.0, 0.0 ],
					"outlettype" : [ "" ],
					"patching_rect" : [ 827.0, 6.0, 17.0, 17.0 ],
					"id" : "obj-103",
					"comment" : ""
				}

			}
, 			{
				"box" : 				{
					"maxclass" : "comment",
					"text" : "30",
					"numinlets" : 1,
					"numoutlets" : 0,
					"fontsize" : 12.0,
					"presentation_rect" : [ 806.0, 111.0, 0.0, 0.0 ],
					"patching_rect" : [ 806.0, 111.0, 23.0, 20.0 ],
					"id" : "obj-104",
					"fontname" : "Arial"
				}

			}
, 			{
				"box" : 				{
					"maxclass" : "meter~",
					"numinlets" : 1,
					"numoutlets" : 1,
					"presentation_rect" : [ 806.0, 36.0, 0.0, 0.0 ],
					"outlettype" : [ "float" ],
					"patching_rect" : [ 806.0, 36.0, 15.0, 74.0 ],
					"id" : "obj-105"
				}

			}
, 			{
				"box" : 				{
					"maxclass" : "inlet",
					"numinlets" : 0,
					"numoutlets" : 1,
					"presentation_rect" : [ 806.0, 6.0, 0.0, 0.0 ],
					"outlettype" : [ "" ],
					"patching_rect" : [ 806.0, 6.0, 17.0, 17.0 ],
					"id" : "obj-106",
					"comment" : ""
				}

			}
, 			{
				"box" : 				{
					"maxclass" : "comment",
					"text" : "29",
					"numinlets" : 1,
					"numoutlets" : 0,
					"fontsize" : 12.0,
					"presentation_rect" : [ 786.0, 111.0, 0.0, 0.0 ],
					"patching_rect" : [ 786.0, 111.0, 23.0, 20.0 ],
					"id" : "obj-107",
					"fontname" : "Arial"
				}

			}
, 			{
				"box" : 				{
					"maxclass" : "meter~",
					"numinlets" : 1,
					"numoutlets" : 1,
					"presentation_rect" : [ 786.0, 36.0, 0.0, 0.0 ],
					"outlettype" : [ "float" ],
					"patching_rect" : [ 786.0, 36.0, 15.0, 74.0 ],
					"id" : "obj-108"
				}

			}
, 			{
				"box" : 				{
					"maxclass" : "inlet",
					"numinlets" : 0,
					"numoutlets" : 1,
					"presentation_rect" : [ 786.0, 6.0, 0.0, 0.0 ],
					"outlettype" : [ "" ],
					"patching_rect" : [ 786.0, 6.0, 17.0, 17.0 ],
					"id" : "obj-109",
					"comment" : ""
				}

			}
, 			{
				"box" : 				{
					"maxclass" : "comment",
					"text" : "28",
					"numinlets" : 1,
					"numoutlets" : 0,
					"fontsize" : 12.0,
					"presentation_rect" : [ 752.0, 111.0, 0.0, 0.0 ],
					"patching_rect" : [ 752.0, 111.0, 23.0, 20.0 ],
					"id" : "obj-110",
					"fontname" : "Arial"
				}

			}
, 			{
				"box" : 				{
					"maxclass" : "meter~",
					"numinlets" : 1,
					"numoutlets" : 1,
					"presentation_rect" : [ 752.0, 36.0, 0.0, 0.0 ],
					"outlettype" : [ "float" ],
					"patching_rect" : [ 752.0, 36.0, 15.0, 74.0 ],
					"id" : "obj-111"
				}

			}
, 			{
				"box" : 				{
					"maxclass" : "inlet",
					"numinlets" : 0,
					"numoutlets" : 1,
					"presentation_rect" : [ 752.0, 6.0, 0.0, 0.0 ],
					"outlettype" : [ "" ],
					"patching_rect" : [ 752.0, 6.0, 17.0, 17.0 ],
					"id" : "obj-112",
					"comment" : ""
				}

			}
, 			{
				"box" : 				{
					"maxclass" : "comment",
					"text" : "27",
					"numinlets" : 1,
					"numoutlets" : 0,
					"fontsize" : 12.0,
					"presentation_rect" : [ 729.0, 111.0, 0.0, 0.0 ],
					"patching_rect" : [ 729.0, 111.0, 23.0, 20.0 ],
					"id" : "obj-113",
					"fontname" : "Arial"
				}

			}
, 			{
				"box" : 				{
					"maxclass" : "meter~",
					"numinlets" : 1,
					"numoutlets" : 1,
					"presentation_rect" : [ 729.0, 36.0, 0.0, 0.0 ],
					"outlettype" : [ "float" ],
					"patching_rect" : [ 729.0, 36.0, 15.0, 74.0 ],
					"id" : "obj-114"
				}

			}
, 			{
				"box" : 				{
					"maxclass" : "inlet",
					"numinlets" : 0,
					"numoutlets" : 1,
					"presentation_rect" : [ 729.0, 6.0, 0.0, 0.0 ],
					"outlettype" : [ "" ],
					"patching_rect" : [ 729.0, 6.0, 17.0, 17.0 ],
					"id" : "obj-115",
					"comment" : ""
				}

			}
, 			{
				"box" : 				{
					"maxclass" : "comment",
					"text" : "26",
					"numinlets" : 1,
					"numoutlets" : 0,
					"fontsize" : 12.0,
					"presentation_rect" : [ 706.0, 111.0, 0.0, 0.0 ],
					"patching_rect" : [ 706.0, 111.0, 23.0, 20.0 ],
					"id" : "obj-116",
					"fontname" : "Arial"
				}

			}
, 			{
				"box" : 				{
					"maxclass" : "meter~",
					"numinlets" : 1,
					"numoutlets" : 1,
					"presentation_rect" : [ 706.0, 36.0, 0.0, 0.0 ],
					"outlettype" : [ "float" ],
					"patching_rect" : [ 706.0, 36.0, 15.0, 74.0 ],
					"id" : "obj-117"
				}

			}
, 			{
				"box" : 				{
					"maxclass" : "inlet",
					"numinlets" : 0,
					"numoutlets" : 1,
					"presentation_rect" : [ 706.0, 6.0, 0.0, 0.0 ],
					"outlettype" : [ "" ],
					"patching_rect" : [ 706.0, 6.0, 17.0, 17.0 ],
					"id" : "obj-118",
					"comment" : ""
				}

			}
, 			{
				"box" : 				{
					"maxclass" : "comment",
					"text" : "25",
					"numinlets" : 1,
					"numoutlets" : 0,
					"fontsize" : 12.0,
					"presentation_rect" : [ 684.0, 111.0, 0.0, 0.0 ],
					"patching_rect" : [ 684.0, 111.0, 23.0, 20.0 ],
					"id" : "obj-119",
					"fontname" : "Arial"
				}

			}
, 			{
				"box" : 				{
					"maxclass" : "meter~",
					"numinlets" : 1,
					"numoutlets" : 1,
					"presentation_rect" : [ 684.0, 36.0, 0.0, 0.0 ],
					"outlettype" : [ "float" ],
					"patching_rect" : [ 684.0, 36.0, 15.0, 74.0 ],
					"id" : "obj-120"
				}

			}
, 			{
				"box" : 				{
					"maxclass" : "inlet",
					"numinlets" : 0,
					"numoutlets" : 1,
					"presentation_rect" : [ 684.0, 6.0, 0.0, 0.0 ],
					"outlettype" : [ "" ],
					"patching_rect" : [ 684.0, 6.0, 17.0, 17.0 ],
					"id" : "obj-121",
					"comment" : ""
				}

			}
, 			{
				"box" : 				{
					"maxclass" : "comment",
					"text" : "24",
					"numinlets" : 1,
					"numoutlets" : 0,
					"fontsize" : 12.0,
					"presentation_rect" : [ 649.0, 112.0, 0.0, 0.0 ],
					"patching_rect" : [ 649.0, 112.0, 23.0, 20.0 ],
					"id" : "obj-122",
					"fontname" : "Arial"
				}

			}
, 			{
				"box" : 				{
					"maxclass" : "meter~",
					"numinlets" : 1,
					"numoutlets" : 1,
					"presentation_rect" : [ 649.0, 37.0, 0.0, 0.0 ],
					"outlettype" : [ "float" ],
					"patching_rect" : [ 649.0, 37.0, 15.0, 74.0 ],
					"id" : "obj-123"
				}

			}
, 			{
				"box" : 				{
					"maxclass" : "inlet",
					"numinlets" : 0,
					"numoutlets" : 1,
					"presentation_rect" : [ 649.0, 7.0, 0.0, 0.0 ],
					"outlettype" : [ "" ],
					"patching_rect" : [ 649.0, 7.0, 17.0, 17.0 ],
					"id" : "obj-124",
					"comment" : ""
				}

			}
, 			{
				"box" : 				{
					"maxclass" : "comment",
					"text" : "23",
					"numinlets" : 1,
					"numoutlets" : 0,
					"fontsize" : 12.0,
					"presentation_rect" : [ 627.0, 113.0, 0.0, 0.0 ],
					"patching_rect" : [ 627.0, 113.0, 23.0, 20.0 ],
					"id" : "obj-125",
					"fontname" : "Arial"
				}

			}
, 			{
				"box" : 				{
					"maxclass" : "meter~",
					"numinlets" : 1,
					"numoutlets" : 1,
					"presentation_rect" : [ 627.0, 38.0, 0.0, 0.0 ],
					"outlettype" : [ "float" ],
					"patching_rect" : [ 627.0, 38.0, 15.0, 74.0 ],
					"id" : "obj-126"
				}

			}
, 			{
				"box" : 				{
					"maxclass" : "inlet",
					"numinlets" : 0,
					"numoutlets" : 1,
					"presentation_rect" : [ 627.0, 8.0, 0.0, 0.0 ],
					"outlettype" : [ "" ],
					"patching_rect" : [ 627.0, 8.0, 17.0, 17.0 ],
					"id" : "obj-127",
					"comment" : ""
				}

			}
, 			{
				"box" : 				{
					"maxclass" : "comment",
					"text" : "22",
					"numinlets" : 1,
					"numoutlets" : 0,
					"fontsize" : 12.0,
					"presentation_rect" : [ 603.0, 113.0, 0.0, 0.0 ],
					"patching_rect" : [ 603.0, 113.0, 23.0, 20.0 ],
					"id" : "obj-128",
					"fontname" : "Arial"
				}

			}
, 			{
				"box" : 				{
					"maxclass" : "meter~",
					"numinlets" : 1,
					"numoutlets" : 1,
					"presentation_rect" : [ 603.0, 38.0, 0.0, 0.0 ],
					"outlettype" : [ "float" ],
					"patching_rect" : [ 603.0, 38.0, 15.0, 74.0 ],
					"id" : "obj-129"
				}

			}
, 			{
				"box" : 				{
					"maxclass" : "inlet",
					"numinlets" : 0,
					"numoutlets" : 1,
					"presentation_rect" : [ 603.0, 8.0, 0.0, 0.0 ],
					"outlettype" : [ "" ],
					"patching_rect" : [ 603.0, 8.0, 17.0, 17.0 ],
					"id" : "obj-130",
					"comment" : ""
				}

			}
, 			{
				"box" : 				{
					"maxclass" : "comment",
					"text" : "21",
					"numinlets" : 1,
					"numoutlets" : 0,
					"fontsize" : 12.0,
					"presentation_rect" : [ 578.0, 113.0, 0.0, 0.0 ],
					"patching_rect" : [ 576.0, 113.0, 23.0, 20.0 ],
					"id" : "obj-131",
					"fontname" : "Arial"
				}

			}
, 			{
				"box" : 				{
					"maxclass" : "meter~",
					"numinlets" : 1,
					"numoutlets" : 1,
					"presentation_rect" : [ 582.0, 38.0, 0.0, 0.0 ],
					"outlettype" : [ "float" ],
					"patching_rect" : [ 582.0, 38.0, 15.0, 74.0 ],
					"id" : "obj-132"
				}

			}
, 			{
				"box" : 				{
					"maxclass" : "inlet",
					"numinlets" : 0,
					"numoutlets" : 1,
					"presentation_rect" : [ 582.0, 8.0, 0.0, 0.0 ],
					"outlettype" : [ "" ],
					"patching_rect" : [ 582.0, 8.0, 17.0, 17.0 ],
					"id" : "obj-133",
					"comment" : ""
				}

			}
, 			{
				"box" : 				{
					"maxclass" : "comment",
					"text" : "20",
					"numinlets" : 1,
					"numoutlets" : 0,
					"fontsize" : 12.0,
					"presentation_rect" : [ 542.0, 115.0, 0.0, 0.0 ],
					"patching_rect" : [ 542.0, 115.0, 23.0, 20.0 ],
					"id" : "obj-134",
					"fontname" : "Arial"
				}

			}
, 			{
				"box" : 				{
					"maxclass" : "meter~",
					"numinlets" : 1,
					"numoutlets" : 1,
					"presentation_rect" : [ 542.0, 40.0, 0.0, 0.0 ],
					"outlettype" : [ "float" ],
					"patching_rect" : [ 542.0, 40.0, 15.0, 74.0 ],
					"id" : "obj-135"
				}

			}
, 			{
				"box" : 				{
					"maxclass" : "inlet",
					"numinlets" : 0,
					"numoutlets" : 1,
					"presentation_rect" : [ 542.0, 10.0, 0.0, 0.0 ],
					"outlettype" : [ "" ],
					"patching_rect" : [ 542.0, 10.0, 17.0, 17.0 ],
					"id" : "obj-136",
					"comment" : ""
				}

			}
, 			{
				"box" : 				{
					"maxclass" : "comment",
					"text" : "19",
					"numinlets" : 1,
					"numoutlets" : 0,
					"fontsize" : 12.0,
					"presentation_rect" : [ 517.0, 115.0, 0.0, 0.0 ],
					"patching_rect" : [ 517.0, 115.0, 23.0, 20.0 ],
					"id" : "obj-137",
					"fontname" : "Arial"
				}

			}
, 			{
				"box" : 				{
					"maxclass" : "meter~",
					"numinlets" : 1,
					"numoutlets" : 1,
					"presentation_rect" : [ 517.0, 40.0, 0.0, 0.0 ],
					"outlettype" : [ "float" ],
					"patching_rect" : [ 517.0, 40.0, 15.0, 74.0 ],
					"id" : "obj-138"
				}

			}
, 			{
				"box" : 				{
					"maxclass" : "inlet",
					"numinlets" : 0,
					"numoutlets" : 1,
					"presentation_rect" : [ 517.0, 10.0, 0.0, 0.0 ],
					"outlettype" : [ "" ],
					"patching_rect" : [ 517.0, 10.0, 17.0, 17.0 ],
					"id" : "obj-139",
					"comment" : ""
				}

			}
, 			{
				"box" : 				{
					"maxclass" : "comment",
					"text" : "18",
					"numinlets" : 1,
					"numoutlets" : 0,
					"fontsize" : 12.0,
					"presentation_rect" : [ 492.0, 115.0, 0.0, 0.0 ],
					"patching_rect" : [ 492.0, 115.0, 23.0, 20.0 ],
					"id" : "obj-140",
					"fontname" : "Arial"
				}

			}
, 			{
				"box" : 				{
					"maxclass" : "meter~",
					"numinlets" : 1,
					"numoutlets" : 1,
					"presentation_rect" : [ 492.0, 40.0, 0.0, 0.0 ],
					"outlettype" : [ "float" ],
					"patching_rect" : [ 492.0, 40.0, 15.0, 74.0 ],
					"id" : "obj-141"
				}

			}
, 			{
				"box" : 				{
					"maxclass" : "inlet",
					"numinlets" : 0,
					"numoutlets" : 1,
					"presentation_rect" : [ 492.0, 10.0, 0.0, 0.0 ],
					"outlettype" : [ "" ],
					"patching_rect" : [ 492.0, 10.0, 17.0, 17.0 ],
					"id" : "obj-142",
					"comment" : ""
				}

			}
, 			{
				"box" : 				{
					"maxclass" : "comment",
					"text" : "17",
					"numinlets" : 1,
					"numoutlets" : 0,
					"fontsize" : 12.0,
					"presentation_rect" : [ 469.0, 115.0, 0.0, 0.0 ],
					"patching_rect" : [ 469.0, 115.0, 23.0, 20.0 ],
					"id" : "obj-143",
					"fontname" : "Arial"
				}

			}
, 			{
				"box" : 				{
					"maxclass" : "meter~",
					"numinlets" : 1,
					"numoutlets" : 1,
					"presentation_rect" : [ 469.0, 40.0, 0.0, 0.0 ],
					"outlettype" : [ "float" ],
					"patching_rect" : [ 469.0, 40.0, 15.0, 74.0 ],
					"id" : "obj-144"
				}

			}
, 			{
				"box" : 				{
					"maxclass" : "inlet",
					"numinlets" : 0,
					"numoutlets" : 1,
					"presentation_rect" : [ 469.0, 10.0, 0.0, 0.0 ],
					"outlettype" : [ "" ],
					"patching_rect" : [ 469.0, 10.0, 17.0, 17.0 ],
					"id" : "obj-145",
					"comment" : ""
				}

			}
, 			{
				"box" : 				{
					"maxclass" : "comment",
					"text" : "16",
					"numinlets" : 1,
					"numoutlets" : 0,
					"fontsize" : 12.0,
					"presentation_rect" : [ 557.0, 113.0, 0.0, 0.0 ],
					"patching_rect" : [ 395.0, 116.0, 23.0, 20.0 ],
					"id" : "obj-26",
					"fontname" : "Arial"
				}

			}
, 			{
				"box" : 				{
					"maxclass" : "meter~",
					"numinlets" : 1,
					"numoutlets" : 1,
					"presentation_rect" : [ 557.0, 38.0, 0.0, 0.0 ],
					"outlettype" : [ "float" ],
					"patching_rect" : [ 395.0, 41.0, 15.0, 74.0 ],
					"id" : "obj-27"
				}

			}
, 			{
				"box" : 				{
					"maxclass" : "inlet",
					"numinlets" : 0,
					"numoutlets" : 1,
					"presentation_rect" : [ 557.0, 8.0, 0.0, 0.0 ],
					"outlettype" : [ "" ],
					"patching_rect" : [ 395.0, 11.0, 17.0, 17.0 ],
					"id" : "obj-28",
					"comment" : ""
				}

			}
, 			{
				"box" : 				{
					"maxclass" : "comment",
					"text" : "15",
					"numinlets" : 1,
					"numoutlets" : 0,
					"fontsize" : 12.0,
					"presentation_rect" : [ 527.0, 113.0, 0.0, 0.0 ],
					"patching_rect" : [ 373.0, 116.0, 23.0, 20.0 ],
					"id" : "obj-29",
					"fontname" : "Arial"
				}

			}
, 			{
				"box" : 				{
					"maxclass" : "meter~",
					"numinlets" : 1,
					"numoutlets" : 1,
					"presentation_rect" : [ 527.0, 38.0, 0.0, 0.0 ],
					"outlettype" : [ "float" ],
					"patching_rect" : [ 373.0, 41.0, 15.0, 74.0 ],
					"id" : "obj-30"
				}

			}
, 			{
				"box" : 				{
					"maxclass" : "inlet",
					"numinlets" : 0,
					"numoutlets" : 1,
					"presentation_rect" : [ 527.0, 8.0, 0.0, 0.0 ],
					"outlettype" : [ "" ],
					"patching_rect" : [ 373.0, 11.0, 17.0, 17.0 ],
					"id" : "obj-31",
					"comment" : ""
				}

			}
, 			{
				"box" : 				{
					"maxclass" : "comment",
					"text" : "14",
					"numinlets" : 1,
					"numoutlets" : 0,
					"fontsize" : 12.0,
					"presentation_rect" : [ 497.0, 113.0, 0.0, 0.0 ],
					"patching_rect" : [ 352.0, 116.0, 23.0, 20.0 ],
					"id" : "obj-32",
					"fontname" : "Arial"
				}

			}
, 			{
				"box" : 				{
					"maxclass" : "meter~",
					"numinlets" : 1,
					"numoutlets" : 1,
					"presentation_rect" : [ 497.0, 38.0, 0.0, 0.0 ],
					"outlettype" : [ "float" ],
					"patching_rect" : [ 352.0, 41.0, 15.0, 74.0 ],
					"id" : "obj-33"
				}

			}
, 			{
				"box" : 				{
					"maxclass" : "inlet",
					"numinlets" : 0,
					"numoutlets" : 1,
					"presentation_rect" : [ 497.0, 8.0, 0.0, 0.0 ],
					"outlettype" : [ "" ],
					"patching_rect" : [ 352.0, 11.0, 17.0, 17.0 ],
					"id" : "obj-34",
					"comment" : ""
				}

			}
, 			{
				"box" : 				{
					"maxclass" : "comment",
					"text" : "13",
					"numinlets" : 1,
					"numoutlets" : 0,
					"fontsize" : 12.0,
					"presentation_rect" : [ 467.0, 113.0, 0.0, 0.0 ],
					"patching_rect" : [ 332.0, 116.0, 23.0, 20.0 ],
					"id" : "obj-35",
					"fontname" : "Arial"
				}

			}
, 			{
				"box" : 				{
					"maxclass" : "meter~",
					"numinlets" : 1,
					"numoutlets" : 1,
					"presentation_rect" : [ 467.0, 38.0, 0.0, 0.0 ],
					"outlettype" : [ "float" ],
					"patching_rect" : [ 332.0, 41.0, 15.0, 74.0 ],
					"id" : "obj-36"
				}

			}
, 			{
				"box" : 				{
					"maxclass" : "inlet",
					"numinlets" : 0,
					"numoutlets" : 1,
					"presentation_rect" : [ 467.0, 8.0, 0.0, 0.0 ],
					"outlettype" : [ "" ],
					"patching_rect" : [ 332.0, 11.0, 17.0, 17.0 ],
					"id" : "obj-37",
					"comment" : ""
				}

			}
, 			{
				"box" : 				{
					"maxclass" : "comment",
					"text" : "12",
					"numinlets" : 1,
					"numoutlets" : 0,
					"fontsize" : 12.0,
					"presentation_rect" : [ 407.0, 113.0, 0.0, 0.0 ],
					"patching_rect" : [ 298.0, 116.0, 23.0, 20.0 ],
					"id" : "obj-38",
					"fontname" : "Arial"
				}

			}
, 			{
				"box" : 				{
					"maxclass" : "meter~",
					"numinlets" : 1,
					"numoutlets" : 1,
					"presentation_rect" : [ 407.0, 38.0, 0.0, 0.0 ],
					"outlettype" : [ "float" ],
					"patching_rect" : [ 298.0, 41.0, 15.0, 74.0 ],
					"id" : "obj-39"
				}

			}
, 			{
				"box" : 				{
					"maxclass" : "inlet",
					"numinlets" : 0,
					"numoutlets" : 1,
					"presentation_rect" : [ 407.0, 8.0, 0.0, 0.0 ],
					"outlettype" : [ "" ],
					"patching_rect" : [ 298.0, 11.0, 17.0, 17.0 ],
					"id" : "obj-40",
					"comment" : ""
				}

			}
, 			{
				"box" : 				{
					"maxclass" : "comment",
					"text" : "11",
					"numinlets" : 1,
					"numoutlets" : 0,
					"fontsize" : 12.0,
					"presentation_rect" : [ 377.0, 113.0, 0.0, 0.0 ],
					"patching_rect" : [ 275.0, 116.0, 23.0, 20.0 ],
					"id" : "obj-41",
					"fontname" : "Arial"
				}

			}
, 			{
				"box" : 				{
					"maxclass" : "meter~",
					"numinlets" : 1,
					"numoutlets" : 1,
					"presentation_rect" : [ 377.0, 38.0, 0.0, 0.0 ],
					"outlettype" : [ "float" ],
					"patching_rect" : [ 275.0, 41.0, 15.0, 74.0 ],
					"id" : "obj-42"
				}

			}
, 			{
				"box" : 				{
					"maxclass" : "inlet",
					"numinlets" : 0,
					"numoutlets" : 1,
					"presentation_rect" : [ 377.0, 8.0, 0.0, 0.0 ],
					"outlettype" : [ "" ],
					"patching_rect" : [ 275.0, 11.0, 17.0, 17.0 ],
					"id" : "obj-43",
					"comment" : ""
				}

			}
, 			{
				"box" : 				{
					"maxclass" : "comment",
					"text" : "10",
					"numinlets" : 1,
					"numoutlets" : 0,
					"fontsize" : 12.0,
					"presentation_rect" : [ 347.0, 113.0, 0.0, 0.0 ],
					"patching_rect" : [ 252.0, 116.0, 23.0, 20.0 ],
					"id" : "obj-44",
					"fontname" : "Arial"
				}

			}
, 			{
				"box" : 				{
					"maxclass" : "meter~",
					"numinlets" : 1,
					"numoutlets" : 1,
					"presentation_rect" : [ 347.0, 38.0, 0.0, 0.0 ],
					"outlettype" : [ "float" ],
					"patching_rect" : [ 252.0, 41.0, 15.0, 74.0 ],
					"id" : "obj-45"
				}

			}
, 			{
				"box" : 				{
					"maxclass" : "inlet",
					"numinlets" : 0,
					"numoutlets" : 1,
					"presentation_rect" : [ 347.0, 8.0, 0.0, 0.0 ],
					"outlettype" : [ "" ],
					"patching_rect" : [ 252.0, 11.0, 17.0, 17.0 ],
					"id" : "obj-46",
					"comment" : ""
				}

			}
, 			{
				"box" : 				{
					"maxclass" : "comment",
					"text" : "9",
					"numinlets" : 1,
					"numoutlets" : 0,
					"fontsize" : 12.0,
					"presentation_rect" : [ 317.0, 113.0, 0.0, 0.0 ],
					"patching_rect" : [ 230.0, 116.0, 23.0, 20.0 ],
					"id" : "obj-47",
					"fontname" : "Arial"
				}

			}
, 			{
				"box" : 				{
					"maxclass" : "meter~",
					"numinlets" : 1,
					"numoutlets" : 1,
					"presentation_rect" : [ 317.0, 38.0, 0.0, 0.0 ],
					"outlettype" : [ "float" ],
					"patching_rect" : [ 230.0, 41.0, 15.0, 74.0 ],
					"id" : "obj-48"
				}

			}
, 			{
				"box" : 				{
					"maxclass" : "inlet",
					"numinlets" : 0,
					"numoutlets" : 1,
					"presentation_rect" : [ 317.0, 8.0, 0.0, 0.0 ],
					"outlettype" : [ "" ],
					"patching_rect" : [ 230.0, 11.0, 17.0, 17.0 ],
					"id" : "obj-49",
					"comment" : ""
				}

			}
, 			{
				"box" : 				{
					"maxclass" : "comment",
					"text" : "8",
					"numinlets" : 1,
					"numoutlets" : 0,
					"fontsize" : 12.0,
					"presentation_rect" : [ 388.0, 166.0, 0.0, 0.0 ],
					"patching_rect" : [ 195.0, 117.0, 23.0, 20.0 ],
					"id" : "obj-14",
					"fontname" : "Arial"
				}

			}
, 			{
				"box" : 				{
					"maxclass" : "meter~",
					"numinlets" : 1,
					"numoutlets" : 1,
					"presentation_rect" : [ 388.0, 91.0, 0.0, 0.0 ],
					"outlettype" : [ "float" ],
					"patching_rect" : [ 195.0, 42.0, 15.0, 74.0 ],
					"id" : "obj-15"
				}

			}
, 			{
				"box" : 				{
					"maxclass" : "inlet",
					"numinlets" : 0,
					"numoutlets" : 1,
					"presentation_rect" : [ 388.0, 61.0, 0.0, 0.0 ],
					"outlettype" : [ "" ],
					"patching_rect" : [ 195.0, 12.0, 17.0, 17.0 ],
					"id" : "obj-16",
					"comment" : ""
				}

			}
, 			{
				"box" : 				{
					"maxclass" : "comment",
					"text" : "7",
					"numinlets" : 1,
					"numoutlets" : 0,
					"fontsize" : 12.0,
					"presentation_rect" : [ 358.0, 166.0, 0.0, 0.0 ],
					"patching_rect" : [ 173.0, 118.0, 23.0, 20.0 ],
					"id" : "obj-17",
					"fontname" : "Arial"
				}

			}
, 			{
				"box" : 				{
					"maxclass" : "meter~",
					"numinlets" : 1,
					"numoutlets" : 1,
					"presentation_rect" : [ 358.0, 91.0, 0.0, 0.0 ],
					"outlettype" : [ "float" ],
					"patching_rect" : [ 173.0, 43.0, 15.0, 74.0 ],
					"id" : "obj-18"
				}

			}
, 			{
				"box" : 				{
					"maxclass" : "inlet",
					"numinlets" : 0,
					"numoutlets" : 1,
					"presentation_rect" : [ 358.0, 61.0, 0.0, 0.0 ],
					"outlettype" : [ "" ],
					"patching_rect" : [ 173.0, 13.0, 17.0, 17.0 ],
					"id" : "obj-19",
					"comment" : ""
				}

			}
, 			{
				"box" : 				{
					"maxclass" : "comment",
					"text" : "6",
					"numinlets" : 1,
					"numoutlets" : 0,
					"fontsize" : 12.0,
					"presentation_rect" : [ 328.0, 166.0, 0.0, 0.0 ],
					"patching_rect" : [ 149.0, 118.0, 23.0, 20.0 ],
					"id" : "obj-20",
					"fontname" : "Arial"
				}

			}
, 			{
				"box" : 				{
					"maxclass" : "meter~",
					"numinlets" : 1,
					"numoutlets" : 1,
					"presentation_rect" : [ 328.0, 91.0, 0.0, 0.0 ],
					"outlettype" : [ "float" ],
					"patching_rect" : [ 149.0, 43.0, 15.0, 74.0 ],
					"id" : "obj-21"
				}

			}
, 			{
				"box" : 				{
					"maxclass" : "inlet",
					"numinlets" : 0,
					"numoutlets" : 1,
					"presentation_rect" : [ 328.0, 61.0, 0.0, 0.0 ],
					"outlettype" : [ "" ],
					"patching_rect" : [ 149.0, 13.0, 17.0, 17.0 ],
					"id" : "obj-22",
					"comment" : ""
				}

			}
, 			{
				"box" : 				{
					"maxclass" : "comment",
					"text" : "5",
					"numinlets" : 1,
					"numoutlets" : 0,
					"fontsize" : 12.0,
					"presentation_rect" : [ 298.0, 166.0, 0.0, 0.0 ],
					"patching_rect" : [ 124.0, 118.0, 23.0, 20.0 ],
					"id" : "obj-23",
					"fontname" : "Arial"
				}

			}
, 			{
				"box" : 				{
					"maxclass" : "meter~",
					"numinlets" : 1,
					"numoutlets" : 1,
					"presentation_rect" : [ 298.0, 91.0, 0.0, 0.0 ],
					"outlettype" : [ "float" ],
					"patching_rect" : [ 128.0, 43.0, 15.0, 74.0 ],
					"id" : "obj-24"
				}

			}
, 			{
				"box" : 				{
					"maxclass" : "inlet",
					"numinlets" : 0,
					"numoutlets" : 1,
					"presentation_rect" : [ 298.0, 61.0, 0.0, 0.0 ],
					"outlettype" : [ "" ],
					"patching_rect" : [ 128.0, 13.0, 17.0, 17.0 ],
					"id" : "obj-25",
					"comment" : ""
				}

			}
, 			{
				"box" : 				{
					"maxclass" : "comment",
					"text" : "4",
					"numinlets" : 1,
					"numoutlets" : 0,
					"fontsize" : 12.0,
					"presentation_rect" : [ 233.0, 169.0, 0.0, 0.0 ],
					"patching_rect" : [ 88.0, 120.0, 23.0, 20.0 ],
					"id" : "obj-8",
					"fontname" : "Arial"
				}

			}
, 			{
				"box" : 				{
					"maxclass" : "meter~",
					"numinlets" : 1,
					"numoutlets" : 1,
					"presentation_rect" : [ 233.0, 94.0, 0.0, 0.0 ],
					"outlettype" : [ "float" ],
					"patching_rect" : [ 88.0, 45.0, 15.0, 74.0 ],
					"id" : "obj-9"
				}

			}
, 			{
				"box" : 				{
					"maxclass" : "inlet",
					"numinlets" : 0,
					"numoutlets" : 1,
					"presentation_rect" : [ 233.0, 64.0, 0.0, 0.0 ],
					"outlettype" : [ "" ],
					"patching_rect" : [ 88.0, 15.0, 17.0, 17.0 ],
					"id" : "obj-10",
					"comment" : ""
				}

			}
, 			{
				"box" : 				{
					"maxclass" : "comment",
					"text" : "3",
					"numinlets" : 1,
					"numoutlets" : 0,
					"fontsize" : 12.0,
					"presentation_rect" : [ 203.0, 169.0, 0.0, 0.0 ],
					"patching_rect" : [ 63.0, 120.0, 23.0, 20.0 ],
					"id" : "obj-11",
					"fontname" : "Arial"
				}

			}
, 			{
				"box" : 				{
					"maxclass" : "meter~",
					"numinlets" : 1,
					"numoutlets" : 1,
					"presentation_rect" : [ 203.0, 94.0, 0.0, 0.0 ],
					"outlettype" : [ "float" ],
					"patching_rect" : [ 63.0, 45.0, 15.0, 74.0 ],
					"id" : "obj-12"
				}

			}
, 			{
				"box" : 				{
					"maxclass" : "inlet",
					"numinlets" : 0,
					"numoutlets" : 1,
					"presentation_rect" : [ 203.0, 64.0, 0.0, 0.0 ],
					"outlettype" : [ "" ],
					"patching_rect" : [ 63.0, 15.0, 17.0, 17.0 ],
					"id" : "obj-13",
					"comment" : ""
				}

			}
, 			{
				"box" : 				{
					"maxclass" : "comment",
					"text" : "2",
					"numinlets" : 1,
					"numoutlets" : 0,
					"fontsize" : 12.0,
					"presentation_rect" : [ 183.0, 166.0, 0.0, 0.0 ],
					"patching_rect" : [ 38.0, 120.0, 23.0, 20.0 ],
					"id" : "obj-5",
					"fontname" : "Arial"
				}

			}
, 			{
				"box" : 				{
					"maxclass" : "meter~",
					"numinlets" : 1,
					"numoutlets" : 1,
					"presentation_rect" : [ 183.0, 91.0, 0.0, 0.0 ],
					"outlettype" : [ "float" ],
					"patching_rect" : [ 38.0, 45.0, 15.0, 74.0 ],
					"id" : "obj-6"
				}

			}
, 			{
				"box" : 				{
					"maxclass" : "inlet",
					"numinlets" : 0,
					"numoutlets" : 1,
					"presentation_rect" : [ 183.0, 61.0, 0.0, 0.0 ],
					"outlettype" : [ "" ],
					"patching_rect" : [ 38.0, 15.0, 17.0, 17.0 ],
					"id" : "obj-7",
					"comment" : ""
				}

			}
, 			{
				"box" : 				{
					"maxclass" : "comment",
					"text" : "1",
					"numinlets" : 1,
					"numoutlets" : 0,
					"fontsize" : 12.0,
					"patching_rect" : [ 15.0, 120.0, 23.0, 20.0 ],
					"id" : "obj-4",
					"fontname" : "Arial"
				}

			}
, 			{
				"box" : 				{
					"maxclass" : "meter~",
					"numinlets" : 1,
					"numoutlets" : 1,
					"outlettype" : [ "float" ],
					"patching_rect" : [ 15.0, 45.0, 15.0, 74.0 ],
					"id" : "obj-2"
				}

			}
, 			{
				"box" : 				{
					"maxclass" : "inlet",
					"numinlets" : 0,
					"numoutlets" : 1,
					"outlettype" : [ "" ],
					"patching_rect" : [ 15.0, 15.0, 17.0, 17.0 ],
					"id" : "obj-1",
					"comment" : ""
				}

			}
 ],
		"lines" : [ 			{
				"patchline" : 				{
					"source" : [ "obj-169", 0 ],
					"destination" : [ "obj-168", 0 ],
					"hidden" : 0,
					"midpoints" : [  ]
				}

			}
, 			{
				"patchline" : 				{
					"source" : [ "obj-166", 0 ],
					"destination" : [ "obj-165", 0 ],
					"hidden" : 0,
					"midpoints" : [  ]
				}

			}
, 			{
				"patchline" : 				{
					"source" : [ "obj-160", 0 ],
					"destination" : [ "obj-159", 0 ],
					"hidden" : 0,
					"midpoints" : [  ]
				}

			}
, 			{
				"patchline" : 				{
					"source" : [ "obj-163", 0 ],
					"destination" : [ "obj-162", 0 ],
					"hidden" : 0,
					"midpoints" : [  ]
				}

			}
, 			{
				"patchline" : 				{
					"source" : [ "obj-151", 0 ],
					"destination" : [ "obj-150", 0 ],
					"hidden" : 0,
					"midpoints" : [  ]
				}

			}
, 			{
				"patchline" : 				{
					"source" : [ "obj-148", 0 ],
					"destination" : [ "obj-147", 0 ],
					"hidden" : 0,
					"midpoints" : [  ]
				}

			}
, 			{
				"patchline" : 				{
					"source" : [ "obj-154", 0 ],
					"destination" : [ "obj-153", 0 ],
					"hidden" : 0,
					"midpoints" : [  ]
				}

			}
, 			{
				"patchline" : 				{
					"source" : [ "obj-157", 0 ],
					"destination" : [ "obj-156", 0 ],
					"hidden" : 0,
					"midpoints" : [  ]
				}

			}
, 			{
				"patchline" : 				{
					"source" : [ "obj-181", 0 ],
					"destination" : [ "obj-180", 0 ],
					"hidden" : 0,
					"midpoints" : [  ]
				}

			}
, 			{
				"patchline" : 				{
					"source" : [ "obj-178", 0 ],
					"destination" : [ "obj-177", 0 ],
					"hidden" : 0,
					"midpoints" : [  ]
				}

			}
, 			{
				"patchline" : 				{
					"source" : [ "obj-172", 0 ],
					"destination" : [ "obj-171", 0 ],
					"hidden" : 0,
					"midpoints" : [  ]
				}

			}
, 			{
				"patchline" : 				{
					"source" : [ "obj-175", 0 ],
					"destination" : [ "obj-174", 0 ],
					"hidden" : 0,
					"midpoints" : [  ]
				}

			}
, 			{
				"patchline" : 				{
					"source" : [ "obj-187", 0 ],
					"destination" : [ "obj-186", 0 ],
					"hidden" : 0,
					"midpoints" : [  ]
				}

			}
, 			{
				"patchline" : 				{
					"source" : [ "obj-184", 0 ],
					"destination" : [ "obj-183", 0 ],
					"hidden" : 0,
					"midpoints" : [  ]
				}

			}
, 			{
				"patchline" : 				{
					"source" : [ "obj-190", 0 ],
					"destination" : [ "obj-189", 0 ],
					"hidden" : 0,
					"midpoints" : [  ]
				}

			}
, 			{
				"patchline" : 				{
					"source" : [ "obj-193", 0 ],
					"destination" : [ "obj-192", 0 ],
					"hidden" : 0,
					"midpoints" : [  ]
				}

			}
, 			{
				"patchline" : 				{
					"source" : [ "obj-145", 0 ],
					"destination" : [ "obj-144", 0 ],
					"hidden" : 0,
					"midpoints" : [  ]
				}

			}
, 			{
				"patchline" : 				{
					"source" : [ "obj-142", 0 ],
					"destination" : [ "obj-141", 0 ],
					"hidden" : 0,
					"midpoints" : [  ]
				}

			}
, 			{
				"patchline" : 				{
					"source" : [ "obj-136", 0 ],
					"destination" : [ "obj-135", 0 ],
					"hidden" : 0,
					"midpoints" : [  ]
				}

			}
, 			{
				"patchline" : 				{
					"source" : [ "obj-139", 0 ],
					"destination" : [ "obj-138", 0 ],
					"hidden" : 0,
					"midpoints" : [  ]
				}

			}
, 			{
				"patchline" : 				{
					"source" : [ "obj-127", 0 ],
					"destination" : [ "obj-126", 0 ],
					"hidden" : 0,
					"midpoints" : [  ]
				}

			}
, 			{
				"patchline" : 				{
					"source" : [ "obj-124", 0 ],
					"destination" : [ "obj-123", 0 ],
					"hidden" : 0,
					"midpoints" : [  ]
				}

			}
, 			{
				"patchline" : 				{
					"source" : [ "obj-130", 0 ],
					"destination" : [ "obj-129", 0 ],
					"hidden" : 0,
					"midpoints" : [  ]
				}

			}
, 			{
				"patchline" : 				{
					"source" : [ "obj-133", 0 ],
					"destination" : [ "obj-132", 0 ],
					"hidden" : 0,
					"midpoints" : [  ]
				}

			}
, 			{
				"patchline" : 				{
					"source" : [ "obj-109", 0 ],
					"destination" : [ "obj-108", 0 ],
					"hidden" : 0,
					"midpoints" : [  ]
				}

			}
, 			{
				"patchline" : 				{
					"source" : [ "obj-106", 0 ],
					"destination" : [ "obj-105", 0 ],
					"hidden" : 0,
					"midpoints" : [  ]
				}

			}
, 			{
				"patchline" : 				{
					"source" : [ "obj-100", 0 ],
					"destination" : [ "obj-99", 0 ],
					"hidden" : 0,
					"midpoints" : [  ]
				}

			}
, 			{
				"patchline" : 				{
					"source" : [ "obj-103", 0 ],
					"destination" : [ "obj-102", 0 ],
					"hidden" : 0,
					"midpoints" : [  ]
				}

			}
, 			{
				"patchline" : 				{
					"source" : [ "obj-115", 0 ],
					"destination" : [ "obj-114", 0 ],
					"hidden" : 0,
					"midpoints" : [  ]
				}

			}
, 			{
				"patchline" : 				{
					"source" : [ "obj-112", 0 ],
					"destination" : [ "obj-111", 0 ],
					"hidden" : 0,
					"midpoints" : [  ]
				}

			}
, 			{
				"patchline" : 				{
					"source" : [ "obj-118", 0 ],
					"destination" : [ "obj-117", 0 ],
					"hidden" : 0,
					"midpoints" : [  ]
				}

			}
, 			{
				"patchline" : 				{
					"source" : [ "obj-121", 0 ],
					"destination" : [ "obj-120", 0 ],
					"hidden" : 0,
					"midpoints" : [  ]
				}

			}
, 			{
				"patchline" : 				{
					"source" : [ "obj-49", 0 ],
					"destination" : [ "obj-48", 0 ],
					"hidden" : 0,
					"midpoints" : [  ]
				}

			}
, 			{
				"patchline" : 				{
					"source" : [ "obj-46", 0 ],
					"destination" : [ "obj-45", 0 ],
					"hidden" : 0,
					"midpoints" : [  ]
				}

			}
, 			{
				"patchline" : 				{
					"source" : [ "obj-40", 0 ],
					"destination" : [ "obj-39", 0 ],
					"hidden" : 0,
					"midpoints" : [  ]
				}

			}
, 			{
				"patchline" : 				{
					"source" : [ "obj-43", 0 ],
					"destination" : [ "obj-42", 0 ],
					"hidden" : 0,
					"midpoints" : [  ]
				}

			}
, 			{
				"patchline" : 				{
					"source" : [ "obj-31", 0 ],
					"destination" : [ "obj-30", 0 ],
					"hidden" : 0,
					"midpoints" : [  ]
				}

			}
, 			{
				"patchline" : 				{
					"source" : [ "obj-28", 0 ],
					"destination" : [ "obj-27", 0 ],
					"hidden" : 0,
					"midpoints" : [  ]
				}

			}
, 			{
				"patchline" : 				{
					"source" : [ "obj-34", 0 ],
					"destination" : [ "obj-33", 0 ],
					"hidden" : 0,
					"midpoints" : [  ]
				}

			}
, 			{
				"patchline" : 				{
					"source" : [ "obj-37", 0 ],
					"destination" : [ "obj-36", 0 ],
					"hidden" : 0,
					"midpoints" : [  ]
				}

			}
, 			{
				"patchline" : 				{
					"source" : [ "obj-25", 0 ],
					"destination" : [ "obj-24", 0 ],
					"hidden" : 0,
					"midpoints" : [  ]
				}

			}
, 			{
				"patchline" : 				{
					"source" : [ "obj-22", 0 ],
					"destination" : [ "obj-21", 0 ],
					"hidden" : 0,
					"midpoints" : [  ]
				}

			}
, 			{
				"patchline" : 				{
					"source" : [ "obj-16", 0 ],
					"destination" : [ "obj-15", 0 ],
					"hidden" : 0,
					"midpoints" : [  ]
				}

			}
, 			{
				"patchline" : 				{
					"source" : [ "obj-19", 0 ],
					"destination" : [ "obj-18", 0 ],
					"hidden" : 0,
					"midpoints" : [  ]
				}

			}
, 			{
				"patchline" : 				{
					"source" : [ "obj-13", 0 ],
					"destination" : [ "obj-12", 0 ],
					"hidden" : 0,
					"midpoints" : [  ]
				}

			}
, 			{
				"patchline" : 				{
					"source" : [ "obj-10", 0 ],
					"destination" : [ "obj-9", 0 ],
					"hidden" : 0,
					"midpoints" : [  ]
				}

			}
, 			{
				"patchline" : 				{
					"source" : [ "obj-7", 0 ],
					"destination" : [ "obj-6", 0 ],
					"hidden" : 0,
					"midpoints" : [  ]
				}

			}
, 			{
				"patchline" : 				{
					"source" : [ "obj-1", 0 ],
					"destination" : [ "obj-2", 0 ],
					"hidden" : 0,
					"midpoints" : [  ]
				}

			}
 ]
	}

}
