{
	"patcher" : 	{
		"fileversion" : 1,
		"appversion" : 		{
			"major" : 6,
			"minor" : 0,
			"revision" : 7
		}
,
		"rect" : [ 25.0, 69.0, 806.0, 617.0 ],
		"bglocked" : 0,
		"openinpresentation" : 1,
		"default_fontsize" : 12.0,
		"default_fontface" : 0,
		"default_fontname" : "Arial",
		"gridonopen" : 0,
		"gridsize" : [ 15.0, 15.0 ],
		"gridsnaponopen" : 0,
		"statusbarvisible" : 2,
		"toolbarvisible" : 1,
		"boxanimatetime" : 200,
		"imprint" : 0,
		"enablehscroll" : 1,
		"enablevscroll" : 1,
		"devicewidth" : 0.0,
		"description" : "",
		"digest" : "",
		"tags" : "",
		"boxes" : [ 			{
				"box" : 				{
					"comment" : "",
					"id" : "obj-78",
					"maxclass" : "inlet",
					"numinlets" : 0,
					"numoutlets" : 1,
					"outlettype" : [ "" ],
					"patching_rect" : [ 757.197937, 11.0, 25.0, 25.0 ],
					"presentation_rect" : [ 761.197937, 9.0, 0.0, 0.0 ]
				}

			}
, 			{
				"box" : 				{
					"dbperled" : 5,
					"id" : "obj-79",
					"maxclass" : "meter~",
					"numinlets" : 1,
					"numleds" : 18,
					"numoutlets" : 1,
					"outlettype" : [ "float" ],
					"patching_rect" : [ 760.697937, 73.32399, 12.0, 91.02803 ],
					"presentation" : 1,
					"presentation_rect" : [ 733.697937, 6.32399, 12.0, 91.02803 ]
				}

			}
, 			{
				"box" : 				{
					"comment" : "",
					"id" : "obj-80",
					"maxclass" : "inlet",
					"numinlets" : 0,
					"numoutlets" : 1,
					"outlettype" : [ "" ],
					"patching_rect" : [ 742.197937, 11.0, 25.0, 25.0 ],
					"presentation_rect" : [ 746.197937, 9.0, 0.0, 0.0 ]
				}

			}
, 			{
				"box" : 				{
					"dbperled" : 5,
					"id" : "obj-81",
					"maxclass" : "meter~",
					"numinlets" : 1,
					"numleds" : 18,
					"numoutlets" : 1,
					"outlettype" : [ "float" ],
					"patching_rect" : [ 745.697937, 73.32399, 12.0, 91.02803 ],
					"presentation" : 1,
					"presentation_rect" : [ 718.697937, 6.32399, 12.0, 91.02803 ]
				}

			}
, 			{
				"box" : 				{
					"comment" : "",
					"id" : "obj-82",
					"maxclass" : "inlet",
					"numinlets" : 0,
					"numoutlets" : 1,
					"outlettype" : [ "" ],
					"patching_rect" : [ 728.197937, 11.0, 25.0, 25.0 ],
					"presentation_rect" : [ 732.197937, 9.0, 0.0, 0.0 ]
				}

			}
, 			{
				"box" : 				{
					"dbperled" : 5,
					"id" : "obj-83",
					"maxclass" : "meter~",
					"numinlets" : 1,
					"numleds" : 18,
					"numoutlets" : 1,
					"outlettype" : [ "float" ],
					"patching_rect" : [ 731.697937, 73.32399, 12.0, 91.02803 ],
					"presentation" : 1,
					"presentation_rect" : [ 704.697937, 6.32399, 12.0, 91.02803 ]
				}

			}
, 			{
				"box" : 				{
					"comment" : "",
					"id" : "obj-84",
					"maxclass" : "inlet",
					"numinlets" : 0,
					"numoutlets" : 1,
					"outlettype" : [ "" ],
					"patching_rect" : [ 713.197937, 11.0, 25.0, 25.0 ],
					"presentation_rect" : [ 717.197937, 9.0, 0.0, 0.0 ]
				}

			}
, 			{
				"box" : 				{
					"dbperled" : 5,
					"id" : "obj-85",
					"maxclass" : "meter~",
					"numinlets" : 1,
					"numleds" : 18,
					"numoutlets" : 1,
					"outlettype" : [ "float" ],
					"patching_rect" : [ 716.697937, 73.32399, 12.0, 91.02803 ],
					"presentation" : 1,
					"presentation_rect" : [ 689.697937, 6.32399, 12.0, 91.02803 ]
				}

			}
, 			{
				"box" : 				{
					"comment" : "",
					"id" : "obj-86",
					"maxclass" : "inlet",
					"numinlets" : 0,
					"numoutlets" : 1,
					"outlettype" : [ "" ],
					"patching_rect" : [ 699.197937, 11.0, 25.0, 25.0 ],
					"presentation_rect" : [ 703.197937, 9.0, 0.0, 0.0 ]
				}

			}
, 			{
				"box" : 				{
					"dbperled" : 5,
					"id" : "obj-87",
					"maxclass" : "meter~",
					"numinlets" : 1,
					"numleds" : 18,
					"numoutlets" : 1,
					"outlettype" : [ "float" ],
					"patching_rect" : [ 702.697937, 73.32399, 12.0, 91.02803 ],
					"presentation" : 1,
					"presentation_rect" : [ 675.697937, 6.32399, 12.0, 91.02803 ]
				}

			}
, 			{
				"box" : 				{
					"comment" : "",
					"id" : "obj-88",
					"maxclass" : "inlet",
					"numinlets" : 0,
					"numoutlets" : 1,
					"outlettype" : [ "" ],
					"patching_rect" : [ 684.197937, 11.0, 25.0, 25.0 ],
					"presentation_rect" : [ 688.197937, 9.0, 0.0, 0.0 ]
				}

			}
, 			{
				"box" : 				{
					"dbperled" : 5,
					"id" : "obj-89",
					"maxclass" : "meter~",
					"numinlets" : 1,
					"numleds" : 18,
					"numoutlets" : 1,
					"outlettype" : [ "float" ],
					"patching_rect" : [ 687.697937, 73.32399, 12.0, 91.02803 ],
					"presentation" : 1,
					"presentation_rect" : [ 660.697937, 6.32399, 12.0, 91.02803 ]
				}

			}
, 			{
				"box" : 				{
					"comment" : "",
					"id" : "obj-90",
					"maxclass" : "inlet",
					"numinlets" : 0,
					"numoutlets" : 1,
					"outlettype" : [ "" ],
					"patching_rect" : [ 670.197937, 11.0, 25.0, 25.0 ],
					"presentation_rect" : [ 674.197937, 9.0, 0.0, 0.0 ]
				}

			}
, 			{
				"box" : 				{
					"dbperled" : 5,
					"id" : "obj-91",
					"maxclass" : "meter~",
					"numinlets" : 1,
					"numleds" : 18,
					"numoutlets" : 1,
					"outlettype" : [ "float" ],
					"patching_rect" : [ 673.697937, 73.32399, 12.0, 91.02803 ],
					"presentation" : 1,
					"presentation_rect" : [ 646.697937, 6.32399, 12.0, 91.02803 ]
				}

			}
, 			{
				"box" : 				{
					"comment" : "",
					"id" : "obj-92",
					"maxclass" : "inlet",
					"numinlets" : 0,
					"numoutlets" : 1,
					"outlettype" : [ "" ],
					"patching_rect" : [ 655.197937, 11.0, 25.0, 25.0 ],
					"presentation_rect" : [ 659.197937, 9.0, 0.0, 0.0 ]
				}

			}
, 			{
				"box" : 				{
					"dbperled" : 5,
					"id" : "obj-93",
					"maxclass" : "meter~",
					"numinlets" : 1,
					"numleds" : 18,
					"numoutlets" : 1,
					"outlettype" : [ "float" ],
					"patching_rect" : [ 658.697937, 73.32399, 12.0, 91.02803 ],
					"presentation" : 1,
					"presentation_rect" : [ 631.697937, 6.32399, 12.0, 91.02803 ]
				}

			}
, 			{
				"box" : 				{
					"comment" : "",
					"id" : "obj-94",
					"maxclass" : "inlet",
					"numinlets" : 0,
					"numoutlets" : 1,
					"outlettype" : [ "" ],
					"patching_rect" : [ 640.197937, 11.0, 25.0, 25.0 ],
					"presentation_rect" : [ 644.197937, 9.0, 0.0, 0.0 ]
				}

			}
, 			{
				"box" : 				{
					"dbperled" : 5,
					"id" : "obj-95",
					"maxclass" : "meter~",
					"numinlets" : 1,
					"numleds" : 18,
					"numoutlets" : 1,
					"outlettype" : [ "float" ],
					"patching_rect" : [ 643.697937, 73.32399, 12.0, 91.02803 ],
					"presentation" : 1,
					"presentation_rect" : [ 616.697937, 6.32399, 12.0, 91.02803 ]
				}

			}
, 			{
				"box" : 				{
					"comment" : "",
					"id" : "obj-96",
					"maxclass" : "inlet",
					"numinlets" : 0,
					"numoutlets" : 1,
					"outlettype" : [ "" ],
					"patching_rect" : [ 625.197937, 11.0, 25.0, 25.0 ],
					"presentation_rect" : [ 629.197937, 9.0, 0.0, 0.0 ]
				}

			}
, 			{
				"box" : 				{
					"dbperled" : 5,
					"id" : "obj-97",
					"maxclass" : "meter~",
					"numinlets" : 1,
					"numleds" : 18,
					"numoutlets" : 1,
					"outlettype" : [ "float" ],
					"patching_rect" : [ 628.697937, 73.32399, 12.0, 91.02803 ],
					"presentation" : 1,
					"presentation_rect" : [ 601.697937, 6.32399, 12.0, 91.02803 ]
				}

			}
, 			{
				"box" : 				{
					"comment" : "",
					"id" : "obj-98",
					"maxclass" : "inlet",
					"numinlets" : 0,
					"numoutlets" : 1,
					"outlettype" : [ "" ],
					"patching_rect" : [ 611.197937, 11.0, 25.0, 25.0 ],
					"presentation_rect" : [ 615.197937, 9.0, 0.0, 0.0 ]
				}

			}
, 			{
				"box" : 				{
					"dbperled" : 5,
					"id" : "obj-99",
					"maxclass" : "meter~",
					"numinlets" : 1,
					"numleds" : 18,
					"numoutlets" : 1,
					"outlettype" : [ "float" ],
					"patching_rect" : [ 614.697937, 73.32399, 12.0, 91.02803 ],
					"presentation" : 1,
					"presentation_rect" : [ 587.697937, 6.32399, 12.0, 91.02803 ]
				}

			}
, 			{
				"box" : 				{
					"comment" : "",
					"id" : "obj-100",
					"maxclass" : "inlet",
					"numinlets" : 0,
					"numoutlets" : 1,
					"outlettype" : [ "" ],
					"patching_rect" : [ 596.197937, 11.0, 25.0, 25.0 ],
					"presentation_rect" : [ 600.197937, 9.0, 0.0, 0.0 ]
				}

			}
, 			{
				"box" : 				{
					"dbperled" : 5,
					"id" : "obj-101",
					"maxclass" : "meter~",
					"numinlets" : 1,
					"numleds" : 18,
					"numoutlets" : 1,
					"outlettype" : [ "float" ],
					"patching_rect" : [ 599.697937, 73.32399, 12.0, 91.02803 ],
					"presentation" : 1,
					"presentation_rect" : [ 572.697937, 6.32399, 12.0, 91.02803 ]
				}

			}
, 			{
				"box" : 				{
					"comment" : "",
					"id" : "obj-38",
					"maxclass" : "inlet",
					"numinlets" : 0,
					"numoutlets" : 1,
					"outlettype" : [ "" ],
					"patching_rect" : [ 582.197937, 11.0, 25.0, 25.0 ],
					"presentation_rect" : [ 584.197937, 7.0, 0.0, 0.0 ]
				}

			}
, 			{
				"box" : 				{
					"dbperled" : 5,
					"id" : "obj-39",
					"maxclass" : "meter~",
					"numinlets" : 1,
					"numleds" : 18,
					"numoutlets" : 1,
					"outlettype" : [ "float" ],
					"patching_rect" : [ 585.697937, 73.32399, 12.0, 91.02803 ],
					"presentation" : 1,
					"presentation_rect" : [ 558.697937, 6.32399, 12.0, 91.02803 ]
				}

			}
, 			{
				"box" : 				{
					"comment" : "",
					"id" : "obj-40",
					"maxclass" : "inlet",
					"numinlets" : 0,
					"numoutlets" : 1,
					"outlettype" : [ "" ],
					"patching_rect" : [ 567.197937, 11.0, 25.0, 25.0 ],
					"presentation_rect" : [ 569.197937, 7.0, 0.0, 0.0 ]
				}

			}
, 			{
				"box" : 				{
					"dbperled" : 5,
					"id" : "obj-41",
					"maxclass" : "meter~",
					"numinlets" : 1,
					"numleds" : 18,
					"numoutlets" : 1,
					"outlettype" : [ "float" ],
					"patching_rect" : [ 570.697937, 73.32399, 12.0, 91.02803 ],
					"presentation" : 1,
					"presentation_rect" : [ 543.697937, 6.32399, 12.0, 91.02803 ]
				}

			}
, 			{
				"box" : 				{
					"comment" : "",
					"id" : "obj-42",
					"maxclass" : "inlet",
					"numinlets" : 0,
					"numoutlets" : 1,
					"outlettype" : [ "" ],
					"patching_rect" : [ 553.197937, 11.0, 25.0, 25.0 ],
					"presentation_rect" : [ 555.197937, 7.0, 0.0, 0.0 ]
				}

			}
, 			{
				"box" : 				{
					"dbperled" : 5,
					"id" : "obj-43",
					"maxclass" : "meter~",
					"numinlets" : 1,
					"numleds" : 18,
					"numoutlets" : 1,
					"outlettype" : [ "float" ],
					"patching_rect" : [ 556.697937, 73.32399, 12.0, 91.02803 ],
					"presentation" : 1,
					"presentation_rect" : [ 529.697937, 6.32399, 12.0, 91.02803 ]
				}

			}
, 			{
				"box" : 				{
					"comment" : "",
					"id" : "obj-44",
					"maxclass" : "inlet",
					"numinlets" : 0,
					"numoutlets" : 1,
					"outlettype" : [ "" ],
					"patching_rect" : [ 538.197937, 11.0, 25.0, 25.0 ],
					"presentation_rect" : [ 540.197937, 7.0, 0.0, 0.0 ]
				}

			}
, 			{
				"box" : 				{
					"dbperled" : 5,
					"id" : "obj-45",
					"maxclass" : "meter~",
					"numinlets" : 1,
					"numleds" : 18,
					"numoutlets" : 1,
					"outlettype" : [ "float" ],
					"patching_rect" : [ 541.697937, 73.32399, 12.0, 91.02803 ],
					"presentation" : 1,
					"presentation_rect" : [ 514.697937, 6.32399, 12.0, 91.02803 ]
				}

			}
, 			{
				"box" : 				{
					"comment" : "",
					"id" : "obj-46",
					"maxclass" : "inlet",
					"numinlets" : 0,
					"numoutlets" : 1,
					"outlettype" : [ "" ],
					"patching_rect" : [ 523.197937, 11.0, 25.0, 25.0 ],
					"presentation_rect" : [ 525.197937, 7.0, 0.0, 0.0 ]
				}

			}
, 			{
				"box" : 				{
					"dbperled" : 5,
					"id" : "obj-47",
					"maxclass" : "meter~",
					"numinlets" : 1,
					"numleds" : 18,
					"numoutlets" : 1,
					"outlettype" : [ "float" ],
					"patching_rect" : [ 526.697937, 73.32399, 12.0, 91.02803 ],
					"presentation" : 1,
					"presentation_rect" : [ 499.697937, 6.32399, 12.0, 91.02803 ]
				}

			}
, 			{
				"box" : 				{
					"comment" : "",
					"id" : "obj-48",
					"maxclass" : "inlet",
					"numinlets" : 0,
					"numoutlets" : 1,
					"outlettype" : [ "" ],
					"patching_rect" : [ 508.197937, 11.0, 25.0, 25.0 ],
					"presentation_rect" : [ 510.197937, 7.0, 0.0, 0.0 ]
				}

			}
, 			{
				"box" : 				{
					"dbperled" : 5,
					"id" : "obj-49",
					"maxclass" : "meter~",
					"numinlets" : 1,
					"numleds" : 18,
					"numoutlets" : 1,
					"outlettype" : [ "float" ],
					"patching_rect" : [ 511.697937, 73.32399, 12.0, 91.02803 ],
					"presentation" : 1,
					"presentation_rect" : [ 484.697937, 6.32399, 12.0, 91.02803 ]
				}

			}
, 			{
				"box" : 				{
					"comment" : "",
					"id" : "obj-50",
					"maxclass" : "inlet",
					"numinlets" : 0,
					"numoutlets" : 1,
					"outlettype" : [ "" ],
					"patching_rect" : [ 494.197937, 11.0, 25.0, 25.0 ],
					"presentation_rect" : [ 496.197937, 7.0, 0.0, 0.0 ]
				}

			}
, 			{
				"box" : 				{
					"dbperled" : 5,
					"id" : "obj-51",
					"maxclass" : "meter~",
					"numinlets" : 1,
					"numleds" : 18,
					"numoutlets" : 1,
					"outlettype" : [ "float" ],
					"patching_rect" : [ 497.697937, 73.32399, 12.0, 91.02803 ],
					"presentation" : 1,
					"presentation_rect" : [ 470.697937, 6.32399, 12.0, 91.02803 ]
				}

			}
, 			{
				"box" : 				{
					"comment" : "",
					"id" : "obj-52",
					"maxclass" : "inlet",
					"numinlets" : 0,
					"numoutlets" : 1,
					"outlettype" : [ "" ],
					"patching_rect" : [ 479.197937, 11.0, 25.0, 25.0 ],
					"presentation_rect" : [ 481.197937, 7.0, 0.0, 0.0 ]
				}

			}
, 			{
				"box" : 				{
					"dbperled" : 5,
					"id" : "obj-53",
					"maxclass" : "meter~",
					"numinlets" : 1,
					"numleds" : 18,
					"numoutlets" : 1,
					"outlettype" : [ "float" ],
					"patching_rect" : [ 482.697937, 73.32399, 12.0, 91.02803 ],
					"presentation" : 1,
					"presentation_rect" : [ 455.697937, 6.32399, 12.0, 91.02803 ]
				}

			}
, 			{
				"box" : 				{
					"comment" : "",
					"id" : "obj-54",
					"maxclass" : "inlet",
					"numinlets" : 0,
					"numoutlets" : 1,
					"outlettype" : [ "" ],
					"patching_rect" : [ 465.197937, 11.0, 25.0, 25.0 ],
					"presentation_rect" : [ 467.197937, 7.0, 0.0, 0.0 ]
				}

			}
, 			{
				"box" : 				{
					"dbperled" : 5,
					"id" : "obj-55",
					"maxclass" : "meter~",
					"numinlets" : 1,
					"numleds" : 18,
					"numoutlets" : 1,
					"outlettype" : [ "float" ],
					"patching_rect" : [ 468.697937, 73.32399, 12.0, 91.02803 ],
					"presentation" : 1,
					"presentation_rect" : [ 441.697937, 6.32399, 12.0, 91.02803 ]
				}

			}
, 			{
				"box" : 				{
					"comment" : "",
					"id" : "obj-56",
					"maxclass" : "inlet",
					"numinlets" : 0,
					"numoutlets" : 1,
					"outlettype" : [ "" ],
					"patching_rect" : [ 450.197937, 11.0, 25.0, 25.0 ],
					"presentation_rect" : [ 452.197937, 7.0, 0.0, 0.0 ]
				}

			}
, 			{
				"box" : 				{
					"dbperled" : 5,
					"id" : "obj-57",
					"maxclass" : "meter~",
					"numinlets" : 1,
					"numleds" : 18,
					"numoutlets" : 1,
					"outlettype" : [ "float" ],
					"patching_rect" : [ 453.697937, 73.32399, 12.0, 91.02803 ],
					"presentation" : 1,
					"presentation_rect" : [ 426.697937, 6.32399, 12.0, 91.02803 ]
				}

			}
, 			{
				"box" : 				{
					"comment" : "",
					"id" : "obj-58",
					"maxclass" : "inlet",
					"numinlets" : 0,
					"numoutlets" : 1,
					"outlettype" : [ "" ],
					"patching_rect" : [ 436.197937, 11.0, 25.0, 25.0 ],
					"presentation_rect" : [ 438.197937, 7.0, 0.0, 0.0 ]
				}

			}
, 			{
				"box" : 				{
					"dbperled" : 5,
					"id" : "obj-59",
					"maxclass" : "meter~",
					"numinlets" : 1,
					"numleds" : 18,
					"numoutlets" : 1,
					"outlettype" : [ "float" ],
					"patching_rect" : [ 439.697937, 73.32399, 12.0, 91.02803 ],
					"presentation" : 1,
					"presentation_rect" : [ 412.697937, 6.32399, 12.0, 91.02803 ]
				}

			}
, 			{
				"box" : 				{
					"comment" : "",
					"id" : "obj-60",
					"maxclass" : "inlet",
					"numinlets" : 0,
					"numoutlets" : 1,
					"outlettype" : [ "" ],
					"patching_rect" : [ 421.197937, 11.0, 25.0, 25.0 ],
					"presentation_rect" : [ 423.197937, 7.0, 0.0, 0.0 ]
				}

			}
, 			{
				"box" : 				{
					"dbperled" : 5,
					"id" : "obj-61",
					"maxclass" : "meter~",
					"numinlets" : 1,
					"numleds" : 18,
					"numoutlets" : 1,
					"outlettype" : [ "float" ],
					"patching_rect" : [ 424.697937, 73.32399, 12.0, 91.02803 ],
					"presentation" : 1,
					"presentation_rect" : [ 397.697937, 6.32399, 12.0, 91.02803 ]
				}

			}
, 			{
				"box" : 				{
					"comment" : "",
					"id" : "obj-62",
					"maxclass" : "inlet",
					"numinlets" : 0,
					"numoutlets" : 1,
					"outlettype" : [ "" ],
					"patching_rect" : [ 406.197937, 11.0, 25.0, 25.0 ],
					"presentation_rect" : [ 408.197937, 7.0, 0.0, 0.0 ]
				}

			}
, 			{
				"box" : 				{
					"dbperled" : 5,
					"id" : "obj-63",
					"maxclass" : "meter~",
					"numinlets" : 1,
					"numleds" : 18,
					"numoutlets" : 1,
					"outlettype" : [ "float" ],
					"patching_rect" : [ 409.697937, 73.32399, 12.0, 91.02803 ],
					"presentation" : 1,
					"presentation_rect" : [ 382.697937, 6.32399, 12.0, 91.02803 ]
				}

			}
, 			{
				"box" : 				{
					"comment" : "",
					"id" : "obj-64",
					"maxclass" : "inlet",
					"numinlets" : 0,
					"numoutlets" : 1,
					"outlettype" : [ "" ],
					"patching_rect" : [ 391.197937, 11.0, 25.0, 25.0 ],
					"presentation_rect" : [ 393.197937, 7.0, 0.0, 0.0 ]
				}

			}
, 			{
				"box" : 				{
					"dbperled" : 5,
					"id" : "obj-65",
					"maxclass" : "meter~",
					"numinlets" : 1,
					"numleds" : 18,
					"numoutlets" : 1,
					"outlettype" : [ "float" ],
					"patching_rect" : [ 394.697937, 73.32399, 12.0, 91.02803 ],
					"presentation" : 1,
					"presentation_rect" : [ 367.697937, 6.32399, 12.0, 91.02803 ]
				}

			}
, 			{
				"box" : 				{
					"comment" : "",
					"id" : "obj-66",
					"maxclass" : "inlet",
					"numinlets" : 0,
					"numoutlets" : 1,
					"outlettype" : [ "" ],
					"patching_rect" : [ 377.197937, 11.0, 25.0, 25.0 ],
					"presentation_rect" : [ 379.197937, 7.0, 0.0, 0.0 ]
				}

			}
, 			{
				"box" : 				{
					"dbperled" : 5,
					"id" : "obj-67",
					"maxclass" : "meter~",
					"numinlets" : 1,
					"numleds" : 18,
					"numoutlets" : 1,
					"outlettype" : [ "float" ],
					"patching_rect" : [ 380.697937, 73.32399, 12.0, 91.02803 ],
					"presentation" : 1,
					"presentation_rect" : [ 353.697937, 6.32399, 12.0, 91.02803 ]
				}

			}
, 			{
				"box" : 				{
					"comment" : "",
					"id" : "obj-68",
					"maxclass" : "inlet",
					"numinlets" : 0,
					"numoutlets" : 1,
					"outlettype" : [ "" ],
					"patching_rect" : [ 362.197937, 11.0, 25.0, 25.0 ],
					"presentation_rect" : [ 364.197937, 7.0, 0.0, 0.0 ]
				}

			}
, 			{
				"box" : 				{
					"dbperled" : 5,
					"id" : "obj-69",
					"maxclass" : "meter~",
					"numinlets" : 1,
					"numleds" : 18,
					"numoutlets" : 1,
					"outlettype" : [ "float" ],
					"patching_rect" : [ 365.697937, 73.32399, 12.0, 91.02803 ],
					"presentation" : 1,
					"presentation_rect" : [ 338.697937, 6.32399, 12.0, 91.02803 ]
				}

			}
, 			{
				"box" : 				{
					"comment" : "",
					"id" : "obj-22",
					"maxclass" : "inlet",
					"numinlets" : 0,
					"numoutlets" : 1,
					"outlettype" : [ "" ],
					"patching_rect" : [ 349.197937, 11.0, 25.0, 25.0 ],
					"presentation_rect" : [ 356.197937, 12.0, 0.0, 0.0 ]
				}

			}
, 			{
				"box" : 				{
					"dbperled" : 5,
					"id" : "obj-23",
					"maxclass" : "meter~",
					"numinlets" : 1,
					"numleds" : 18,
					"numoutlets" : 1,
					"outlettype" : [ "float" ],
					"patching_rect" : [ 352.697937, 73.32399, 12.0, 91.02803 ],
					"presentation" : 1,
					"presentation_rect" : [ 325.697937, 6.32399, 12.0, 91.02803 ]
				}

			}
, 			{
				"box" : 				{
					"comment" : "",
					"id" : "obj-24",
					"maxclass" : "inlet",
					"numinlets" : 0,
					"numoutlets" : 1,
					"outlettype" : [ "" ],
					"patching_rect" : [ 334.197937, 11.0, 25.0, 25.0 ],
					"presentation_rect" : [ 341.197937, 12.0, 0.0, 0.0 ]
				}

			}
, 			{
				"box" : 				{
					"dbperled" : 5,
					"id" : "obj-25",
					"maxclass" : "meter~",
					"numinlets" : 1,
					"numleds" : 18,
					"numoutlets" : 1,
					"outlettype" : [ "float" ],
					"patching_rect" : [ 337.697937, 73.32399, 12.0, 91.02803 ],
					"presentation" : 1,
					"presentation_rect" : [ 310.697937, 6.32399, 12.0, 91.02803 ]
				}

			}
, 			{
				"box" : 				{
					"comment" : "",
					"id" : "obj-26",
					"maxclass" : "inlet",
					"numinlets" : 0,
					"numoutlets" : 1,
					"outlettype" : [ "" ],
					"patching_rect" : [ 320.197937, 11.0, 25.0, 25.0 ],
					"presentation_rect" : [ 327.197937, 12.0, 0.0, 0.0 ]
				}

			}
, 			{
				"box" : 				{
					"dbperled" : 5,
					"id" : "obj-27",
					"maxclass" : "meter~",
					"numinlets" : 1,
					"numleds" : 18,
					"numoutlets" : 1,
					"outlettype" : [ "float" ],
					"patching_rect" : [ 323.697937, 73.32399, 12.0, 91.02803 ],
					"presentation" : 1,
					"presentation_rect" : [ 296.697937, 6.32399, 12.0, 91.02803 ]
				}

			}
, 			{
				"box" : 				{
					"comment" : "",
					"id" : "obj-28",
					"maxclass" : "inlet",
					"numinlets" : 0,
					"numoutlets" : 1,
					"outlettype" : [ "" ],
					"patching_rect" : [ 305.197937, 11.0, 25.0, 25.0 ],
					"presentation_rect" : [ 312.197937, 12.0, 0.0, 0.0 ]
				}

			}
, 			{
				"box" : 				{
					"dbperled" : 5,
					"id" : "obj-29",
					"maxclass" : "meter~",
					"numinlets" : 1,
					"numleds" : 18,
					"numoutlets" : 1,
					"outlettype" : [ "float" ],
					"patching_rect" : [ 308.697937, 73.32399, 12.0, 91.02803 ],
					"presentation" : 1,
					"presentation_rect" : [ 281.697937, 6.32399, 12.0, 91.02803 ]
				}

			}
, 			{
				"box" : 				{
					"comment" : "",
					"id" : "obj-30",
					"maxclass" : "inlet",
					"numinlets" : 0,
					"numoutlets" : 1,
					"outlettype" : [ "" ],
					"patching_rect" : [ 290.197937, 11.0, 25.0, 25.0 ],
					"presentation_rect" : [ 297.197937, 12.0, 0.0, 0.0 ]
				}

			}
, 			{
				"box" : 				{
					"dbperled" : 5,
					"id" : "obj-31",
					"maxclass" : "meter~",
					"numinlets" : 1,
					"numleds" : 18,
					"numoutlets" : 1,
					"outlettype" : [ "float" ],
					"patching_rect" : [ 293.697937, 73.32399, 12.0, 91.02803 ],
					"presentation" : 1,
					"presentation_rect" : [ 266.697937, 6.32399, 12.0, 91.02803 ]
				}

			}
, 			{
				"box" : 				{
					"comment" : "",
					"id" : "obj-32",
					"maxclass" : "inlet",
					"numinlets" : 0,
					"numoutlets" : 1,
					"outlettype" : [ "" ],
					"patching_rect" : [ 275.197937, 11.0, 25.0, 25.0 ],
					"presentation_rect" : [ 282.197937, 12.0, 0.0, 0.0 ]
				}

			}
, 			{
				"box" : 				{
					"dbperled" : 5,
					"id" : "obj-33",
					"maxclass" : "meter~",
					"numinlets" : 1,
					"numleds" : 18,
					"numoutlets" : 1,
					"outlettype" : [ "float" ],
					"patching_rect" : [ 278.697937, 73.32399, 12.0, 91.02803 ],
					"presentation" : 1,
					"presentation_rect" : [ 251.697937, 6.32399, 12.0, 91.02803 ]
				}

			}
, 			{
				"box" : 				{
					"comment" : "",
					"id" : "obj-34",
					"maxclass" : "inlet",
					"numinlets" : 0,
					"numoutlets" : 1,
					"outlettype" : [ "" ],
					"patching_rect" : [ 261.197937, 11.0, 25.0, 25.0 ],
					"presentation_rect" : [ 268.197937, 12.0, 0.0, 0.0 ]
				}

			}
, 			{
				"box" : 				{
					"dbperled" : 5,
					"id" : "obj-35",
					"maxclass" : "meter~",
					"numinlets" : 1,
					"numleds" : 18,
					"numoutlets" : 1,
					"outlettype" : [ "float" ],
					"patching_rect" : [ 264.697937, 73.32399, 12.0, 91.02803 ],
					"presentation" : 1,
					"presentation_rect" : [ 237.697937, 6.32399, 12.0, 91.02803 ]
				}

			}
, 			{
				"box" : 				{
					"comment" : "",
					"id" : "obj-36",
					"maxclass" : "inlet",
					"numinlets" : 0,
					"numoutlets" : 1,
					"outlettype" : [ "" ],
					"patching_rect" : [ 246.197937, 11.0, 25.0, 25.0 ],
					"presentation_rect" : [ 253.197937, 12.0, 0.0, 0.0 ]
				}

			}
, 			{
				"box" : 				{
					"dbperled" : 5,
					"id" : "obj-37",
					"maxclass" : "meter~",
					"numinlets" : 1,
					"numleds" : 18,
					"numoutlets" : 1,
					"outlettype" : [ "float" ],
					"patching_rect" : [ 249.697937, 73.32399, 12.0, 91.02803 ],
					"presentation" : 1,
					"presentation_rect" : [ 222.697937, 6.32399, 12.0, 91.02803 ]
				}

			}
, 			{
				"box" : 				{
					"comment" : "",
					"id" : "obj-14",
					"maxclass" : "inlet",
					"numinlets" : 0,
					"numoutlets" : 1,
					"outlettype" : [ "" ],
					"patching_rect" : [ 232.197937, 11.0, 25.0, 25.0 ],
					"presentation_rect" : [ 234.197937, 11.0, 0.0, 0.0 ]
				}

			}
, 			{
				"box" : 				{
					"dbperled" : 5,
					"id" : "obj-15",
					"maxclass" : "meter~",
					"numinlets" : 1,
					"numleds" : 18,
					"numoutlets" : 1,
					"outlettype" : [ "float" ],
					"patching_rect" : [ 235.697937, 73.32399, 12.0, 91.02803 ],
					"presentation" : 1,
					"presentation_rect" : [ 208.697937, 6.32399, 12.0, 91.02803 ]
				}

			}
, 			{
				"box" : 				{
					"comment" : "",
					"id" : "obj-16",
					"maxclass" : "inlet",
					"numinlets" : 0,
					"numoutlets" : 1,
					"outlettype" : [ "" ],
					"patching_rect" : [ 217.197937, 11.0, 25.0, 25.0 ],
					"presentation_rect" : [ 219.197937, 11.0, 0.0, 0.0 ]
				}

			}
, 			{
				"box" : 				{
					"dbperled" : 5,
					"id" : "obj-17",
					"maxclass" : "meter~",
					"numinlets" : 1,
					"numleds" : 18,
					"numoutlets" : 1,
					"outlettype" : [ "float" ],
					"patching_rect" : [ 220.697937, 73.32399, 12.0, 91.02803 ],
					"presentation" : 1,
					"presentation_rect" : [ 193.697937, 6.32399, 12.0, 91.02803 ]
				}

			}
, 			{
				"box" : 				{
					"comment" : "",
					"id" : "obj-18",
					"maxclass" : "inlet",
					"numinlets" : 0,
					"numoutlets" : 1,
					"outlettype" : [ "" ],
					"patching_rect" : [ 203.197937, 11.0, 25.0, 25.0 ],
					"presentation_rect" : [ 205.197937, 11.0, 0.0, 0.0 ]
				}

			}
, 			{
				"box" : 				{
					"dbperled" : 5,
					"id" : "obj-19",
					"maxclass" : "meter~",
					"numinlets" : 1,
					"numleds" : 18,
					"numoutlets" : 1,
					"outlettype" : [ "float" ],
					"patching_rect" : [ 206.697937, 73.32399, 12.0, 91.02803 ],
					"presentation" : 1,
					"presentation_rect" : [ 179.697937, 6.32399, 12.0, 91.02803 ]
				}

			}
, 			{
				"box" : 				{
					"comment" : "",
					"id" : "obj-20",
					"maxclass" : "inlet",
					"numinlets" : 0,
					"numoutlets" : 1,
					"outlettype" : [ "" ],
					"patching_rect" : [ 188.197937, 11.0, 25.0, 25.0 ],
					"presentation_rect" : [ 190.197937, 11.0, 0.0, 0.0 ]
				}

			}
, 			{
				"box" : 				{
					"dbperled" : 5,
					"id" : "obj-21",
					"maxclass" : "meter~",
					"numinlets" : 1,
					"numleds" : 18,
					"numoutlets" : 1,
					"outlettype" : [ "float" ],
					"patching_rect" : [ 191.697937, 73.32399, 12.0, 91.02803 ],
					"presentation" : 1,
					"presentation_rect" : [ 164.697937, 6.32399, 12.0, 91.02803 ]
				}

			}
, 			{
				"box" : 				{
					"comment" : "",
					"id" : "obj-10",
					"maxclass" : "inlet",
					"numinlets" : 0,
					"numoutlets" : 1,
					"outlettype" : [ "" ],
					"patching_rect" : [ 173.197937, 11.0, 25.0, 25.0 ],
					"presentation_rect" : [ 173.197937, 12.0, 0.0, 0.0 ]
				}

			}
, 			{
				"box" : 				{
					"dbperled" : 5,
					"id" : "obj-11",
					"maxclass" : "meter~",
					"numinlets" : 1,
					"numleds" : 18,
					"numoutlets" : 1,
					"outlettype" : [ "float" ],
					"patching_rect" : [ 176.697937, 73.32399, 12.0, 91.02803 ],
					"presentation" : 1,
					"presentation_rect" : [ 149.697937, 6.32399, 12.0, 91.02803 ]
				}

			}
, 			{
				"box" : 				{
					"comment" : "",
					"id" : "obj-12",
					"maxclass" : "inlet",
					"numinlets" : 0,
					"numoutlets" : 1,
					"outlettype" : [ "" ],
					"patching_rect" : [ 158.197937, 11.0, 25.0, 25.0 ],
					"presentation_rect" : [ 158.197937, 12.0, 0.0, 0.0 ]
				}

			}
, 			{
				"box" : 				{
					"dbperled" : 5,
					"id" : "obj-13",
					"maxclass" : "meter~",
					"numinlets" : 1,
					"numleds" : 18,
					"numoutlets" : 1,
					"outlettype" : [ "float" ],
					"patching_rect" : [ 161.697937, 73.32399, 12.0, 91.02803 ],
					"presentation" : 1,
					"presentation_rect" : [ 134.697937, 6.32399, 12.0, 91.02803 ]
				}

			}
, 			{
				"box" : 				{
					"comment" : "",
					"id" : "obj-8",
					"maxclass" : "inlet",
					"numinlets" : 0,
					"numoutlets" : 1,
					"outlettype" : [ "" ],
					"patching_rect" : [ 144.197937, 11.0, 25.0, 25.0 ],
					"presentation_rect" : [ 142.197937, 10.0, 0.0, 0.0 ]
				}

			}
, 			{
				"box" : 				{
					"dbperled" : 5,
					"id" : "obj-9",
					"maxclass" : "meter~",
					"numinlets" : 1,
					"numleds" : 18,
					"numoutlets" : 1,
					"outlettype" : [ "float" ],
					"patching_rect" : [ 147.697937, 73.32399, 12.0, 91.02803 ],
					"presentation" : 1,
					"presentation_rect" : [ 120.697937, 6.32399, 12.0, 91.02803 ]
				}

			}
, 			{
				"box" : 				{
					"comment" : "",
					"id" : "obj-7",
					"maxclass" : "inlet",
					"numinlets" : 0,
					"numoutlets" : 1,
					"outlettype" : [ "" ],
					"patching_rect" : [ 129.197937, 11.0, 25.0, 25.0 ]
				}

			}
, 			{
				"box" : 				{
					"dbperled" : 5,
					"id" : "obj-1",
					"maxclass" : "meter~",
					"numinlets" : 1,
					"numleds" : 18,
					"numoutlets" : 1,
					"outlettype" : [ "float" ],
					"patching_rect" : [ 132.697937, 73.32399, 12.0, 91.02803 ],
					"presentation" : 1,
					"presentation_rect" : [ 105.697937, 6.32399, 12.0, 91.02803 ]
				}

			}
 ],
		"lines" : [ 			{
				"patchline" : 				{
					"destination" : [ "obj-11", 0 ],
					"disabled" : 0,
					"hidden" : 0,
					"source" : [ "obj-10", 0 ]
				}

			}
, 			{
				"patchline" : 				{
					"destination" : [ "obj-101", 0 ],
					"disabled" : 0,
					"hidden" : 0,
					"source" : [ "obj-100", 0 ]
				}

			}
, 			{
				"patchline" : 				{
					"destination" : [ "obj-13", 0 ],
					"disabled" : 0,
					"hidden" : 0,
					"source" : [ "obj-12", 0 ]
				}

			}
, 			{
				"patchline" : 				{
					"destination" : [ "obj-15", 0 ],
					"disabled" : 0,
					"hidden" : 0,
					"source" : [ "obj-14", 0 ]
				}

			}
, 			{
				"patchline" : 				{
					"destination" : [ "obj-17", 0 ],
					"disabled" : 0,
					"hidden" : 0,
					"source" : [ "obj-16", 0 ]
				}

			}
, 			{
				"patchline" : 				{
					"destination" : [ "obj-19", 0 ],
					"disabled" : 0,
					"hidden" : 0,
					"source" : [ "obj-18", 0 ]
				}

			}
, 			{
				"patchline" : 				{
					"destination" : [ "obj-21", 0 ],
					"disabled" : 0,
					"hidden" : 0,
					"source" : [ "obj-20", 0 ]
				}

			}
, 			{
				"patchline" : 				{
					"destination" : [ "obj-23", 0 ],
					"disabled" : 0,
					"hidden" : 0,
					"source" : [ "obj-22", 0 ]
				}

			}
, 			{
				"patchline" : 				{
					"destination" : [ "obj-25", 0 ],
					"disabled" : 0,
					"hidden" : 0,
					"source" : [ "obj-24", 0 ]
				}

			}
, 			{
				"patchline" : 				{
					"destination" : [ "obj-27", 0 ],
					"disabled" : 0,
					"hidden" : 0,
					"source" : [ "obj-26", 0 ]
				}

			}
, 			{
				"patchline" : 				{
					"destination" : [ "obj-29", 0 ],
					"disabled" : 0,
					"hidden" : 0,
					"source" : [ "obj-28", 0 ]
				}

			}
, 			{
				"patchline" : 				{
					"destination" : [ "obj-31", 0 ],
					"disabled" : 0,
					"hidden" : 0,
					"source" : [ "obj-30", 0 ]
				}

			}
, 			{
				"patchline" : 				{
					"destination" : [ "obj-33", 0 ],
					"disabled" : 0,
					"hidden" : 0,
					"source" : [ "obj-32", 0 ]
				}

			}
, 			{
				"patchline" : 				{
					"destination" : [ "obj-35", 0 ],
					"disabled" : 0,
					"hidden" : 0,
					"source" : [ "obj-34", 0 ]
				}

			}
, 			{
				"patchline" : 				{
					"destination" : [ "obj-37", 0 ],
					"disabled" : 0,
					"hidden" : 0,
					"source" : [ "obj-36", 0 ]
				}

			}
, 			{
				"patchline" : 				{
					"destination" : [ "obj-39", 0 ],
					"disabled" : 0,
					"hidden" : 0,
					"source" : [ "obj-38", 0 ]
				}

			}
, 			{
				"patchline" : 				{
					"destination" : [ "obj-41", 0 ],
					"disabled" : 0,
					"hidden" : 0,
					"source" : [ "obj-40", 0 ]
				}

			}
, 			{
				"patchline" : 				{
					"destination" : [ "obj-43", 0 ],
					"disabled" : 0,
					"hidden" : 0,
					"source" : [ "obj-42", 0 ]
				}

			}
, 			{
				"patchline" : 				{
					"destination" : [ "obj-45", 0 ],
					"disabled" : 0,
					"hidden" : 0,
					"source" : [ "obj-44", 0 ]
				}

			}
, 			{
				"patchline" : 				{
					"destination" : [ "obj-47", 0 ],
					"disabled" : 0,
					"hidden" : 0,
					"source" : [ "obj-46", 0 ]
				}

			}
, 			{
				"patchline" : 				{
					"destination" : [ "obj-49", 0 ],
					"disabled" : 0,
					"hidden" : 0,
					"source" : [ "obj-48", 0 ]
				}

			}
, 			{
				"patchline" : 				{
					"destination" : [ "obj-51", 0 ],
					"disabled" : 0,
					"hidden" : 0,
					"source" : [ "obj-50", 0 ]
				}

			}
, 			{
				"patchline" : 				{
					"destination" : [ "obj-53", 0 ],
					"disabled" : 0,
					"hidden" : 0,
					"source" : [ "obj-52", 0 ]
				}

			}
, 			{
				"patchline" : 				{
					"destination" : [ "obj-55", 0 ],
					"disabled" : 0,
					"hidden" : 0,
					"source" : [ "obj-54", 0 ]
				}

			}
, 			{
				"patchline" : 				{
					"destination" : [ "obj-57", 0 ],
					"disabled" : 0,
					"hidden" : 0,
					"source" : [ "obj-56", 0 ]
				}

			}
, 			{
				"patchline" : 				{
					"destination" : [ "obj-59", 0 ],
					"disabled" : 0,
					"hidden" : 0,
					"source" : [ "obj-58", 0 ]
				}

			}
, 			{
				"patchline" : 				{
					"destination" : [ "obj-61", 0 ],
					"disabled" : 0,
					"hidden" : 0,
					"source" : [ "obj-60", 0 ]
				}

			}
, 			{
				"patchline" : 				{
					"destination" : [ "obj-63", 0 ],
					"disabled" : 0,
					"hidden" : 0,
					"source" : [ "obj-62", 0 ]
				}

			}
, 			{
				"patchline" : 				{
					"destination" : [ "obj-65", 0 ],
					"disabled" : 0,
					"hidden" : 0,
					"source" : [ "obj-64", 0 ]
				}

			}
, 			{
				"patchline" : 				{
					"destination" : [ "obj-67", 0 ],
					"disabled" : 0,
					"hidden" : 0,
					"source" : [ "obj-66", 0 ]
				}

			}
, 			{
				"patchline" : 				{
					"destination" : [ "obj-69", 0 ],
					"disabled" : 0,
					"hidden" : 0,
					"source" : [ "obj-68", 0 ]
				}

			}
, 			{
				"patchline" : 				{
					"destination" : [ "obj-1", 0 ],
					"disabled" : 0,
					"hidden" : 0,
					"source" : [ "obj-7", 0 ]
				}

			}
, 			{
				"patchline" : 				{
					"destination" : [ "obj-79", 0 ],
					"disabled" : 0,
					"hidden" : 0,
					"source" : [ "obj-78", 0 ]
				}

			}
, 			{
				"patchline" : 				{
					"destination" : [ "obj-9", 0 ],
					"disabled" : 0,
					"hidden" : 0,
					"source" : [ "obj-8", 0 ]
				}

			}
, 			{
				"patchline" : 				{
					"destination" : [ "obj-81", 0 ],
					"disabled" : 0,
					"hidden" : 0,
					"source" : [ "obj-80", 0 ]
				}

			}
, 			{
				"patchline" : 				{
					"destination" : [ "obj-83", 0 ],
					"disabled" : 0,
					"hidden" : 0,
					"source" : [ "obj-82", 0 ]
				}

			}
, 			{
				"patchline" : 				{
					"destination" : [ "obj-85", 0 ],
					"disabled" : 0,
					"hidden" : 0,
					"source" : [ "obj-84", 0 ]
				}

			}
, 			{
				"patchline" : 				{
					"destination" : [ "obj-87", 0 ],
					"disabled" : 0,
					"hidden" : 0,
					"source" : [ "obj-86", 0 ]
				}

			}
, 			{
				"patchline" : 				{
					"destination" : [ "obj-89", 0 ],
					"disabled" : 0,
					"hidden" : 0,
					"source" : [ "obj-88", 0 ]
				}

			}
, 			{
				"patchline" : 				{
					"destination" : [ "obj-91", 0 ],
					"disabled" : 0,
					"hidden" : 0,
					"source" : [ "obj-90", 0 ]
				}

			}
, 			{
				"patchline" : 				{
					"destination" : [ "obj-93", 0 ],
					"disabled" : 0,
					"hidden" : 0,
					"source" : [ "obj-92", 0 ]
				}

			}
, 			{
				"patchline" : 				{
					"destination" : [ "obj-95", 0 ],
					"disabled" : 0,
					"hidden" : 0,
					"source" : [ "obj-94", 0 ]
				}

			}
, 			{
				"patchline" : 				{
					"destination" : [ "obj-97", 0 ],
					"disabled" : 0,
					"hidden" : 0,
					"source" : [ "obj-96", 0 ]
				}

			}
, 			{
				"patchline" : 				{
					"destination" : [ "obj-99", 0 ],
					"disabled" : 0,
					"hidden" : 0,
					"source" : [ "obj-98", 0 ]
				}

			}
 ],
		"dependency_cache" : [  ]
	}

}
