{
	"patcher" : 	{
		"fileversion" : 1,
		"appversion" : 		{
			"major" : 5,
			"minor" : 1,
			"revision" : 9
		}
,
		"rect" : [ 107.0, 149.0, 1573.0, 900.0 ],
		"bglocked" : 0,
		"defrect" : [ 107.0, 149.0, 1573.0, 900.0 ],
		"openrect" : [ 0.0, 0.0, 0.0, 0.0 ],
		"openinpresentation" : 0,
		"default_fontsize" : 12.0,
		"default_fontface" : 0,
		"default_fontname" : "Arial",
		"gridonopen" : 0,
		"gridsize" : [ 15.0, 15.0 ],
		"gridsnaponopen" : 0,
		"toolbarvisible" : 1,
		"boxanimatetime" : 200,
		"imprint" : 0,
		"enablehscroll" : 1,
		"enablevscroll" : 1,
		"devicewidth" : 0.0,
		"boxes" : [ 			{
				"box" : 				{
					"maxclass" : "newobj",
					"text" : "r switchingMatrix",
					"id" : "obj-3",
					"numoutlets" : 1,
					"fontname" : "Arial",
					"outlettype" : [ "" ],
					"fontsize" : 12.0,
					"patching_rect" : [ -33.0, 1.0, 100.0, 20.0 ],
					"numinlets" : 0
				}

			}
, 			{
				"box" : 				{
					"maxclass" : "outlet",
					"hint" : "64",
					"annotation" : "64",
					"varname" : "o[63]",
					"id" : "obj-169",
					"numoutlets" : 0,
					"patching_rect" : [ 2595.727295, 702.54541, 16.0, 16.0 ],
					"numinlets" : 1,
					"comment" : "64"
				}

			}
, 			{
				"box" : 				{
					"maxclass" : "outlet",
					"varname" : "o[62]",
					"id" : "obj-168",
					"numoutlets" : 0,
					"patching_rect" : [ 2573.0, 701.181763, 16.0, 16.0 ],
					"numinlets" : 1,
					"comment" : "0"
				}

			}
, 			{
				"box" : 				{
					"maxclass" : "outlet",
					"varname" : "o[61]",
					"id" : "obj-167",
					"numoutlets" : 0,
					"patching_rect" : [ 2553.908936, 697.727234, 16.0, 16.0 ],
					"numinlets" : 1,
					"comment" : "0"
				}

			}
, 			{
				"box" : 				{
					"maxclass" : "outlet",
					"varname" : "o[60]",
					"id" : "obj-166",
					"numoutlets" : 0,
					"patching_rect" : [ 2534.363525, 696.909058, 16.0, 16.0 ],
					"numinlets" : 1,
					"comment" : "0"
				}

			}
, 			{
				"box" : 				{
					"maxclass" : "outlet",
					"varname" : "o[59]",
					"id" : "obj-165",
					"numoutlets" : 0,
					"patching_rect" : [ 2487.818115, 695.999939, 16.0, 16.0 ],
					"numinlets" : 1,
					"comment" : "0"
				}

			}
, 			{
				"box" : 				{
					"maxclass" : "outlet",
					"varname" : "o[58]",
					"id" : "obj-164",
					"numoutlets" : 0,
					"patching_rect" : [ 2463.908936, 692.727234, 16.0, 16.0 ],
					"numinlets" : 1,
					"comment" : "0"
				}

			}
, 			{
				"box" : 				{
					"maxclass" : "outlet",
					"varname" : "o[57]",
					"id" : "obj-163",
					"numoutlets" : 0,
					"patching_rect" : [ 2434.63623, 689.363586, 16.0, 16.0 ],
					"numinlets" : 1,
					"comment" : "0"
				}

			}
, 			{
				"box" : 				{
					"maxclass" : "outlet",
					"varname" : "o[56]",
					"id" : "obj-162",
					"numoutlets" : 0,
					"patching_rect" : [ 2413.727295, 687.54541, 16.0, 16.0 ],
					"numinlets" : 1,
					"comment" : "0"
				}

			}
, 			{
				"box" : 				{
					"maxclass" : "outlet",
					"varname" : "o[55]",
					"id" : "obj-161",
					"numoutlets" : 0,
					"patching_rect" : [ 2347.63623, 689.727234, 16.0, 16.0 ],
					"numinlets" : 1,
					"comment" : "0"
				}

			}
, 			{
				"box" : 				{
					"maxclass" : "outlet",
					"varname" : "o[54]",
					"id" : "obj-160",
					"numoutlets" : 0,
					"patching_rect" : [ 2326.363525, 686.454529, 16.0, 16.0 ],
					"numinlets" : 1,
					"comment" : "0"
				}

			}
, 			{
				"box" : 				{
					"maxclass" : "outlet",
					"varname" : "o[53]",
					"id" : "obj-159",
					"numoutlets" : 0,
					"patching_rect" : [ 2301.63623, 684.181824, 16.0, 16.0 ],
					"numinlets" : 1,
					"comment" : "0"
				}

			}
, 			{
				"box" : 				{
					"maxclass" : "outlet",
					"varname" : "o[52]",
					"id" : "obj-158",
					"numoutlets" : 0,
					"patching_rect" : [ 2275.272705, 682.454529, 16.0, 16.0 ],
					"numinlets" : 1,
					"comment" : "0"
				}

			}
, 			{
				"box" : 				{
					"maxclass" : "outlet",
					"varname" : "o[51]",
					"id" : "obj-157",
					"numoutlets" : 0,
					"patching_rect" : [ 2212.272705, 684.454529, 16.0, 16.0 ],
					"numinlets" : 1,
					"comment" : "0"
				}

			}
, 			{
				"box" : 				{
					"maxclass" : "outlet",
					"varname" : "o[50]",
					"id" : "obj-156",
					"numoutlets" : 0,
					"patching_rect" : [ 2186.181641, 682.818176, 16.0, 16.0 ],
					"numinlets" : 1,
					"comment" : "0"
				}

			}
, 			{
				"box" : 				{
					"maxclass" : "outlet",
					"varname" : "o[49]",
					"id" : "obj-155",
					"numoutlets" : 0,
					"patching_rect" : [ 2157.727295, 678.272705, 16.0, 16.0 ],
					"numinlets" : 1,
					"comment" : "0"
				}

			}
, 			{
				"box" : 				{
					"maxclass" : "outlet",
					"varname" : "o[48]",
					"id" : "obj-154",
					"numoutlets" : 0,
					"patching_rect" : [ 2133.363525, 678.636353, 16.0, 16.0 ],
					"numinlets" : 1,
					"comment" : "0"
				}

			}
, 			{
				"box" : 				{
					"maxclass" : "newobj",
					"varname" : "swMatrix[3]",
					"text" : "matrix~ 40 16",
					"id" : "obj-153",
					"numoutlets" : 17,
					"fontname" : "Arial",
					"outlettype" : [ "signal", "signal", "signal", "signal", "signal", "signal", "signal", "signal", "signal", "signal", "signal", "signal", "signal", "signal", "signal", "signal", "list" ],
					"fontsize" : 12.0,
					"patching_rect" : [ 101.0, 544.0, 1010.5, 20.0 ],
					"numinlets" : 40
				}

			}
, 			{
				"box" : 				{
					"maxclass" : "outlet",
					"varname" : "o[47]",
					"id" : "obj-152",
					"numoutlets" : 0,
					"patching_rect" : [ 2070.54541, 490.181793, 16.0, 16.0 ],
					"numinlets" : 1,
					"comment" : "0"
				}

			}
, 			{
				"box" : 				{
					"maxclass" : "outlet",
					"varname" : "o[46]",
					"id" : "obj-151",
					"numoutlets" : 0,
					"patching_rect" : [ 2049.817871, 490.636322, 16.0, 16.0 ],
					"numinlets" : 1,
					"comment" : "0"
				}

			}
, 			{
				"box" : 				{
					"maxclass" : "outlet",
					"varname" : "o[45]",
					"id" : "obj-150",
					"numoutlets" : 0,
					"patching_rect" : [ 2023.363525, 490.363617, 16.0, 16.0 ],
					"numinlets" : 1,
					"comment" : "0"
				}

			}
, 			{
				"box" : 				{
					"maxclass" : "outlet",
					"varname" : "o[44]",
					"id" : "obj-149",
					"numoutlets" : 0,
					"patching_rect" : [ 2000.818115, 490.999969, 16.0, 16.0 ],
					"numinlets" : 1,
					"comment" : "0"
				}

			}
, 			{
				"box" : 				{
					"maxclass" : "outlet",
					"varname" : "o[43]",
					"id" : "obj-148",
					"numoutlets" : 0,
					"patching_rect" : [ 1941.454468, 490.454498, 16.0, 16.0 ],
					"numinlets" : 1,
					"comment" : "0"
				}

			}
, 			{
				"box" : 				{
					"maxclass" : "outlet",
					"varname" : "o[42]",
					"id" : "obj-147",
					"numoutlets" : 0,
					"patching_rect" : [ 1917.636353, 489.090912, 16.0, 16.0 ],
					"numinlets" : 1,
					"comment" : "0"
				}

			}
, 			{
				"box" : 				{
					"maxclass" : "outlet",
					"varname" : "o[41]",
					"id" : "obj-146",
					"numoutlets" : 0,
					"patching_rect" : [ 1887.909058, 488.727264, 16.0, 16.0 ],
					"numinlets" : 1,
					"comment" : "0"
				}

			}
, 			{
				"box" : 				{
					"maxclass" : "outlet",
					"varname" : "o[40]",
					"id" : "obj-145",
					"numoutlets" : 0,
					"patching_rect" : [ 1865.636353, 489.636322, 16.0, 16.0 ],
					"numinlets" : 1,
					"comment" : "0"
				}

			}
, 			{
				"box" : 				{
					"maxclass" : "outlet",
					"varname" : "o[39]",
					"id" : "obj-144",
					"numoutlets" : 0,
					"patching_rect" : [ 1805.54541, 489.999969, 16.0, 16.0 ],
					"numinlets" : 1,
					"comment" : "0"
				}

			}
, 			{
				"box" : 				{
					"maxclass" : "outlet",
					"varname" : "o[38]",
					"id" : "obj-143",
					"numoutlets" : 0,
					"patching_rect" : [ 1777.454468, 487.636322, 16.0, 16.0 ],
					"numinlets" : 1,
					"comment" : "0"
				}

			}
, 			{
				"box" : 				{
					"maxclass" : "outlet",
					"varname" : "o[37]",
					"id" : "obj-142",
					"numoutlets" : 0,
					"patching_rect" : [ 1760.363525, 487.636322, 16.0, 16.0 ],
					"numinlets" : 1,
					"comment" : "0"
				}

			}
, 			{
				"box" : 				{
					"maxclass" : "outlet",
					"varname" : "o[36]",
					"id" : "obj-141",
					"numoutlets" : 0,
					"patching_rect" : [ 1737.454468, 488.363617, 16.0, 16.0 ],
					"numinlets" : 1,
					"comment" : "0"
				}

			}
, 			{
				"box" : 				{
					"maxclass" : "outlet",
					"varname" : "o[35]",
					"id" : "obj-140",
					"numoutlets" : 0,
					"patching_rect" : [ 1690.54541, 489.636322, 16.0, 16.0 ],
					"numinlets" : 1,
					"comment" : "0"
				}

			}
, 			{
				"box" : 				{
					"maxclass" : "outlet",
					"varname" : "o[34]",
					"id" : "obj-139",
					"numoutlets" : 0,
					"patching_rect" : [ 1662.909058, 487.272736, 16.0, 16.0 ],
					"numinlets" : 1,
					"comment" : "0"
				}

			}
, 			{
				"box" : 				{
					"maxclass" : "outlet",
					"varname" : "o[33]",
					"id" : "obj-138",
					"numoutlets" : 0,
					"patching_rect" : [ 1642.09082, 486.363617, 16.0, 16.0 ],
					"numinlets" : 1,
					"comment" : "0"
				}

			}
, 			{
				"box" : 				{
					"maxclass" : "outlet",
					"varname" : "o[32]",
					"id" : "obj-137",
					"numoutlets" : 0,
					"patching_rect" : [ 1617.54541, 484.363617, 16.0, 16.0 ],
					"numinlets" : 1,
					"comment" : "0"
				}

			}
, 			{
				"box" : 				{
					"maxclass" : "newobj",
					"varname" : "swMatrix[2]",
					"text" : "matrix~ 40 16",
					"id" : "obj-136",
					"numoutlets" : 17,
					"fontname" : "Arial",
					"outlettype" : [ "signal", "signal", "signal", "signal", "signal", "signal", "signal", "signal", "signal", "signal", "signal", "signal", "signal", "signal", "signal", "signal", "list" ],
					"fontsize" : 12.0,
					"patching_rect" : [ 107.0, 433.0, 1010.5, 20.0 ],
					"numinlets" : 40
				}

			}
, 			{
				"box" : 				{
					"maxclass" : "newobj",
					"text" : "+ 48",
					"id" : "obj-134",
					"numoutlets" : 1,
					"fontname" : "Arial",
					"outlettype" : [ "int" ],
					"fontsize" : 12.0,
					"patching_rect" : [ 636.0, 693.0, 34.0, 20.0 ],
					"numinlets" : 2
				}

			}
, 			{
				"box" : 				{
					"maxclass" : "button",
					"id" : "obj-132",
					"numoutlets" : 1,
					"outlettype" : [ "bang" ],
					"patching_rect" : [ 546.0, 624.0, 17.0, 17.0 ],
					"numinlets" : 1
				}

			}
, 			{
				"box" : 				{
					"maxclass" : "newobj",
					"text" : "uzi 44 0",
					"id" : "obj-133",
					"numoutlets" : 3,
					"fontname" : "Verdana",
					"outlettype" : [ "bang", "bang", "int" ],
					"fontsize" : 10.0,
					"patching_rect" : [ 545.0, 648.0, 51.0, 19.0 ],
					"numinlets" : 2
				}

			}
, 			{
				"box" : 				{
					"maxclass" : "outlet",
					"varname" : "o[31]",
					"id" : "obj-130",
					"numoutlets" : 0,
					"patching_rect" : [ 1582.0, 372.454559, 16.0, 16.0 ],
					"numinlets" : 1,
					"comment" : "0"
				}

			}
, 			{
				"box" : 				{
					"maxclass" : "outlet",
					"varname" : "o[30]",
					"id" : "obj-129",
					"numoutlets" : 0,
					"patching_rect" : [ 1553.54541, 373.181824, 16.0, 16.0 ],
					"numinlets" : 1,
					"comment" : "0"
				}

			}
, 			{
				"box" : 				{
					"maxclass" : "outlet",
					"varname" : "o[29]",
					"id" : "obj-128",
					"numoutlets" : 0,
					"patching_rect" : [ 1527.818115, 373.181824, 16.0, 16.0 ],
					"numinlets" : 1,
					"comment" : "0"
				}

			}
, 			{
				"box" : 				{
					"maxclass" : "outlet",
					"varname" : "o[28]",
					"id" : "obj-127",
					"numoutlets" : 0,
					"patching_rect" : [ 1504.909058, 372.363647, 16.0, 16.0 ],
					"numinlets" : 1,
					"comment" : "0"
				}

			}
, 			{
				"box" : 				{
					"maxclass" : "outlet",
					"varname" : "o[27]",
					"id" : "obj-123",
					"numoutlets" : 0,
					"patching_rect" : [ 1444.363647, 370.545471, 16.0, 16.0 ],
					"numinlets" : 1,
					"comment" : "0"
				}

			}
, 			{
				"box" : 				{
					"maxclass" : "outlet",
					"varname" : "o[26]",
					"id" : "obj-122",
					"numoutlets" : 0,
					"patching_rect" : [ 1420.636353, 370.272736, 16.0, 16.0 ],
					"numinlets" : 1,
					"comment" : "0"
				}

			}
, 			{
				"box" : 				{
					"maxclass" : "outlet",
					"varname" : "o[25]",
					"id" : "obj-121",
					"numoutlets" : 0,
					"patching_rect" : [ 1401.909058, 369.545471, 16.0, 16.0 ],
					"numinlets" : 1,
					"comment" : "0"
				}

			}
, 			{
				"box" : 				{
					"maxclass" : "outlet",
					"varname" : "o[24]",
					"id" : "obj-120",
					"numoutlets" : 0,
					"patching_rect" : [ 1373.363647, 371.454559, 16.0, 16.0 ],
					"numinlets" : 1,
					"comment" : "0"
				}

			}
, 			{
				"box" : 				{
					"maxclass" : "outlet",
					"varname" : "o[23]",
					"id" : "obj-119",
					"numoutlets" : 0,
					"patching_rect" : [ 1331.636353, 374.181824, 16.0, 16.0 ],
					"numinlets" : 1,
					"comment" : "0"
				}

			}
, 			{
				"box" : 				{
					"maxclass" : "outlet",
					"varname" : "o[22]",
					"id" : "obj-118",
					"numoutlets" : 0,
					"patching_rect" : [ 1311.272705, 371.363647, 16.0, 16.0 ],
					"numinlets" : 1,
					"comment" : "0"
				}

			}
, 			{
				"box" : 				{
					"maxclass" : "outlet",
					"varname" : "o[21]",
					"id" : "obj-117",
					"numoutlets" : 0,
					"patching_rect" : [ 1285.272705, 370.363647, 16.0, 16.0 ],
					"numinlets" : 1,
					"comment" : "0"
				}

			}
, 			{
				"box" : 				{
					"maxclass" : "outlet",
					"varname" : "o[20]",
					"id" : "obj-116",
					"numoutlets" : 0,
					"patching_rect" : [ 1257.272705, 368.363647, 16.0, 16.0 ],
					"numinlets" : 1,
					"comment" : "0"
				}

			}
, 			{
				"box" : 				{
					"maxclass" : "outlet",
					"varname" : "o[19]",
					"id" : "obj-115",
					"numoutlets" : 0,
					"patching_rect" : [ 1216.909058, 372.727295, 16.0, 16.0 ],
					"numinlets" : 1,
					"comment" : "0"
				}

			}
, 			{
				"box" : 				{
					"maxclass" : "outlet",
					"varname" : "o[18]",
					"id" : "obj-114",
					"numoutlets" : 0,
					"patching_rect" : [ 1194.818115, 370.272736, 16.0, 16.0 ],
					"numinlets" : 1,
					"comment" : "0"
				}

			}
, 			{
				"box" : 				{
					"maxclass" : "outlet",
					"varname" : "o[17]",
					"id" : "obj-113",
					"numoutlets" : 0,
					"patching_rect" : [ 1170.818115, 371.272736, 16.0, 16.0 ],
					"numinlets" : 1,
					"comment" : "0"
				}

			}
, 			{
				"box" : 				{
					"maxclass" : "outlet",
					"varname" : "o[16]",
					"id" : "obj-112",
					"numoutlets" : 0,
					"patching_rect" : [ 1142.818115, 367.272736, 16.0, 16.0 ],
					"numinlets" : 1,
					"comment" : "0"
				}

			}
, 			{
				"box" : 				{
					"maxclass" : "newobj",
					"varname" : "swMatrix[1]",
					"text" : "matrix~ 40 16",
					"id" : "obj-111",
					"numoutlets" : 17,
					"fontname" : "Arial",
					"outlettype" : [ "signal", "signal", "signal", "signal", "signal", "signal", "signal", "signal", "signal", "signal", "signal", "signal", "signal", "signal", "signal", "signal", "list" ],
					"fontsize" : 12.0,
					"patching_rect" : [ 146.090897, 304.545441, 1010.5, 20.0 ],
					"numinlets" : 40
				}

			}
, 			{
				"box" : 				{
					"maxclass" : "newobj",
					"text" : "route m1 m2 m3 m4",
					"id" : "obj-110",
					"numoutlets" : 5,
					"fontname" : "Arial",
					"outlettype" : [ "", "", "", "", "" ],
					"fontsize" : 12.0,
					"patching_rect" : [ -34.0, 25.0, 118.0, 20.0 ],
					"numinlets" : 1
				}

			}
, 			{
				"box" : 				{
					"maxclass" : "newobj",
					"text" : "sprintf script connect swMatrix[3] %ld o[%ld] 0",
					"id" : "obj-109",
					"numoutlets" : 1,
					"fontname" : "Arial",
					"outlettype" : [ "" ],
					"fontsize" : 12.0,
					"patching_rect" : [ 478.0, 743.0, 255.0, 20.0 ],
					"numinlets" : 2
				}

			}
, 			{
				"box" : 				{
					"maxclass" : "newobj",
					"text" : "sprintf script connect i[%ld] 0 swMatrix[3] %ld",
					"id" : "obj-108",
					"numoutlets" : 1,
					"fontname" : "Arial",
					"outlettype" : [ "" ],
					"fontsize" : 12.0,
					"patching_rect" : [ 209.0, 744.0, 251.0, 20.0 ],
					"numinlets" : 2
				}

			}
, 			{
				"box" : 				{
					"maxclass" : "message",
					"text" : "script connect i 0 swMatrix 1",
					"id" : "obj-105",
					"numoutlets" : 1,
					"fontname" : "Arial",
					"outlettype" : [ "" ],
					"fontsize" : 12.0,
					"patching_rect" : [ 38.0, 770.0, 161.0, 18.0 ],
					"numinlets" : 2
				}

			}
, 			{
				"box" : 				{
					"maxclass" : "comment",
					"text" : "17..24",
					"id" : "obj-95",
					"numoutlets" : 0,
					"fontname" : "Arial",
					"fontsize" : 12.0,
					"patching_rect" : [ 968.0, 65.0, 150.0, 20.0 ],
					"numinlets" : 1
				}

			}
, 			{
				"box" : 				{
					"maxclass" : "comment",
					"text" : "in 9..16",
					"id" : "obj-94",
					"numoutlets" : 0,
					"fontname" : "Arial",
					"fontsize" : 12.0,
					"patching_rect" : [ 718.0, 63.0, 150.0, 20.0 ],
					"numinlets" : 1
				}

			}
, 			{
				"box" : 				{
					"maxclass" : "comment",
					"text" : "in 1..8",
					"id" : "obj-93",
					"numoutlets" : 0,
					"fontname" : "Arial",
					"fontsize" : 12.0,
					"patching_rect" : [ 521.0, 61.0, 150.0, 20.0 ],
					"numinlets" : 1
				}

			}
, 			{
				"box" : 				{
					"maxclass" : "comment",
					"text" : "tape 9..16",
					"id" : "obj-92",
					"numoutlets" : 0,
					"fontname" : "Arial",
					"fontsize" : 12.0,
					"patching_rect" : [ 327.0, 61.0, 150.0, 20.0 ],
					"numinlets" : 1
				}

			}
, 			{
				"box" : 				{
					"maxclass" : "comment",
					"text" : "tape 1..8",
					"id" : "obj-91",
					"numoutlets" : 0,
					"fontname" : "Arial",
					"fontsize" : 12.0,
					"patching_rect" : [ 120.0, 59.0, 150.0, 20.0 ],
					"numinlets" : 1
				}

			}
, 			{
				"box" : 				{
					"maxclass" : "inlet",
					"varname" : "i[39]",
					"id" : "obj-89",
					"numoutlets" : 1,
					"outlettype" : [ "" ],
					"patching_rect" : [ 1096.0, 99.0, 18.0, 18.0 ],
					"numinlets" : 0,
					"comment" : "0"
				}

			}
, 			{
				"box" : 				{
					"maxclass" : "inlet",
					"varname" : "i[38]",
					"id" : "obj-88",
					"numoutlets" : 1,
					"outlettype" : [ "" ],
					"patching_rect" : [ 1075.0, 98.0, 18.0, 18.0 ],
					"numinlets" : 0,
					"comment" : "0"
				}

			}
, 			{
				"box" : 				{
					"maxclass" : "inlet",
					"varname" : "i[37]",
					"id" : "obj-87",
					"numoutlets" : 1,
					"outlettype" : [ "" ],
					"patching_rect" : [ 1053.0, 98.0, 18.0, 18.0 ],
					"numinlets" : 0,
					"comment" : "0"
				}

			}
, 			{
				"box" : 				{
					"maxclass" : "inlet",
					"varname" : "i[36]",
					"id" : "obj-86",
					"numoutlets" : 1,
					"outlettype" : [ "" ],
					"patching_rect" : [ 1032.0, 98.0, 18.0, 18.0 ],
					"numinlets" : 0,
					"comment" : "0"
				}

			}
, 			{
				"box" : 				{
					"maxclass" : "inlet",
					"varname" : "i[35]",
					"id" : "obj-85",
					"numoutlets" : 1,
					"outlettype" : [ "" ],
					"patching_rect" : [ 998.0, 99.0, 18.0, 18.0 ],
					"numinlets" : 0,
					"comment" : "0"
				}

			}
, 			{
				"box" : 				{
					"maxclass" : "inlet",
					"varname" : "i[34]",
					"id" : "obj-84",
					"numoutlets" : 1,
					"outlettype" : [ "" ],
					"patching_rect" : [ 977.0, 99.0, 18.0, 18.0 ],
					"numinlets" : 0,
					"comment" : "0"
				}

			}
, 			{
				"box" : 				{
					"maxclass" : "inlet",
					"varname" : "i[33]",
					"id" : "obj-83",
					"numoutlets" : 1,
					"outlettype" : [ "" ],
					"patching_rect" : [ 957.0, 100.0, 18.0, 18.0 ],
					"numinlets" : 0,
					"comment" : "0"
				}

			}
, 			{
				"box" : 				{
					"maxclass" : "inlet",
					"varname" : "i[32]",
					"id" : "obj-82",
					"numoutlets" : 1,
					"outlettype" : [ "" ],
					"patching_rect" : [ 935.0, 99.0, 18.0, 18.0 ],
					"numinlets" : 0,
					"comment" : "0"
				}

			}
, 			{
				"box" : 				{
					"maxclass" : "inlet",
					"varname" : "i[31]",
					"id" : "obj-81",
					"numoutlets" : 1,
					"outlettype" : [ "" ],
					"patching_rect" : [ 875.0, 99.0, 18.0, 18.0 ],
					"numinlets" : 0,
					"comment" : "0"
				}

			}
, 			{
				"box" : 				{
					"maxclass" : "inlet",
					"varname" : "i[30]",
					"id" : "obj-80",
					"numoutlets" : 1,
					"outlettype" : [ "" ],
					"patching_rect" : [ 855.0, 100.0, 18.0, 18.0 ],
					"numinlets" : 0,
					"comment" : "0"
				}

			}
, 			{
				"box" : 				{
					"maxclass" : "inlet",
					"varname" : "i[29]",
					"id" : "obj-79",
					"numoutlets" : 1,
					"outlettype" : [ "" ],
					"patching_rect" : [ 831.0, 99.0, 18.0, 18.0 ],
					"numinlets" : 0,
					"comment" : "0"
				}

			}
, 			{
				"box" : 				{
					"maxclass" : "inlet",
					"varname" : "i[28]",
					"id" : "obj-78",
					"numoutlets" : 1,
					"outlettype" : [ "" ],
					"patching_rect" : [ 807.0, 99.0, 18.0, 18.0 ],
					"numinlets" : 0,
					"comment" : "0"
				}

			}
, 			{
				"box" : 				{
					"maxclass" : "inlet",
					"varname" : "i[27]",
					"id" : "obj-77",
					"numoutlets" : 1,
					"outlettype" : [ "" ],
					"patching_rect" : [ 778.0, 99.0, 18.0, 18.0 ],
					"numinlets" : 0,
					"comment" : "0"
				}

			}
, 			{
				"box" : 				{
					"maxclass" : "inlet",
					"varname" : "i[26]",
					"id" : "obj-76",
					"numoutlets" : 1,
					"outlettype" : [ "" ],
					"patching_rect" : [ 758.0, 99.0, 18.0, 18.0 ],
					"numinlets" : 0,
					"comment" : "0"
				}

			}
, 			{
				"box" : 				{
					"maxclass" : "inlet",
					"varname" : "i[25]",
					"id" : "obj-75",
					"numoutlets" : 1,
					"outlettype" : [ "" ],
					"patching_rect" : [ 738.0, 99.0, 18.0, 18.0 ],
					"numinlets" : 0,
					"comment" : "0"
				}

			}
, 			{
				"box" : 				{
					"maxclass" : "inlet",
					"varname" : "i[24]",
					"id" : "obj-74",
					"numoutlets" : 1,
					"outlettype" : [ "" ],
					"patching_rect" : [ 716.0, 98.0, 18.0, 18.0 ],
					"numinlets" : 0,
					"comment" : "0"
				}

			}
, 			{
				"box" : 				{
					"maxclass" : "inlet",
					"varname" : "i[23]",
					"id" : "obj-73",
					"numoutlets" : 1,
					"outlettype" : [ "" ],
					"patching_rect" : [ 677.0, 96.0, 18.0, 18.0 ],
					"numinlets" : 0,
					"comment" : "0"
				}

			}
, 			{
				"box" : 				{
					"maxclass" : "inlet",
					"varname" : "i[22]",
					"id" : "obj-72",
					"numoutlets" : 1,
					"outlettype" : [ "" ],
					"patching_rect" : [ 657.0, 98.0, 18.0, 18.0 ],
					"numinlets" : 0,
					"comment" : "0"
				}

			}
, 			{
				"box" : 				{
					"maxclass" : "inlet",
					"varname" : "i[21]",
					"id" : "obj-71",
					"numoutlets" : 1,
					"outlettype" : [ "" ],
					"patching_rect" : [ 635.0, 98.0, 18.0, 18.0 ],
					"numinlets" : 0,
					"comment" : "0"
				}

			}
, 			{
				"box" : 				{
					"maxclass" : "inlet",
					"varname" : "i[20]",
					"id" : "obj-70",
					"numoutlets" : 1,
					"outlettype" : [ "" ],
					"patching_rect" : [ 613.0, 97.0, 18.0, 18.0 ],
					"numinlets" : 0,
					"comment" : "0"
				}

			}
, 			{
				"box" : 				{
					"maxclass" : "inlet",
					"varname" : "i[19]",
					"id" : "obj-69",
					"numoutlets" : 1,
					"outlettype" : [ "" ],
					"patching_rect" : [ 581.0, 96.0, 18.0, 18.0 ],
					"numinlets" : 0,
					"comment" : "0"
				}

			}
, 			{
				"box" : 				{
					"maxclass" : "inlet",
					"varname" : "i[18]",
					"id" : "obj-68",
					"numoutlets" : 1,
					"outlettype" : [ "" ],
					"patching_rect" : [ 561.0, 96.0, 18.0, 18.0 ],
					"numinlets" : 0,
					"comment" : "0"
				}

			}
, 			{
				"box" : 				{
					"maxclass" : "inlet",
					"varname" : "i[17]",
					"id" : "obj-66",
					"numoutlets" : 1,
					"outlettype" : [ "" ],
					"patching_rect" : [ 539.0, 96.0, 18.0, 18.0 ],
					"numinlets" : 0,
					"comment" : "0"
				}

			}
, 			{
				"box" : 				{
					"maxclass" : "inlet",
					"varname" : "i[16]",
					"id" : "obj-65",
					"numoutlets" : 1,
					"outlettype" : [ "" ],
					"patching_rect" : [ 515.0, 96.0, 18.0, 18.0 ],
					"numinlets" : 0,
					"comment" : "0"
				}

			}
, 			{
				"box" : 				{
					"maxclass" : "inlet",
					"varname" : "i[15]",
					"id" : "obj-64",
					"numoutlets" : 1,
					"outlettype" : [ "" ],
					"patching_rect" : [ 470.0, 95.0, 18.0, 18.0 ],
					"numinlets" : 0,
					"comment" : "0"
				}

			}
, 			{
				"box" : 				{
					"maxclass" : "inlet",
					"varname" : "i[14]",
					"id" : "obj-63",
					"numoutlets" : 1,
					"outlettype" : [ "" ],
					"patching_rect" : [ 447.0, 95.0, 18.0, 18.0 ],
					"numinlets" : 0,
					"comment" : "0"
				}

			}
, 			{
				"box" : 				{
					"maxclass" : "inlet",
					"varname" : "i[13]",
					"id" : "obj-62",
					"numoutlets" : 1,
					"outlettype" : [ "" ],
					"patching_rect" : [ 423.0, 95.0, 18.0, 18.0 ],
					"numinlets" : 0,
					"comment" : "0"
				}

			}
, 			{
				"box" : 				{
					"maxclass" : "inlet",
					"varname" : "i[12]",
					"id" : "obj-61",
					"numoutlets" : 1,
					"outlettype" : [ "" ],
					"patching_rect" : [ 401.0, 95.0, 18.0, 18.0 ],
					"numinlets" : 0,
					"comment" : "0"
				}

			}
, 			{
				"box" : 				{
					"maxclass" : "inlet",
					"varname" : "i[11]",
					"id" : "obj-60",
					"numoutlets" : 1,
					"outlettype" : [ "" ],
					"patching_rect" : [ 372.0, 95.0, 18.0, 18.0 ],
					"numinlets" : 0,
					"comment" : "0"
				}

			}
, 			{
				"box" : 				{
					"maxclass" : "inlet",
					"varname" : "i[10]",
					"id" : "obj-59",
					"numoutlets" : 1,
					"outlettype" : [ "" ],
					"patching_rect" : [ 350.0, 95.0, 18.0, 18.0 ],
					"numinlets" : 0,
					"comment" : "0"
				}

			}
, 			{
				"box" : 				{
					"maxclass" : "inlet",
					"varname" : "i[9]",
					"id" : "obj-58",
					"numoutlets" : 1,
					"outlettype" : [ "" ],
					"patching_rect" : [ 328.0, 95.0, 18.0, 18.0 ],
					"numinlets" : 0,
					"comment" : "0"
				}

			}
, 			{
				"box" : 				{
					"maxclass" : "inlet",
					"varname" : "i[8]",
					"id" : "obj-57",
					"numoutlets" : 1,
					"outlettype" : [ "" ],
					"patching_rect" : [ 308.0, 95.0, 18.0, 18.0 ],
					"numinlets" : 0,
					"comment" : "0"
				}

			}
, 			{
				"box" : 				{
					"maxclass" : "inlet",
					"varname" : "i[7]",
					"id" : "obj-56",
					"numoutlets" : 1,
					"outlettype" : [ "" ],
					"patching_rect" : [ 263.0, 97.0, 18.0, 18.0 ],
					"numinlets" : 0,
					"comment" : "0"
				}

			}
, 			{
				"box" : 				{
					"maxclass" : "inlet",
					"varname" : "i[6]",
					"id" : "obj-55",
					"numoutlets" : 1,
					"outlettype" : [ "" ],
					"patching_rect" : [ 241.0, 97.0, 18.0, 18.0 ],
					"numinlets" : 0,
					"comment" : "0"
				}

			}
, 			{
				"box" : 				{
					"maxclass" : "inlet",
					"varname" : "i[5]",
					"id" : "obj-54",
					"numoutlets" : 1,
					"outlettype" : [ "" ],
					"patching_rect" : [ 220.0, 97.0, 18.0, 18.0 ],
					"numinlets" : 0,
					"comment" : "0"
				}

			}
, 			{
				"box" : 				{
					"maxclass" : "inlet",
					"varname" : "i[4]",
					"id" : "obj-53",
					"numoutlets" : 1,
					"outlettype" : [ "" ],
					"patching_rect" : [ 198.0, 97.0, 18.0, 18.0 ],
					"numinlets" : 0,
					"comment" : "0"
				}

			}
, 			{
				"box" : 				{
					"maxclass" : "inlet",
					"varname" : "i[3]",
					"id" : "obj-52",
					"numoutlets" : 1,
					"outlettype" : [ "" ],
					"patching_rect" : [ 172.0, 97.0, 18.0, 18.0 ],
					"numinlets" : 0,
					"comment" : "0"
				}

			}
, 			{
				"box" : 				{
					"maxclass" : "inlet",
					"varname" : "i[2]",
					"id" : "obj-51",
					"numoutlets" : 1,
					"outlettype" : [ "" ],
					"patching_rect" : [ 148.0, 94.0, 18.0, 18.0 ],
					"numinlets" : 0,
					"comment" : "0"
				}

			}
, 			{
				"box" : 				{
					"maxclass" : "inlet",
					"varname" : "i[1]",
					"id" : "obj-50",
					"numoutlets" : 1,
					"outlettype" : [ "" ],
					"patching_rect" : [ 123.0, 95.0, 18.0, 18.0 ],
					"numinlets" : 0,
					"comment" : "0"
				}

			}
, 			{
				"box" : 				{
					"maxclass" : "outlet",
					"varname" : "o[15]",
					"id" : "obj-48",
					"numoutlets" : 0,
					"patching_rect" : [ 478.0, 203.0, 16.0, 16.0 ],
					"numinlets" : 1,
					"comment" : "0"
				}

			}
, 			{
				"box" : 				{
					"maxclass" : "outlet",
					"varname" : "o[14]",
					"id" : "obj-47",
					"numoutlets" : 0,
					"patching_rect" : [ 457.0, 203.0, 16.0, 16.0 ],
					"numinlets" : 1,
					"comment" : "0"
				}

			}
, 			{
				"box" : 				{
					"maxclass" : "outlet",
					"varname" : "o[13]",
					"id" : "obj-46",
					"numoutlets" : 0,
					"patching_rect" : [ 430.0, 203.0, 16.0, 16.0 ],
					"numinlets" : 1,
					"comment" : "0"
				}

			}
, 			{
				"box" : 				{
					"maxclass" : "outlet",
					"varname" : "o[12]",
					"id" : "obj-43",
					"numoutlets" : 0,
					"patching_rect" : [ 412.0, 203.0, 16.0, 16.0 ],
					"numinlets" : 1,
					"comment" : "0"
				}

			}
, 			{
				"box" : 				{
					"maxclass" : "outlet",
					"varname" : "o[11]",
					"id" : "obj-42",
					"numoutlets" : 0,
					"patching_rect" : [ 369.0, 203.0, 16.0, 16.0 ],
					"numinlets" : 1,
					"comment" : "0"
				}

			}
, 			{
				"box" : 				{
					"maxclass" : "outlet",
					"varname" : "o[10]",
					"id" : "obj-41",
					"numoutlets" : 0,
					"patching_rect" : [ 349.0, 203.0, 16.0, 16.0 ],
					"numinlets" : 1,
					"comment" : "0"
				}

			}
, 			{
				"box" : 				{
					"maxclass" : "outlet",
					"varname" : "o[9]",
					"id" : "obj-40",
					"numoutlets" : 0,
					"patching_rect" : [ 329.0, 203.0, 16.0, 16.0 ],
					"numinlets" : 1,
					"comment" : "0"
				}

			}
, 			{
				"box" : 				{
					"maxclass" : "outlet",
					"varname" : "o[8]",
					"id" : "obj-39",
					"numoutlets" : 0,
					"patching_rect" : [ 306.0, 203.0, 16.0, 16.0 ],
					"numinlets" : 1,
					"comment" : "0"
				}

			}
, 			{
				"box" : 				{
					"maxclass" : "outlet",
					"varname" : "o[7]",
					"id" : "obj-38",
					"numoutlets" : 0,
					"patching_rect" : [ 275.0, 205.0, 16.0, 16.0 ],
					"numinlets" : 1,
					"comment" : "0"
				}

			}
, 			{
				"box" : 				{
					"maxclass" : "outlet",
					"varname" : "o[6]",
					"id" : "obj-37",
					"numoutlets" : 0,
					"patching_rect" : [ 255.0, 204.0, 16.0, 16.0 ],
					"numinlets" : 1,
					"comment" : "0"
				}

			}
, 			{
				"box" : 				{
					"maxclass" : "outlet",
					"varname" : "o[5]",
					"id" : "obj-36",
					"numoutlets" : 0,
					"patching_rect" : [ 232.0, 204.0, 16.0, 16.0 ],
					"numinlets" : 1,
					"comment" : "0"
				}

			}
, 			{
				"box" : 				{
					"maxclass" : "outlet",
					"varname" : "o[4]",
					"id" : "obj-35",
					"numoutlets" : 0,
					"patching_rect" : [ 210.0, 204.0, 16.0, 16.0 ],
					"numinlets" : 1,
					"comment" : "0"
				}

			}
, 			{
				"box" : 				{
					"maxclass" : "outlet",
					"varname" : "o[3]",
					"id" : "obj-34",
					"numoutlets" : 0,
					"patching_rect" : [ 176.0, 204.0, 16.0, 16.0 ],
					"numinlets" : 1,
					"comment" : "0"
				}

			}
, 			{
				"box" : 				{
					"maxclass" : "outlet",
					"varname" : "o[2]",
					"id" : "obj-32",
					"numoutlets" : 0,
					"patching_rect" : [ 154.0, 205.0, 16.0, 16.0 ],
					"numinlets" : 1,
					"comment" : "0"
				}

			}
, 			{
				"box" : 				{
					"maxclass" : "outlet",
					"varname" : "o[1]",
					"id" : "obj-31",
					"numoutlets" : 0,
					"patching_rect" : [ 130.0, 203.0, 16.0, 16.0 ],
					"numinlets" : 1,
					"comment" : "0"
				}

			}
, 			{
				"box" : 				{
					"maxclass" : "button",
					"id" : "obj-5",
					"numoutlets" : 1,
					"outlettype" : [ "bang" ],
					"patching_rect" : [ 186.0, 669.0, 17.0, 17.0 ],
					"numinlets" : 1
				}

			}
, 			{
				"box" : 				{
					"maxclass" : "message",
					"text" : "script connect i[$1] 0 swMatrix $1",
					"id" : "obj-28",
					"numoutlets" : 1,
					"fontname" : "Verdana",
					"outlettype" : [ "" ],
					"fontsize" : 10.0,
					"patching_rect" : [ 11.0, 739.0, 183.0, 17.0 ],
					"numinlets" : 2
				}

			}
, 			{
				"box" : 				{
					"maxclass" : "newobj",
					"text" : "uzi 44 0",
					"id" : "obj-44",
					"numoutlets" : 3,
					"fontname" : "Verdana",
					"outlettype" : [ "bang", "bang", "int" ],
					"fontsize" : 10.0,
					"patching_rect" : [ 185.0, 693.0, 51.0, 19.0 ],
					"numinlets" : 2
				}

			}
, 			{
				"box" : 				{
					"maxclass" : "newobj",
					"text" : "thispatcher",
					"id" : "obj-45",
					"numoutlets" : 2,
					"fontname" : "Verdana",
					"outlettype" : [ "", "" ],
					"fontsize" : 10.0,
					"patching_rect" : [ 399.0, 822.0, 67.0, 19.0 ],
					"numinlets" : 1,
					"save" : [ "#N", "thispatcher", ";", "#Q", "end", ";" ]
				}

			}
, 			{
				"box" : 				{
					"maxclass" : "outlet",
					"varname" : "o",
					"id" : "obj-67",
					"numoutlets" : 0,
					"patching_rect" : [ 103.0, 204.0, 16.0, 16.0 ],
					"numinlets" : 1,
					"comment" : "0"
				}

			}
, 			{
				"box" : 				{
					"maxclass" : "comment",
					"text" : "input comments start from  0 and go up to 31",
					"linecount" : 2,
					"id" : "obj-2",
					"numoutlets" : 0,
					"fontname" : "Arial",
					"fontsize" : 12.0,
					"patching_rect" : [ 214.0, 11.0, 154.0, 34.0 ],
					"numinlets" : 1
				}

			}
, 			{
				"box" : 				{
					"maxclass" : "inlet",
					"varname" : "i",
					"id" : "obj-11",
					"numoutlets" : 1,
					"outlettype" : [ "" ],
					"patching_rect" : [ 96.0, 93.0, 18.0, 18.0 ],
					"numinlets" : 0,
					"comment" : "0"
				}

			}
, 			{
				"box" : 				{
					"maxclass" : "newobj",
					"varname" : "swMatrix",
					"text" : "matrix~ 40 16",
					"id" : "obj-1",
					"numoutlets" : 17,
					"fontname" : "Arial",
					"outlettype" : [ "signal", "signal", "signal", "signal", "signal", "signal", "signal", "signal", "signal", "signal", "signal", "signal", "signal", "signal", "signal", "signal", "list" ],
					"fontsize" : 12.0,
					"patching_rect" : [ 101.0, 145.0, 1010.5, 20.0 ],
					"numinlets" : 40
				}

			}
 ],
		"lines" : [ 			{
				"patchline" : 				{
					"source" : [ "obj-3", 0 ],
					"destination" : [ "obj-110", 0 ],
					"hidden" : 0,
					"midpoints" : [  ]
				}

			}
, 			{
				"patchline" : 				{
					"source" : [ "obj-5", 0 ],
					"destination" : [ "obj-44", 0 ],
					"hidden" : 0,
					"midpoints" : [  ]
				}

			}
, 			{
				"patchline" : 				{
					"source" : [ "obj-44", 2 ],
					"destination" : [ "obj-28", 0 ],
					"hidden" : 0,
					"midpoints" : [  ]
				}

			}
, 			{
				"patchline" : 				{
					"source" : [ "obj-105", 0 ],
					"destination" : [ "obj-45", 0 ],
					"hidden" : 0,
					"midpoints" : [  ]
				}

			}
, 			{
				"patchline" : 				{
					"source" : [ "obj-50", 0 ],
					"destination" : [ "obj-1", 1 ],
					"hidden" : 0,
					"midpoints" : [  ]
				}

			}
, 			{
				"patchline" : 				{
					"source" : [ "obj-51", 0 ],
					"destination" : [ "obj-1", 2 ],
					"hidden" : 0,
					"midpoints" : [  ]
				}

			}
, 			{
				"patchline" : 				{
					"source" : [ "obj-52", 0 ],
					"destination" : [ "obj-1", 3 ],
					"hidden" : 0,
					"midpoints" : [  ]
				}

			}
, 			{
				"patchline" : 				{
					"source" : [ "obj-53", 0 ],
					"destination" : [ "obj-1", 4 ],
					"hidden" : 0,
					"midpoints" : [  ]
				}

			}
, 			{
				"patchline" : 				{
					"source" : [ "obj-54", 0 ],
					"destination" : [ "obj-1", 5 ],
					"hidden" : 0,
					"midpoints" : [  ]
				}

			}
, 			{
				"patchline" : 				{
					"source" : [ "obj-55", 0 ],
					"destination" : [ "obj-1", 6 ],
					"hidden" : 0,
					"midpoints" : [  ]
				}

			}
, 			{
				"patchline" : 				{
					"source" : [ "obj-56", 0 ],
					"destination" : [ "obj-1", 7 ],
					"hidden" : 0,
					"midpoints" : [  ]
				}

			}
, 			{
				"patchline" : 				{
					"source" : [ "obj-57", 0 ],
					"destination" : [ "obj-1", 8 ],
					"hidden" : 0,
					"midpoints" : [  ]
				}

			}
, 			{
				"patchline" : 				{
					"source" : [ "obj-58", 0 ],
					"destination" : [ "obj-1", 9 ],
					"hidden" : 0,
					"midpoints" : [  ]
				}

			}
, 			{
				"patchline" : 				{
					"source" : [ "obj-59", 0 ],
					"destination" : [ "obj-1", 10 ],
					"hidden" : 0,
					"midpoints" : [  ]
				}

			}
, 			{
				"patchline" : 				{
					"source" : [ "obj-60", 0 ],
					"destination" : [ "obj-1", 11 ],
					"hidden" : 0,
					"midpoints" : [  ]
				}

			}
, 			{
				"patchline" : 				{
					"source" : [ "obj-61", 0 ],
					"destination" : [ "obj-1", 12 ],
					"hidden" : 0,
					"midpoints" : [  ]
				}

			}
, 			{
				"patchline" : 				{
					"source" : [ "obj-62", 0 ],
					"destination" : [ "obj-1", 13 ],
					"hidden" : 0,
					"midpoints" : [  ]
				}

			}
, 			{
				"patchline" : 				{
					"source" : [ "obj-63", 0 ],
					"destination" : [ "obj-1", 14 ],
					"hidden" : 0,
					"midpoints" : [  ]
				}

			}
, 			{
				"patchline" : 				{
					"source" : [ "obj-64", 0 ],
					"destination" : [ "obj-1", 15 ],
					"hidden" : 0,
					"midpoints" : [  ]
				}

			}
, 			{
				"patchline" : 				{
					"source" : [ "obj-65", 0 ],
					"destination" : [ "obj-1", 16 ],
					"hidden" : 0,
					"midpoints" : [  ]
				}

			}
, 			{
				"patchline" : 				{
					"source" : [ "obj-66", 0 ],
					"destination" : [ "obj-1", 17 ],
					"hidden" : 0,
					"midpoints" : [  ]
				}

			}
, 			{
				"patchline" : 				{
					"source" : [ "obj-68", 0 ],
					"destination" : [ "obj-1", 18 ],
					"hidden" : 0,
					"midpoints" : [  ]
				}

			}
, 			{
				"patchline" : 				{
					"source" : [ "obj-69", 0 ],
					"destination" : [ "obj-1", 19 ],
					"hidden" : 0,
					"midpoints" : [  ]
				}

			}
, 			{
				"patchline" : 				{
					"source" : [ "obj-70", 0 ],
					"destination" : [ "obj-1", 20 ],
					"hidden" : 0,
					"midpoints" : [  ]
				}

			}
, 			{
				"patchline" : 				{
					"source" : [ "obj-71", 0 ],
					"destination" : [ "obj-1", 21 ],
					"hidden" : 0,
					"midpoints" : [  ]
				}

			}
, 			{
				"patchline" : 				{
					"source" : [ "obj-72", 0 ],
					"destination" : [ "obj-1", 22 ],
					"hidden" : 0,
					"midpoints" : [  ]
				}

			}
, 			{
				"patchline" : 				{
					"source" : [ "obj-73", 0 ],
					"destination" : [ "obj-1", 23 ],
					"hidden" : 0,
					"midpoints" : [  ]
				}

			}
, 			{
				"patchline" : 				{
					"source" : [ "obj-74", 0 ],
					"destination" : [ "obj-1", 24 ],
					"hidden" : 0,
					"midpoints" : [  ]
				}

			}
, 			{
				"patchline" : 				{
					"source" : [ "obj-75", 0 ],
					"destination" : [ "obj-1", 25 ],
					"hidden" : 0,
					"midpoints" : [  ]
				}

			}
, 			{
				"patchline" : 				{
					"source" : [ "obj-76", 0 ],
					"destination" : [ "obj-1", 26 ],
					"hidden" : 0,
					"midpoints" : [  ]
				}

			}
, 			{
				"patchline" : 				{
					"source" : [ "obj-77", 0 ],
					"destination" : [ "obj-1", 27 ],
					"hidden" : 0,
					"midpoints" : [  ]
				}

			}
, 			{
				"patchline" : 				{
					"source" : [ "obj-78", 0 ],
					"destination" : [ "obj-1", 28 ],
					"hidden" : 0,
					"midpoints" : [  ]
				}

			}
, 			{
				"patchline" : 				{
					"source" : [ "obj-79", 0 ],
					"destination" : [ "obj-1", 29 ],
					"hidden" : 0,
					"midpoints" : [  ]
				}

			}
, 			{
				"patchline" : 				{
					"source" : [ "obj-80", 0 ],
					"destination" : [ "obj-1", 30 ],
					"hidden" : 0,
					"midpoints" : [  ]
				}

			}
, 			{
				"patchline" : 				{
					"source" : [ "obj-81", 0 ],
					"destination" : [ "obj-1", 31 ],
					"hidden" : 0,
					"midpoints" : [  ]
				}

			}
, 			{
				"patchline" : 				{
					"source" : [ "obj-82", 0 ],
					"destination" : [ "obj-1", 32 ],
					"hidden" : 0,
					"midpoints" : [  ]
				}

			}
, 			{
				"patchline" : 				{
					"source" : [ "obj-83", 0 ],
					"destination" : [ "obj-1", 33 ],
					"hidden" : 0,
					"midpoints" : [  ]
				}

			}
, 			{
				"patchline" : 				{
					"source" : [ "obj-84", 0 ],
					"destination" : [ "obj-1", 34 ],
					"hidden" : 0,
					"midpoints" : [  ]
				}

			}
, 			{
				"patchline" : 				{
					"source" : [ "obj-85", 0 ],
					"destination" : [ "obj-1", 35 ],
					"hidden" : 0,
					"midpoints" : [  ]
				}

			}
, 			{
				"patchline" : 				{
					"source" : [ "obj-86", 0 ],
					"destination" : [ "obj-1", 36 ],
					"hidden" : 0,
					"midpoints" : [  ]
				}

			}
, 			{
				"patchline" : 				{
					"source" : [ "obj-87", 0 ],
					"destination" : [ "obj-1", 37 ],
					"hidden" : 0,
					"midpoints" : [  ]
				}

			}
, 			{
				"patchline" : 				{
					"source" : [ "obj-88", 0 ],
					"destination" : [ "obj-1", 38 ],
					"hidden" : 0,
					"midpoints" : [  ]
				}

			}
, 			{
				"patchline" : 				{
					"source" : [ "obj-89", 0 ],
					"destination" : [ "obj-1", 39 ],
					"hidden" : 0,
					"midpoints" : [  ]
				}

			}
, 			{
				"patchline" : 				{
					"source" : [ "obj-11", 0 ],
					"destination" : [ "obj-1", 0 ],
					"hidden" : 0,
					"midpoints" : [  ]
				}

			}
, 			{
				"patchline" : 				{
					"source" : [ "obj-1", 1 ],
					"destination" : [ "obj-31", 0 ],
					"hidden" : 0,
					"midpoints" : [  ]
				}

			}
, 			{
				"patchline" : 				{
					"source" : [ "obj-1", 2 ],
					"destination" : [ "obj-32", 0 ],
					"hidden" : 0,
					"midpoints" : [  ]
				}

			}
, 			{
				"patchline" : 				{
					"source" : [ "obj-1", 3 ],
					"destination" : [ "obj-34", 0 ],
					"hidden" : 0,
					"midpoints" : [  ]
				}

			}
, 			{
				"patchline" : 				{
					"source" : [ "obj-1", 4 ],
					"destination" : [ "obj-35", 0 ],
					"hidden" : 0,
					"midpoints" : [  ]
				}

			}
, 			{
				"patchline" : 				{
					"source" : [ "obj-1", 5 ],
					"destination" : [ "obj-36", 0 ],
					"hidden" : 0,
					"midpoints" : [  ]
				}

			}
, 			{
				"patchline" : 				{
					"source" : [ "obj-1", 6 ],
					"destination" : [ "obj-37", 0 ],
					"hidden" : 0,
					"midpoints" : [  ]
				}

			}
, 			{
				"patchline" : 				{
					"source" : [ "obj-1", 7 ],
					"destination" : [ "obj-38", 0 ],
					"hidden" : 0,
					"midpoints" : [  ]
				}

			}
, 			{
				"patchline" : 				{
					"source" : [ "obj-1", 8 ],
					"destination" : [ "obj-39", 0 ],
					"hidden" : 0,
					"midpoints" : [  ]
				}

			}
, 			{
				"patchline" : 				{
					"source" : [ "obj-1", 9 ],
					"destination" : [ "obj-40", 0 ],
					"hidden" : 0,
					"midpoints" : [  ]
				}

			}
, 			{
				"patchline" : 				{
					"source" : [ "obj-1", 10 ],
					"destination" : [ "obj-41", 0 ],
					"hidden" : 0,
					"midpoints" : [  ]
				}

			}
, 			{
				"patchline" : 				{
					"source" : [ "obj-1", 11 ],
					"destination" : [ "obj-42", 0 ],
					"hidden" : 0,
					"midpoints" : [  ]
				}

			}
, 			{
				"patchline" : 				{
					"source" : [ "obj-1", 12 ],
					"destination" : [ "obj-43", 0 ],
					"hidden" : 0,
					"midpoints" : [  ]
				}

			}
, 			{
				"patchline" : 				{
					"source" : [ "obj-1", 13 ],
					"destination" : [ "obj-46", 0 ],
					"hidden" : 0,
					"midpoints" : [  ]
				}

			}
, 			{
				"patchline" : 				{
					"source" : [ "obj-1", 14 ],
					"destination" : [ "obj-47", 0 ],
					"hidden" : 0,
					"midpoints" : [  ]
				}

			}
, 			{
				"patchline" : 				{
					"source" : [ "obj-1", 15 ],
					"destination" : [ "obj-48", 0 ],
					"hidden" : 0,
					"midpoints" : [  ]
				}

			}
, 			{
				"patchline" : 				{
					"source" : [ "obj-1", 0 ],
					"destination" : [ "obj-67", 0 ],
					"hidden" : 0,
					"midpoints" : [  ]
				}

			}
, 			{
				"patchline" : 				{
					"source" : [ "obj-111", 0 ],
					"destination" : [ "obj-112", 0 ],
					"hidden" : 0,
					"midpoints" : [  ]
				}

			}
, 			{
				"patchline" : 				{
					"source" : [ "obj-50", 0 ],
					"destination" : [ "obj-111", 1 ],
					"hidden" : 0,
					"midpoints" : [  ]
				}

			}
, 			{
				"patchline" : 				{
					"source" : [ "obj-51", 0 ],
					"destination" : [ "obj-111", 2 ],
					"hidden" : 0,
					"midpoints" : [  ]
				}

			}
, 			{
				"patchline" : 				{
					"source" : [ "obj-52", 0 ],
					"destination" : [ "obj-111", 3 ],
					"hidden" : 0,
					"midpoints" : [  ]
				}

			}
, 			{
				"patchline" : 				{
					"source" : [ "obj-53", 0 ],
					"destination" : [ "obj-111", 4 ],
					"hidden" : 0,
					"midpoints" : [  ]
				}

			}
, 			{
				"patchline" : 				{
					"source" : [ "obj-54", 0 ],
					"destination" : [ "obj-111", 5 ],
					"hidden" : 0,
					"midpoints" : [  ]
				}

			}
, 			{
				"patchline" : 				{
					"source" : [ "obj-55", 0 ],
					"destination" : [ "obj-111", 6 ],
					"hidden" : 0,
					"midpoints" : [  ]
				}

			}
, 			{
				"patchline" : 				{
					"source" : [ "obj-56", 0 ],
					"destination" : [ "obj-111", 7 ],
					"hidden" : 0,
					"midpoints" : [  ]
				}

			}
, 			{
				"patchline" : 				{
					"source" : [ "obj-57", 0 ],
					"destination" : [ "obj-111", 8 ],
					"hidden" : 0,
					"midpoints" : [  ]
				}

			}
, 			{
				"patchline" : 				{
					"source" : [ "obj-58", 0 ],
					"destination" : [ "obj-111", 9 ],
					"hidden" : 0,
					"midpoints" : [  ]
				}

			}
, 			{
				"patchline" : 				{
					"source" : [ "obj-59", 0 ],
					"destination" : [ "obj-111", 10 ],
					"hidden" : 0,
					"midpoints" : [  ]
				}

			}
, 			{
				"patchline" : 				{
					"source" : [ "obj-60", 0 ],
					"destination" : [ "obj-111", 11 ],
					"hidden" : 0,
					"midpoints" : [  ]
				}

			}
, 			{
				"patchline" : 				{
					"source" : [ "obj-61", 0 ],
					"destination" : [ "obj-111", 12 ],
					"hidden" : 0,
					"midpoints" : [  ]
				}

			}
, 			{
				"patchline" : 				{
					"source" : [ "obj-62", 0 ],
					"destination" : [ "obj-111", 13 ],
					"hidden" : 0,
					"midpoints" : [  ]
				}

			}
, 			{
				"patchline" : 				{
					"source" : [ "obj-63", 0 ],
					"destination" : [ "obj-111", 14 ],
					"hidden" : 0,
					"midpoints" : [  ]
				}

			}
, 			{
				"patchline" : 				{
					"source" : [ "obj-64", 0 ],
					"destination" : [ "obj-111", 15 ],
					"hidden" : 0,
					"midpoints" : [  ]
				}

			}
, 			{
				"patchline" : 				{
					"source" : [ "obj-65", 0 ],
					"destination" : [ "obj-111", 16 ],
					"hidden" : 0,
					"midpoints" : [  ]
				}

			}
, 			{
				"patchline" : 				{
					"source" : [ "obj-66", 0 ],
					"destination" : [ "obj-111", 17 ],
					"hidden" : 0,
					"midpoints" : [  ]
				}

			}
, 			{
				"patchline" : 				{
					"source" : [ "obj-68", 0 ],
					"destination" : [ "obj-111", 18 ],
					"hidden" : 0,
					"midpoints" : [  ]
				}

			}
, 			{
				"patchline" : 				{
					"source" : [ "obj-69", 0 ],
					"destination" : [ "obj-111", 19 ],
					"hidden" : 0,
					"midpoints" : [  ]
				}

			}
, 			{
				"patchline" : 				{
					"source" : [ "obj-70", 0 ],
					"destination" : [ "obj-111", 20 ],
					"hidden" : 0,
					"midpoints" : [  ]
				}

			}
, 			{
				"patchline" : 				{
					"source" : [ "obj-71", 0 ],
					"destination" : [ "obj-111", 21 ],
					"hidden" : 0,
					"midpoints" : [  ]
				}

			}
, 			{
				"patchline" : 				{
					"source" : [ "obj-72", 0 ],
					"destination" : [ "obj-111", 22 ],
					"hidden" : 0,
					"midpoints" : [  ]
				}

			}
, 			{
				"patchline" : 				{
					"source" : [ "obj-73", 0 ],
					"destination" : [ "obj-111", 23 ],
					"hidden" : 0,
					"midpoints" : [  ]
				}

			}
, 			{
				"patchline" : 				{
					"source" : [ "obj-74", 0 ],
					"destination" : [ "obj-111", 24 ],
					"hidden" : 0,
					"midpoints" : [  ]
				}

			}
, 			{
				"patchline" : 				{
					"source" : [ "obj-75", 0 ],
					"destination" : [ "obj-111", 25 ],
					"hidden" : 0,
					"midpoints" : [  ]
				}

			}
, 			{
				"patchline" : 				{
					"source" : [ "obj-76", 0 ],
					"destination" : [ "obj-111", 26 ],
					"hidden" : 0,
					"midpoints" : [  ]
				}

			}
, 			{
				"patchline" : 				{
					"source" : [ "obj-77", 0 ],
					"destination" : [ "obj-111", 27 ],
					"hidden" : 0,
					"midpoints" : [  ]
				}

			}
, 			{
				"patchline" : 				{
					"source" : [ "obj-78", 0 ],
					"destination" : [ "obj-111", 28 ],
					"hidden" : 0,
					"midpoints" : [  ]
				}

			}
, 			{
				"patchline" : 				{
					"source" : [ "obj-79", 0 ],
					"destination" : [ "obj-111", 29 ],
					"hidden" : 0,
					"midpoints" : [  ]
				}

			}
, 			{
				"patchline" : 				{
					"source" : [ "obj-80", 0 ],
					"destination" : [ "obj-111", 30 ],
					"hidden" : 0,
					"midpoints" : [  ]
				}

			}
, 			{
				"patchline" : 				{
					"source" : [ "obj-81", 0 ],
					"destination" : [ "obj-111", 31 ],
					"hidden" : 0,
					"midpoints" : [  ]
				}

			}
, 			{
				"patchline" : 				{
					"source" : [ "obj-82", 0 ],
					"destination" : [ "obj-111", 32 ],
					"hidden" : 0,
					"midpoints" : [  ]
				}

			}
, 			{
				"patchline" : 				{
					"source" : [ "obj-83", 0 ],
					"destination" : [ "obj-111", 33 ],
					"hidden" : 0,
					"midpoints" : [  ]
				}

			}
, 			{
				"patchline" : 				{
					"source" : [ "obj-84", 0 ],
					"destination" : [ "obj-111", 34 ],
					"hidden" : 0,
					"midpoints" : [  ]
				}

			}
, 			{
				"patchline" : 				{
					"source" : [ "obj-85", 0 ],
					"destination" : [ "obj-111", 35 ],
					"hidden" : 0,
					"midpoints" : [  ]
				}

			}
, 			{
				"patchline" : 				{
					"source" : [ "obj-86", 0 ],
					"destination" : [ "obj-111", 36 ],
					"hidden" : 0,
					"midpoints" : [  ]
				}

			}
, 			{
				"patchline" : 				{
					"source" : [ "obj-87", 0 ],
					"destination" : [ "obj-111", 37 ],
					"hidden" : 0,
					"midpoints" : [  ]
				}

			}
, 			{
				"patchline" : 				{
					"source" : [ "obj-88", 0 ],
					"destination" : [ "obj-111", 38 ],
					"hidden" : 0,
					"midpoints" : [  ]
				}

			}
, 			{
				"patchline" : 				{
					"source" : [ "obj-89", 0 ],
					"destination" : [ "obj-111", 39 ],
					"hidden" : 0,
					"midpoints" : [  ]
				}

			}
, 			{
				"patchline" : 				{
					"source" : [ "obj-11", 0 ],
					"destination" : [ "obj-111", 0 ],
					"hidden" : 0,
					"midpoints" : [  ]
				}

			}
, 			{
				"patchline" : 				{
					"source" : [ "obj-132", 0 ],
					"destination" : [ "obj-133", 0 ],
					"hidden" : 0,
					"midpoints" : [  ]
				}

			}
, 			{
				"patchline" : 				{
					"source" : [ "obj-111", 1 ],
					"destination" : [ "obj-113", 0 ],
					"hidden" : 0,
					"midpoints" : [  ]
				}

			}
, 			{
				"patchline" : 				{
					"source" : [ "obj-111", 2 ],
					"destination" : [ "obj-114", 0 ],
					"hidden" : 0,
					"midpoints" : [  ]
				}

			}
, 			{
				"patchline" : 				{
					"source" : [ "obj-111", 3 ],
					"destination" : [ "obj-115", 0 ],
					"hidden" : 0,
					"midpoints" : [  ]
				}

			}
, 			{
				"patchline" : 				{
					"source" : [ "obj-111", 4 ],
					"destination" : [ "obj-116", 0 ],
					"hidden" : 0,
					"midpoints" : [  ]
				}

			}
, 			{
				"patchline" : 				{
					"source" : [ "obj-111", 5 ],
					"destination" : [ "obj-117", 0 ],
					"hidden" : 0,
					"midpoints" : [  ]
				}

			}
, 			{
				"patchline" : 				{
					"source" : [ "obj-111", 6 ],
					"destination" : [ "obj-118", 0 ],
					"hidden" : 0,
					"midpoints" : [  ]
				}

			}
, 			{
				"patchline" : 				{
					"source" : [ "obj-111", 7 ],
					"destination" : [ "obj-119", 0 ],
					"hidden" : 0,
					"midpoints" : [  ]
				}

			}
, 			{
				"patchline" : 				{
					"source" : [ "obj-111", 8 ],
					"destination" : [ "obj-120", 0 ],
					"hidden" : 0,
					"midpoints" : [  ]
				}

			}
, 			{
				"patchline" : 				{
					"source" : [ "obj-111", 9 ],
					"destination" : [ "obj-121", 0 ],
					"hidden" : 0,
					"midpoints" : [  ]
				}

			}
, 			{
				"patchline" : 				{
					"source" : [ "obj-111", 10 ],
					"destination" : [ "obj-122", 0 ],
					"hidden" : 0,
					"midpoints" : [  ]
				}

			}
, 			{
				"patchline" : 				{
					"source" : [ "obj-111", 11 ],
					"destination" : [ "obj-123", 0 ],
					"hidden" : 0,
					"midpoints" : [  ]
				}

			}
, 			{
				"patchline" : 				{
					"source" : [ "obj-111", 12 ],
					"destination" : [ "obj-127", 0 ],
					"hidden" : 0,
					"midpoints" : [  ]
				}

			}
, 			{
				"patchline" : 				{
					"source" : [ "obj-111", 13 ],
					"destination" : [ "obj-128", 0 ],
					"hidden" : 0,
					"midpoints" : [  ]
				}

			}
, 			{
				"patchline" : 				{
					"source" : [ "obj-111", 14 ],
					"destination" : [ "obj-129", 0 ],
					"hidden" : 0,
					"midpoints" : [  ]
				}

			}
, 			{
				"patchline" : 				{
					"source" : [ "obj-111", 15 ],
					"destination" : [ "obj-130", 0 ],
					"hidden" : 0,
					"midpoints" : [  ]
				}

			}
, 			{
				"patchline" : 				{
					"source" : [ "obj-50", 0 ],
					"destination" : [ "obj-136", 1 ],
					"hidden" : 0,
					"midpoints" : [  ]
				}

			}
, 			{
				"patchline" : 				{
					"source" : [ "obj-51", 0 ],
					"destination" : [ "obj-136", 2 ],
					"hidden" : 0,
					"midpoints" : [  ]
				}

			}
, 			{
				"patchline" : 				{
					"source" : [ "obj-52", 0 ],
					"destination" : [ "obj-136", 3 ],
					"hidden" : 0,
					"midpoints" : [  ]
				}

			}
, 			{
				"patchline" : 				{
					"source" : [ "obj-53", 0 ],
					"destination" : [ "obj-136", 4 ],
					"hidden" : 0,
					"midpoints" : [  ]
				}

			}
, 			{
				"patchline" : 				{
					"source" : [ "obj-54", 0 ],
					"destination" : [ "obj-136", 5 ],
					"hidden" : 0,
					"midpoints" : [  ]
				}

			}
, 			{
				"patchline" : 				{
					"source" : [ "obj-55", 0 ],
					"destination" : [ "obj-136", 6 ],
					"hidden" : 0,
					"midpoints" : [  ]
				}

			}
, 			{
				"patchline" : 				{
					"source" : [ "obj-56", 0 ],
					"destination" : [ "obj-136", 7 ],
					"hidden" : 0,
					"midpoints" : [  ]
				}

			}
, 			{
				"patchline" : 				{
					"source" : [ "obj-57", 0 ],
					"destination" : [ "obj-136", 8 ],
					"hidden" : 0,
					"midpoints" : [  ]
				}

			}
, 			{
				"patchline" : 				{
					"source" : [ "obj-58", 0 ],
					"destination" : [ "obj-136", 9 ],
					"hidden" : 0,
					"midpoints" : [  ]
				}

			}
, 			{
				"patchline" : 				{
					"source" : [ "obj-59", 0 ],
					"destination" : [ "obj-136", 10 ],
					"hidden" : 0,
					"midpoints" : [  ]
				}

			}
, 			{
				"patchline" : 				{
					"source" : [ "obj-60", 0 ],
					"destination" : [ "obj-136", 11 ],
					"hidden" : 0,
					"midpoints" : [  ]
				}

			}
, 			{
				"patchline" : 				{
					"source" : [ "obj-61", 0 ],
					"destination" : [ "obj-136", 12 ],
					"hidden" : 0,
					"midpoints" : [  ]
				}

			}
, 			{
				"patchline" : 				{
					"source" : [ "obj-62", 0 ],
					"destination" : [ "obj-136", 13 ],
					"hidden" : 0,
					"midpoints" : [  ]
				}

			}
, 			{
				"patchline" : 				{
					"source" : [ "obj-63", 0 ],
					"destination" : [ "obj-136", 14 ],
					"hidden" : 0,
					"midpoints" : [  ]
				}

			}
, 			{
				"patchline" : 				{
					"source" : [ "obj-64", 0 ],
					"destination" : [ "obj-136", 15 ],
					"hidden" : 0,
					"midpoints" : [  ]
				}

			}
, 			{
				"patchline" : 				{
					"source" : [ "obj-65", 0 ],
					"destination" : [ "obj-136", 16 ],
					"hidden" : 0,
					"midpoints" : [  ]
				}

			}
, 			{
				"patchline" : 				{
					"source" : [ "obj-66", 0 ],
					"destination" : [ "obj-136", 17 ],
					"hidden" : 0,
					"midpoints" : [  ]
				}

			}
, 			{
				"patchline" : 				{
					"source" : [ "obj-68", 0 ],
					"destination" : [ "obj-136", 18 ],
					"hidden" : 0,
					"midpoints" : [  ]
				}

			}
, 			{
				"patchline" : 				{
					"source" : [ "obj-69", 0 ],
					"destination" : [ "obj-136", 19 ],
					"hidden" : 0,
					"midpoints" : [  ]
				}

			}
, 			{
				"patchline" : 				{
					"source" : [ "obj-70", 0 ],
					"destination" : [ "obj-136", 20 ],
					"hidden" : 0,
					"midpoints" : [  ]
				}

			}
, 			{
				"patchline" : 				{
					"source" : [ "obj-71", 0 ],
					"destination" : [ "obj-136", 21 ],
					"hidden" : 0,
					"midpoints" : [  ]
				}

			}
, 			{
				"patchline" : 				{
					"source" : [ "obj-72", 0 ],
					"destination" : [ "obj-136", 22 ],
					"hidden" : 0,
					"midpoints" : [  ]
				}

			}
, 			{
				"patchline" : 				{
					"source" : [ "obj-73", 0 ],
					"destination" : [ "obj-136", 23 ],
					"hidden" : 0,
					"midpoints" : [  ]
				}

			}
, 			{
				"patchline" : 				{
					"source" : [ "obj-74", 0 ],
					"destination" : [ "obj-136", 24 ],
					"hidden" : 0,
					"midpoints" : [  ]
				}

			}
, 			{
				"patchline" : 				{
					"source" : [ "obj-75", 0 ],
					"destination" : [ "obj-136", 25 ],
					"hidden" : 0,
					"midpoints" : [  ]
				}

			}
, 			{
				"patchline" : 				{
					"source" : [ "obj-76", 0 ],
					"destination" : [ "obj-136", 26 ],
					"hidden" : 0,
					"midpoints" : [  ]
				}

			}
, 			{
				"patchline" : 				{
					"source" : [ "obj-77", 0 ],
					"destination" : [ "obj-136", 27 ],
					"hidden" : 0,
					"midpoints" : [  ]
				}

			}
, 			{
				"patchline" : 				{
					"source" : [ "obj-78", 0 ],
					"destination" : [ "obj-136", 28 ],
					"hidden" : 0,
					"midpoints" : [  ]
				}

			}
, 			{
				"patchline" : 				{
					"source" : [ "obj-79", 0 ],
					"destination" : [ "obj-136", 29 ],
					"hidden" : 0,
					"midpoints" : [  ]
				}

			}
, 			{
				"patchline" : 				{
					"source" : [ "obj-80", 0 ],
					"destination" : [ "obj-136", 30 ],
					"hidden" : 0,
					"midpoints" : [  ]
				}

			}
, 			{
				"patchline" : 				{
					"source" : [ "obj-81", 0 ],
					"destination" : [ "obj-136", 31 ],
					"hidden" : 0,
					"midpoints" : [  ]
				}

			}
, 			{
				"patchline" : 				{
					"source" : [ "obj-82", 0 ],
					"destination" : [ "obj-136", 32 ],
					"hidden" : 0,
					"midpoints" : [  ]
				}

			}
, 			{
				"patchline" : 				{
					"source" : [ "obj-83", 0 ],
					"destination" : [ "obj-136", 33 ],
					"hidden" : 0,
					"midpoints" : [  ]
				}

			}
, 			{
				"patchline" : 				{
					"source" : [ "obj-84", 0 ],
					"destination" : [ "obj-136", 34 ],
					"hidden" : 0,
					"midpoints" : [  ]
				}

			}
, 			{
				"patchline" : 				{
					"source" : [ "obj-85", 0 ],
					"destination" : [ "obj-136", 35 ],
					"hidden" : 0,
					"midpoints" : [  ]
				}

			}
, 			{
				"patchline" : 				{
					"source" : [ "obj-86", 0 ],
					"destination" : [ "obj-136", 36 ],
					"hidden" : 0,
					"midpoints" : [  ]
				}

			}
, 			{
				"patchline" : 				{
					"source" : [ "obj-87", 0 ],
					"destination" : [ "obj-136", 37 ],
					"hidden" : 0,
					"midpoints" : [  ]
				}

			}
, 			{
				"patchline" : 				{
					"source" : [ "obj-88", 0 ],
					"destination" : [ "obj-136", 38 ],
					"hidden" : 0,
					"midpoints" : [  ]
				}

			}
, 			{
				"patchline" : 				{
					"source" : [ "obj-89", 0 ],
					"destination" : [ "obj-136", 39 ],
					"hidden" : 0,
					"midpoints" : [  ]
				}

			}
, 			{
				"patchline" : 				{
					"source" : [ "obj-11", 0 ],
					"destination" : [ "obj-136", 0 ],
					"hidden" : 0,
					"midpoints" : [  ]
				}

			}
, 			{
				"patchline" : 				{
					"source" : [ "obj-136", 0 ],
					"destination" : [ "obj-137", 0 ],
					"hidden" : 0,
					"midpoints" : [  ]
				}

			}
, 			{
				"patchline" : 				{
					"source" : [ "obj-136", 1 ],
					"destination" : [ "obj-138", 0 ],
					"hidden" : 0,
					"midpoints" : [  ]
				}

			}
, 			{
				"patchline" : 				{
					"source" : [ "obj-136", 2 ],
					"destination" : [ "obj-139", 0 ],
					"hidden" : 0,
					"midpoints" : [  ]
				}

			}
, 			{
				"patchline" : 				{
					"source" : [ "obj-136", 3 ],
					"destination" : [ "obj-140", 0 ],
					"hidden" : 0,
					"midpoints" : [  ]
				}

			}
, 			{
				"patchline" : 				{
					"source" : [ "obj-136", 4 ],
					"destination" : [ "obj-141", 0 ],
					"hidden" : 0,
					"midpoints" : [  ]
				}

			}
, 			{
				"patchline" : 				{
					"source" : [ "obj-136", 5 ],
					"destination" : [ "obj-142", 0 ],
					"hidden" : 0,
					"midpoints" : [  ]
				}

			}
, 			{
				"patchline" : 				{
					"source" : [ "obj-136", 6 ],
					"destination" : [ "obj-143", 0 ],
					"hidden" : 0,
					"midpoints" : [  ]
				}

			}
, 			{
				"patchline" : 				{
					"source" : [ "obj-136", 7 ],
					"destination" : [ "obj-144", 0 ],
					"hidden" : 0,
					"midpoints" : [  ]
				}

			}
, 			{
				"patchline" : 				{
					"source" : [ "obj-136", 8 ],
					"destination" : [ "obj-145", 0 ],
					"hidden" : 0,
					"midpoints" : [  ]
				}

			}
, 			{
				"patchline" : 				{
					"source" : [ "obj-136", 9 ],
					"destination" : [ "obj-146", 0 ],
					"hidden" : 0,
					"midpoints" : [  ]
				}

			}
, 			{
				"patchline" : 				{
					"source" : [ "obj-136", 10 ],
					"destination" : [ "obj-147", 0 ],
					"hidden" : 0,
					"midpoints" : [  ]
				}

			}
, 			{
				"patchline" : 				{
					"source" : [ "obj-136", 11 ],
					"destination" : [ "obj-148", 0 ],
					"hidden" : 0,
					"midpoints" : [  ]
				}

			}
, 			{
				"patchline" : 				{
					"source" : [ "obj-136", 12 ],
					"destination" : [ "obj-149", 0 ],
					"hidden" : 0,
					"midpoints" : [  ]
				}

			}
, 			{
				"patchline" : 				{
					"source" : [ "obj-136", 13 ],
					"destination" : [ "obj-150", 0 ],
					"hidden" : 0,
					"midpoints" : [  ]
				}

			}
, 			{
				"patchline" : 				{
					"source" : [ "obj-136", 14 ],
					"destination" : [ "obj-151", 0 ],
					"hidden" : 0,
					"midpoints" : [  ]
				}

			}
, 			{
				"patchline" : 				{
					"source" : [ "obj-136", 15 ],
					"destination" : [ "obj-152", 0 ],
					"hidden" : 0,
					"midpoints" : [  ]
				}

			}
, 			{
				"patchline" : 				{
					"source" : [ "obj-44", 2 ],
					"destination" : [ "obj-108", 1 ],
					"hidden" : 0,
					"midpoints" : [  ]
				}

			}
, 			{
				"patchline" : 				{
					"source" : [ "obj-44", 2 ],
					"destination" : [ "obj-108", 0 ],
					"hidden" : 0,
					"midpoints" : [  ]
				}

			}
, 			{
				"patchline" : 				{
					"source" : [ "obj-108", 0 ],
					"destination" : [ "obj-45", 0 ],
					"hidden" : 0,
					"midpoints" : [  ]
				}

			}
, 			{
				"patchline" : 				{
					"source" : [ "obj-50", 0 ],
					"destination" : [ "obj-153", 1 ],
					"hidden" : 0,
					"midpoints" : [  ]
				}

			}
, 			{
				"patchline" : 				{
					"source" : [ "obj-51", 0 ],
					"destination" : [ "obj-153", 2 ],
					"hidden" : 0,
					"midpoints" : [  ]
				}

			}
, 			{
				"patchline" : 				{
					"source" : [ "obj-52", 0 ],
					"destination" : [ "obj-153", 3 ],
					"hidden" : 0,
					"midpoints" : [  ]
				}

			}
, 			{
				"patchline" : 				{
					"source" : [ "obj-53", 0 ],
					"destination" : [ "obj-153", 4 ],
					"hidden" : 0,
					"midpoints" : [  ]
				}

			}
, 			{
				"patchline" : 				{
					"source" : [ "obj-54", 0 ],
					"destination" : [ "obj-153", 5 ],
					"hidden" : 0,
					"midpoints" : [  ]
				}

			}
, 			{
				"patchline" : 				{
					"source" : [ "obj-55", 0 ],
					"destination" : [ "obj-153", 6 ],
					"hidden" : 0,
					"midpoints" : [  ]
				}

			}
, 			{
				"patchline" : 				{
					"source" : [ "obj-56", 0 ],
					"destination" : [ "obj-153", 7 ],
					"hidden" : 0,
					"midpoints" : [  ]
				}

			}
, 			{
				"patchline" : 				{
					"source" : [ "obj-57", 0 ],
					"destination" : [ "obj-153", 8 ],
					"hidden" : 0,
					"midpoints" : [  ]
				}

			}
, 			{
				"patchline" : 				{
					"source" : [ "obj-58", 0 ],
					"destination" : [ "obj-153", 9 ],
					"hidden" : 0,
					"midpoints" : [  ]
				}

			}
, 			{
				"patchline" : 				{
					"source" : [ "obj-59", 0 ],
					"destination" : [ "obj-153", 10 ],
					"hidden" : 0,
					"midpoints" : [  ]
				}

			}
, 			{
				"patchline" : 				{
					"source" : [ "obj-60", 0 ],
					"destination" : [ "obj-153", 11 ],
					"hidden" : 0,
					"midpoints" : [  ]
				}

			}
, 			{
				"patchline" : 				{
					"source" : [ "obj-61", 0 ],
					"destination" : [ "obj-153", 12 ],
					"hidden" : 0,
					"midpoints" : [  ]
				}

			}
, 			{
				"patchline" : 				{
					"source" : [ "obj-62", 0 ],
					"destination" : [ "obj-153", 13 ],
					"hidden" : 0,
					"midpoints" : [  ]
				}

			}
, 			{
				"patchline" : 				{
					"source" : [ "obj-63", 0 ],
					"destination" : [ "obj-153", 14 ],
					"hidden" : 0,
					"midpoints" : [  ]
				}

			}
, 			{
				"patchline" : 				{
					"source" : [ "obj-64", 0 ],
					"destination" : [ "obj-153", 15 ],
					"hidden" : 0,
					"midpoints" : [  ]
				}

			}
, 			{
				"patchline" : 				{
					"source" : [ "obj-65", 0 ],
					"destination" : [ "obj-153", 16 ],
					"hidden" : 0,
					"midpoints" : [  ]
				}

			}
, 			{
				"patchline" : 				{
					"source" : [ "obj-66", 0 ],
					"destination" : [ "obj-153", 17 ],
					"hidden" : 0,
					"midpoints" : [  ]
				}

			}
, 			{
				"patchline" : 				{
					"source" : [ "obj-68", 0 ],
					"destination" : [ "obj-153", 18 ],
					"hidden" : 0,
					"midpoints" : [  ]
				}

			}
, 			{
				"patchline" : 				{
					"source" : [ "obj-69", 0 ],
					"destination" : [ "obj-153", 19 ],
					"hidden" : 0,
					"midpoints" : [  ]
				}

			}
, 			{
				"patchline" : 				{
					"source" : [ "obj-70", 0 ],
					"destination" : [ "obj-153", 20 ],
					"hidden" : 0,
					"midpoints" : [  ]
				}

			}
, 			{
				"patchline" : 				{
					"source" : [ "obj-71", 0 ],
					"destination" : [ "obj-153", 21 ],
					"hidden" : 0,
					"midpoints" : [  ]
				}

			}
, 			{
				"patchline" : 				{
					"source" : [ "obj-72", 0 ],
					"destination" : [ "obj-153", 22 ],
					"hidden" : 0,
					"midpoints" : [  ]
				}

			}
, 			{
				"patchline" : 				{
					"source" : [ "obj-73", 0 ],
					"destination" : [ "obj-153", 23 ],
					"hidden" : 0,
					"midpoints" : [  ]
				}

			}
, 			{
				"patchline" : 				{
					"source" : [ "obj-74", 0 ],
					"destination" : [ "obj-153", 24 ],
					"hidden" : 0,
					"midpoints" : [  ]
				}

			}
, 			{
				"patchline" : 				{
					"source" : [ "obj-75", 0 ],
					"destination" : [ "obj-153", 25 ],
					"hidden" : 0,
					"midpoints" : [  ]
				}

			}
, 			{
				"patchline" : 				{
					"source" : [ "obj-76", 0 ],
					"destination" : [ "obj-153", 26 ],
					"hidden" : 0,
					"midpoints" : [  ]
				}

			}
, 			{
				"patchline" : 				{
					"source" : [ "obj-77", 0 ],
					"destination" : [ "obj-153", 27 ],
					"hidden" : 0,
					"midpoints" : [  ]
				}

			}
, 			{
				"patchline" : 				{
					"source" : [ "obj-78", 0 ],
					"destination" : [ "obj-153", 28 ],
					"hidden" : 0,
					"midpoints" : [  ]
				}

			}
, 			{
				"patchline" : 				{
					"source" : [ "obj-79", 0 ],
					"destination" : [ "obj-153", 29 ],
					"hidden" : 0,
					"midpoints" : [  ]
				}

			}
, 			{
				"patchline" : 				{
					"source" : [ "obj-80", 0 ],
					"destination" : [ "obj-153", 30 ],
					"hidden" : 0,
					"midpoints" : [  ]
				}

			}
, 			{
				"patchline" : 				{
					"source" : [ "obj-81", 0 ],
					"destination" : [ "obj-153", 31 ],
					"hidden" : 0,
					"midpoints" : [  ]
				}

			}
, 			{
				"patchline" : 				{
					"source" : [ "obj-82", 0 ],
					"destination" : [ "obj-153", 32 ],
					"hidden" : 0,
					"midpoints" : [  ]
				}

			}
, 			{
				"patchline" : 				{
					"source" : [ "obj-83", 0 ],
					"destination" : [ "obj-153", 33 ],
					"hidden" : 0,
					"midpoints" : [  ]
				}

			}
, 			{
				"patchline" : 				{
					"source" : [ "obj-84", 0 ],
					"destination" : [ "obj-153", 34 ],
					"hidden" : 0,
					"midpoints" : [  ]
				}

			}
, 			{
				"patchline" : 				{
					"source" : [ "obj-85", 0 ],
					"destination" : [ "obj-153", 35 ],
					"hidden" : 0,
					"midpoints" : [  ]
				}

			}
, 			{
				"patchline" : 				{
					"source" : [ "obj-86", 0 ],
					"destination" : [ "obj-153", 36 ],
					"hidden" : 0,
					"midpoints" : [  ]
				}

			}
, 			{
				"patchline" : 				{
					"source" : [ "obj-87", 0 ],
					"destination" : [ "obj-153", 37 ],
					"hidden" : 0,
					"midpoints" : [  ]
				}

			}
, 			{
				"patchline" : 				{
					"source" : [ "obj-88", 0 ],
					"destination" : [ "obj-153", 38 ],
					"hidden" : 0,
					"midpoints" : [  ]
				}

			}
, 			{
				"patchline" : 				{
					"source" : [ "obj-89", 0 ],
					"destination" : [ "obj-153", 39 ],
					"hidden" : 0,
					"midpoints" : [  ]
				}

			}
, 			{
				"patchline" : 				{
					"source" : [ "obj-133", 2 ],
					"destination" : [ "obj-134", 0 ],
					"hidden" : 0,
					"midpoints" : [  ]
				}

			}
, 			{
				"patchline" : 				{
					"source" : [ "obj-134", 0 ],
					"destination" : [ "obj-109", 1 ],
					"hidden" : 0,
					"midpoints" : [  ]
				}

			}
, 			{
				"patchline" : 				{
					"source" : [ "obj-133", 2 ],
					"destination" : [ "obj-109", 0 ],
					"hidden" : 0,
					"midpoints" : [  ]
				}

			}
, 			{
				"patchline" : 				{
					"source" : [ "obj-109", 0 ],
					"destination" : [ "obj-45", 0 ],
					"hidden" : 0,
					"midpoints" : [  ]
				}

			}
, 			{
				"patchline" : 				{
					"source" : [ "obj-153", 0 ],
					"destination" : [ "obj-154", 0 ],
					"hidden" : 0,
					"midpoints" : [  ]
				}

			}
, 			{
				"patchline" : 				{
					"source" : [ "obj-153", 1 ],
					"destination" : [ "obj-155", 0 ],
					"hidden" : 0,
					"midpoints" : [  ]
				}

			}
, 			{
				"patchline" : 				{
					"source" : [ "obj-153", 2 ],
					"destination" : [ "obj-156", 0 ],
					"hidden" : 0,
					"midpoints" : [  ]
				}

			}
, 			{
				"patchline" : 				{
					"source" : [ "obj-153", 3 ],
					"destination" : [ "obj-157", 0 ],
					"hidden" : 0,
					"midpoints" : [  ]
				}

			}
, 			{
				"patchline" : 				{
					"source" : [ "obj-153", 4 ],
					"destination" : [ "obj-158", 0 ],
					"hidden" : 0,
					"midpoints" : [  ]
				}

			}
, 			{
				"patchline" : 				{
					"source" : [ "obj-153", 5 ],
					"destination" : [ "obj-159", 0 ],
					"hidden" : 0,
					"midpoints" : [  ]
				}

			}
, 			{
				"patchline" : 				{
					"source" : [ "obj-153", 6 ],
					"destination" : [ "obj-160", 0 ],
					"hidden" : 0,
					"midpoints" : [  ]
				}

			}
, 			{
				"patchline" : 				{
					"source" : [ "obj-153", 7 ],
					"destination" : [ "obj-161", 0 ],
					"hidden" : 0,
					"midpoints" : [  ]
				}

			}
, 			{
				"patchline" : 				{
					"source" : [ "obj-153", 8 ],
					"destination" : [ "obj-162", 0 ],
					"hidden" : 0,
					"midpoints" : [  ]
				}

			}
, 			{
				"patchline" : 				{
					"source" : [ "obj-153", 9 ],
					"destination" : [ "obj-163", 0 ],
					"hidden" : 0,
					"midpoints" : [  ]
				}

			}
, 			{
				"patchline" : 				{
					"source" : [ "obj-153", 10 ],
					"destination" : [ "obj-164", 0 ],
					"hidden" : 0,
					"midpoints" : [  ]
				}

			}
, 			{
				"patchline" : 				{
					"source" : [ "obj-153", 11 ],
					"destination" : [ "obj-165", 0 ],
					"hidden" : 0,
					"midpoints" : [  ]
				}

			}
, 			{
				"patchline" : 				{
					"source" : [ "obj-153", 12 ],
					"destination" : [ "obj-166", 0 ],
					"hidden" : 0,
					"midpoints" : [  ]
				}

			}
, 			{
				"patchline" : 				{
					"source" : [ "obj-153", 13 ],
					"destination" : [ "obj-167", 0 ],
					"hidden" : 0,
					"midpoints" : [  ]
				}

			}
, 			{
				"patchline" : 				{
					"source" : [ "obj-153", 14 ],
					"destination" : [ "obj-168", 0 ],
					"hidden" : 0,
					"midpoints" : [  ]
				}

			}
, 			{
				"patchline" : 				{
					"source" : [ "obj-153", 15 ],
					"destination" : [ "obj-169", 0 ],
					"hidden" : 0,
					"midpoints" : [  ]
				}

			}
, 			{
				"patchline" : 				{
					"source" : [ "obj-110", 3 ],
					"destination" : [ "obj-153", 0 ],
					"hidden" : 0,
					"midpoints" : [ 49.75, 509.0, 110.5, 509.0 ]
				}

			}
, 			{
				"patchline" : 				{
					"source" : [ "obj-110", 2 ],
					"destination" : [ "obj-136", 0 ],
					"hidden" : 0,
					"midpoints" : [ 25.0, 406.0, 116.5, 406.0 ]
				}

			}
, 			{
				"patchline" : 				{
					"source" : [ "obj-110", 1 ],
					"destination" : [ "obj-111", 0 ],
					"hidden" : 0,
					"midpoints" : [ 0.25, 239.0, 155.590897, 239.0 ]
				}

			}
, 			{
				"patchline" : 				{
					"source" : [ "obj-110", 0 ],
					"destination" : [ "obj-1", 0 ],
					"hidden" : 0,
					"midpoints" : [ -24.5, 126.0, 110.5, 126.0 ]
				}

			}
, 			{
				"patchline" : 				{
					"source" : [ "obj-11", 0 ],
					"destination" : [ "obj-153", 0 ],
					"hidden" : 0,
					"midpoints" : [  ]
				}

			}
 ]
	}

}
